{"glyphs":{"0":{"ha":625,"x_min":53,"x_max":572,"o":"m 311 -15 q 124 59 194 -15 q 53 254 53 133 l 53 718 q 124 913 53 839 q 311 988 194 988 q 501 913 429 988 q 572 718 572 839 l 572 254 q 501 59 572 133 q 311 -15 429 -15 m 311 125 q 384 158 357 125 q 411 244 411 190 l 411 728 q 384 815 411 782 q 311 847 357 847 q 240 815 267 847 q 214 728 214 782 l 214 244 q 240 158 214 190 q 311 125 267 125 z "},"1":{"ha":381,"x_min":14,"x_max":319,"o":"m 149 968 q 169 972 158 972 l 303 972 q 315 967 310 972 q 319 956 319 963 l 319 17 q 315 5 319 10 q 303 0 310 0 l 175 0 q 163 5 168 0 q 158 17 158 10 l 158 800 q 156 806 158 803 q 151 807 154 808 l 38 785 l 33 785 q 18 800 18 785 l 14 893 q 25 913 14 907 l 149 968 z "},"2":{"ha":590,"x_min":40,"x_max":561,"o":"m 236 147 q 235 142 233 144 q 240 139 236 139 l 544 139 q 556 134 551 139 q 561 122 561 129 l 561 17 q 556 5 561 10 q 544 0 551 0 l 60 0 q 48 5 53 0 q 43 17 43 10 l 43 128 q 50 149 43 140 l 104 222 q 210 369 158 294 q 299 504 263 444 q 379 725 379 638 q 355 813 379 781 q 290 844 331 844 q 226 813 250 844 q 204 731 203 782 l 204 676 q 199 665 204 669 q 188 660 194 660 l 57 660 q 45 665 50 660 q 40 676 40 669 l 40 736 q 116 915 46 847 q 297 983 186 983 q 474 912 407 983 q 542 724 542 840 q 518 586 542 654 q 443 440 494 518 q 360 318 408 385 q 297 231 313 251 q 236 147 256 175 z "},"3":{"ha":592,"x_min":39,"x_max":538,"o":"m 525 426 q 538 303 538 371 q 528 186 538 235 q 452 40 511 92 q 292 -11 393 -11 q 119 45 186 -11 q 44 199 53 101 q 39 288 42 229 q 56 304 39 304 l 183 304 q 200 288 200 304 q 206 217 203 240 q 235 151 213 174 q 292 128 257 128 q 347 149 325 128 q 376 211 369 171 q 383 319 383 253 q 374 438 383 390 q 344 493 365 474 q 292 513 324 513 q 254 500 271 513 q 242 494 246 494 q 231 500 239 494 l 165 567 q 160 579 160 572 q 164 590 160 585 l 338 826 q 338 832 340 829 q 332 835 336 835 l 68 835 q 56 840 61 835 q 51 851 51 844 l 51 956 q 56 967 51 963 q 68 972 61 972 l 518 972 q 530 967 525 972 q 535 956 535 963 l 535 846 q 528 825 535 836 l 369 608 q 372 599 364 600 q 470 544 429 592 q 525 426 511 497 z "},"4":{"ha":638,"x_min":24,"x_max":615,"o":"m 599 399 q 610 394 606 399 q 615 382 615 389 l 615 269 q 610 258 615 263 q 599 253 606 253 l 557 253 q 550 246 550 253 l 550 17 q 545 5 550 10 q 533 0 540 0 l 406 0 q 394 5 399 0 q 389 17 389 10 l 389 246 q 382 253 389 253 l 40 253 q 28 258 33 253 q 24 269 24 263 l 24 360 q 26 381 24 372 l 219 958 q 238 972 224 972 l 376 972 q 389 967 385 972 q 390 953 393 963 l 213 407 q 218 399 211 399 l 382 399 q 389 406 389 399 l 389 572 q 394 584 389 579 q 406 589 399 589 l 533 589 q 545 584 540 589 q 550 572 550 579 l 550 406 q 557 399 550 399 l 599 399 z "},"5":{"ha":594,"x_min":54,"x_max":556,"o":"m 547 403 q 556 300 556 360 q 550 203 556 243 q 478 44 543 100 q 304 -11 413 -11 q 138 42 201 -11 q 60 200 74 94 l 56 239 q 72 256 56 256 l 200 256 q 218 239 217 256 q 221 214 218 231 q 304 128 238 128 q 360 150 339 128 q 389 213 382 172 q 394 301 394 247 q 386 390 394 353 q 358 447 379 426 q 304 467 336 467 q 218 403 238 467 q 200 388 214 388 l 71 388 q 59 392 64 388 q 54 404 54 397 l 54 956 q 59 967 54 963 q 71 972 64 972 l 524 972 q 535 967 531 972 q 540 956 540 963 l 540 850 q 535 838 540 843 q 524 833 531 833 l 222 833 q 215 826 215 833 l 215 556 q 218 551 215 551 q 224 553 221 550 q 281 592 247 578 q 353 607 315 607 q 487 553 436 607 q 547 403 538 500 z "},"6":{"ha":596,"x_min":54,"x_max":557,"o":"m 550 397 q 557 300 557 351 q 554 210 557 268 q 481 47 547 104 q 307 -11 415 -11 q 140 42 204 -11 q 64 200 76 96 q 56 288 56 238 l 54 739 q 123 917 54 851 q 304 983 192 983 q 476 917 410 983 q 543 739 543 850 l 543 704 q 538 692 543 697 q 526 688 533 688 l 399 688 q 387 692 392 688 q 382 704 382 697 l 382 731 q 359 809 382 778 q 304 840 336 840 q 241 810 265 840 q 217 731 217 779 l 217 588 q 219 582 217 583 q 225 583 222 581 q 325 621 265 621 q 481 560 421 621 q 550 397 540 499 m 390 222 q 394 311 394 272 q 388 410 394 347 q 306 490 371 490 q 251 469 272 490 q 222 406 229 447 q 217 311 217 357 q 221 218 217 271 q 249 150 228 174 q 306 126 271 126 q 362 151 340 126 q 390 222 383 176 z "},"7":{"ha":544,"x_min":22,"x_max":528,"o":"m 139 0 q 125 18 121 0 l 354 825 q 349 833 357 833 l 161 833 q 154 826 154 833 l 154 776 q 149 765 154 769 q 138 760 144 760 l 39 760 q 27 765 32 760 q 22 776 22 769 l 24 956 q 28 967 24 963 q 40 972 33 972 l 511 972 q 523 967 518 972 q 528 956 528 963 l 528 843 q 525 824 528 838 l 293 14 q 274 0 289 0 l 139 0 z "},"8":{"ha":603,"x_min":53,"x_max":550,"o":"m 451 515 q 451 506 443 510 q 521 425 497 479 q 550 278 550 360 q 528 149 550 204 q 441 31 500 74 q 300 -11 382 -11 q 160 31 219 -11 q 74 147 101 72 q 53 278 53 206 q 78 418 53 360 q 151 504 99 474 q 151 513 157 508 q 81 593 106 542 q 53 726 53 653 q 81 861 53 807 q 166 956 108 922 q 300 989 224 989 q 433 956 375 989 q 519 863 490 924 q 550 726 550 804 q 522 596 550 654 q 451 515 497 544 m 221 776 q 211 713 211 751 q 225 633 211 671 q 254 588 235 604 q 300 571 274 571 q 349 588 329 571 q 379 638 369 606 q 390 713 390 671 q 376 789 390 760 q 347 834 367 818 q 300 850 328 850 q 256 835 275 850 q 228 796 238 821 l 221 776 m 383 213 q 390 286 390 250 q 378 376 390 339 q 349 428 369 410 q 300 447 329 447 q 251 428 271 447 q 222 372 231 408 q 211 289 211 336 q 219 210 211 246 q 248 149 226 171 q 300 128 269 128 q 354 150 332 128 q 383 213 376 172 z "},"9":{"ha":588,"x_min":31,"x_max":533,"o":"m 533 233 q 465 55 533 121 q 283 -11 396 -11 q 111 56 178 -11 q 44 233 44 122 l 44 268 q 49 280 44 275 q 61 285 54 285 l 189 285 q 201 280 196 285 q 206 268 206 275 l 206 242 q 228 163 206 194 q 283 132 251 132 q 347 163 322 132 q 371 242 371 193 l 371 383 q 368 389 371 388 q 363 388 365 390 q 263 351 322 351 q 107 413 167 351 q 38 575 47 474 q 31 672 31 621 q 35 763 31 719 q 106 926 40 868 q 282 983 172 983 q 447 930 383 983 q 525 772 511 876 q 532 685 532 731 l 533 233 m 365 567 q 371 661 371 615 q 367 754 371 703 q 283 846 351 846 q 226 821 249 846 q 197 750 204 796 q 194 661 194 717 q 201 563 194 610 q 230 503 208 524 q 283 482 251 482 q 338 503 317 482 q 365 567 360 525 z "},"\u0000":{"ha":0,"x_min":0,"x_max":0,"o":""},"\r":{"ha":278,"x_min":0,"x_max":0,"o":""}," ":{"ha":278,"x_min":0,"x_max":0,"o":""},"A":{"ha":633,"x_min":15,"x_max":614,"o":"m 469 0 q 451 15 453 0 l 425 161 q 417 168 425 168 l 214 168 q 206 161 206 168 l 179 15 q 161 0 178 0 l 35 0 q 19 18 15 0 l 225 957 q 243 972 228 972 l 390 972 q 408 957 406 972 l 614 18 l 614 13 q 599 0 614 0 l 469 0 m 231 301 q 238 294 229 294 l 392 294 q 399 301 400 294 l 318 740 q 314 744 317 744 q 310 740 311 744 l 231 301 z "},"Á":{"ha":633,"x_min":15,"x_max":614,"o":"m 469 0 q 451 15 453 0 l 425 161 q 417 168 425 168 l 214 168 q 206 161 206 168 l 179 15 q 161 0 178 0 l 35 0 q 19 18 15 0 l 225 957 q 243 972 228 972 l 390 972 q 408 957 406 972 l 614 18 l 614 13 q 599 0 614 0 l 469 0 m 231 301 q 238 294 229 294 l 392 294 q 399 301 400 294 l 318 740 q 314 744 317 744 q 310 740 311 744 l 231 301 m 253 1061 q 239 1067 243 1061 q 240 1081 235 1072 l 322 1224 q 343 1235 328 1235 l 443 1235 q 457 1228 454 1235 q 454 1214 460 1222 l 351 1071 q 332 1061 344 1061 l 253 1061 z "},"Ă":{"ha":633,"x_min":15,"x_max":614,"o":"m 469 0 q 451 15 453 0 l 425 161 q 417 168 425 168 l 214 168 q 206 161 206 168 l 179 15 q 161 0 178 0 l 35 0 q 19 18 15 0 l 225 957 q 243 972 228 972 l 390 972 q 408 957 406 972 l 614 18 l 614 13 q 599 0 614 0 l 469 0 m 231 301 q 238 294 229 294 l 392 294 q 399 301 400 294 l 318 740 q 314 744 317 744 q 310 740 311 744 l 231 301 m 318 1029 q 208 1068 251 1029 q 160 1171 165 1107 l 160 1174 q 175 1188 160 1188 l 229 1188 q 247 1171 246 1188 q 271 1122 251 1140 q 318 1103 290 1103 q 365 1122 346 1103 q 389 1171 385 1140 q 407 1188 392 1188 l 461 1188 q 476 1171 479 1188 q 427 1068 471 1107 q 318 1029 383 1029 z "},"Ắ":{"ha":633,"x_min":15,"x_max":614,"o":"m 469 0 q 451 15 453 0 l 425 161 q 417 168 425 168 l 214 168 q 206 161 206 168 l 179 15 q 161 0 178 0 l 35 0 q 19 18 15 0 l 225 957 q 243 972 228 972 l 390 972 q 408 957 406 972 l 614 18 l 614 13 q 599 0 614 0 l 469 0 m 231 301 q 238 294 229 294 l 392 294 q 399 301 400 294 l 318 740 q 314 744 317 744 q 310 740 311 744 l 231 301 z "},"Ặ":{"ha":633,"x_min":15,"x_max":614,"o":"m 469 0 q 451 15 453 0 l 425 161 q 417 168 425 168 l 214 168 q 206 161 206 168 l 179 15 q 161 0 178 0 l 35 0 q 19 18 15 0 l 225 957 q 243 972 228 972 l 390 972 q 408 957 406 972 l 614 18 l 614 13 q 599 0 614 0 l 469 0 m 231 301 q 238 294 229 294 l 392 294 q 399 301 400 294 l 318 740 q 314 744 317 744 q 310 740 311 744 l 231 301 m 318 -310 q 250 -283 276 -310 q 224 -215 224 -256 q 250 -149 224 -175 q 318 -122 276 -122 q 385 -149 358 -122 q 411 -215 411 -175 q 385 -283 411 -256 q 318 -310 358 -310 m 318 1054 q 208 1093 251 1054 q 160 1196 165 1132 l 160 1199 q 175 1213 160 1213 l 229 1213 q 247 1196 244 1213 q 271 1147 251 1165 q 318 1128 290 1128 q 364 1147 344 1128 q 389 1196 383 1165 q 407 1213 390 1213 l 461 1213 q 476 1196 478 1213 q 427 1093 471 1132 q 318 1054 383 1054 z "},"Ằ":{"ha":633,"x_min":15,"x_max":614,"o":"m 469 0 q 451 15 453 0 l 425 161 q 417 168 425 168 l 214 168 q 206 161 206 168 l 179 15 q 161 0 178 0 l 35 0 q 19 18 15 0 l 225 957 q 243 972 228 972 l 390 972 q 408 957 406 972 l 614 18 l 614 13 q 599 0 614 0 l 469 0 m 231 301 q 238 294 229 294 l 392 294 q 399 301 400 294 l 318 740 q 314 744 317 744 q 310 740 311 744 l 231 301 z "},"Ẳ":{"ha":633,"x_min":15,"x_max":614,"o":"m 469 0 q 451 15 453 0 l 425 161 q 417 168 425 168 l 214 168 q 206 161 206 168 l 179 15 q 161 0 178 0 l 35 0 q 19 18 15 0 l 225 957 q 243 972 228 972 l 390 972 q 408 957 406 972 l 614 18 l 614 13 q 599 0 614 0 l 469 0 m 231 301 q 238 294 229 294 l 392 294 q 399 301 400 294 l 318 740 q 314 744 317 744 q 310 740 311 744 l 231 301 m 307 1249 q 296 1269 288 1253 q 336 1328 310 1301 q 356 1353 350 1343 q 363 1382 363 1364 q 350 1406 363 1396 q 321 1417 338 1417 q 292 1409 304 1417 q 264 1382 279 1401 q 261 1379 263 1381 q 258 1376 260 1378 q 238 1375 250 1365 l 207 1397 q 200 1410 200 1401 q 204 1421 200 1415 q 257 1474 231 1458 q 325 1489 283 1489 q 410 1460 378 1489 q 442 1382 442 1431 q 430 1333 442 1353 q 394 1290 418 1314 q 363 1251 372 1268 q 342 1242 354 1240 l 307 1249 m 318 1054 q 208 1093 251 1054 q 160 1196 165 1132 l 160 1199 q 175 1213 160 1213 l 229 1213 q 247 1196 244 1213 q 271 1147 251 1165 q 318 1128 290 1128 q 365 1147 346 1128 q 389 1196 385 1165 q 407 1213 390 1213 l 461 1213 q 476 1196 478 1213 q 427 1093 471 1132 q 318 1054 383 1054 z "},"Ẵ":{"ha":633,"x_min":15,"x_max":614,"o":"m 469 0 q 451 15 453 0 l 425 161 q 417 168 425 168 l 214 168 q 206 161 206 168 l 179 15 q 161 0 178 0 l 35 0 q 19 18 15 0 l 225 957 q 243 972 228 972 l 390 972 q 408 957 406 972 l 614 18 l 614 13 q 599 0 614 0 l 469 0 m 231 301 q 238 294 229 294 l 392 294 q 399 301 400 294 l 318 740 q 314 744 317 744 q 310 740 311 744 l 231 301 z "},"Ǎ":{"ha":633,"x_min":15,"x_max":614,"o":"m 469 0 q 451 15 453 0 l 425 161 q 417 168 425 168 l 214 168 q 206 161 206 168 l 179 15 q 161 0 178 0 l 35 0 q 19 18 15 0 l 225 957 q 243 972 228 972 l 390 972 q 408 957 406 972 l 614 18 l 614 13 q 599 0 614 0 l 469 0 m 231 301 q 238 294 229 294 l 392 294 q 399 301 400 294 l 318 740 q 314 744 317 744 q 310 740 311 744 l 231 301 z "},"Â":{"ha":633,"x_min":15,"x_max":614,"o":"m 469 0 q 451 15 453 0 l 425 161 q 417 168 425 168 l 214 168 q 206 161 206 168 l 179 15 q 161 0 178 0 l 35 0 q 19 18 15 0 l 225 957 q 243 972 228 972 l 390 972 q 408 957 406 972 l 614 18 l 614 13 q 599 0 614 0 l 469 0 m 231 301 q 238 294 229 294 l 392 294 q 399 301 400 294 l 318 740 q 314 744 317 744 q 310 740 311 744 l 231 301 m 146 1061 q 133 1066 136 1061 q 135 1081 129 1071 l 222 1224 q 242 1235 228 1235 l 385 1235 q 404 1224 397 1235 l 496 1081 q 499 1071 499 1072 q 485 1061 499 1061 l 388 1061 q 367 1072 374 1061 l 319 1160 q 311 1160 315 1167 l 263 1072 q 242 1061 256 1061 l 146 1061 z "},"Ấ":{"ha":633,"x_min":15,"x_max":714,"o":"m 469 0 q 451 15 453 0 l 425 161 q 417 168 425 168 l 214 168 q 206 161 206 168 l 179 15 q 161 0 178 0 l 35 0 q 19 18 15 0 l 225 957 q 243 972 228 972 l 390 972 q 408 957 406 972 l 614 18 l 614 13 q 599 0 614 0 l 469 0 m 231 301 q 238 294 229 294 l 392 294 q 399 301 400 294 l 318 740 q 314 744 317 744 q 310 740 311 744 l 231 301 z "},"Ậ":{"ha":633,"x_min":15,"x_max":614,"o":"m 469 0 q 451 15 453 0 l 425 161 q 417 168 425 168 l 214 168 q 206 161 206 168 l 179 15 q 161 0 178 0 l 35 0 q 19 18 15 0 l 225 957 q 243 972 228 972 l 390 972 q 408 957 406 972 l 614 18 l 614 13 q 599 0 614 0 l 469 0 m 231 301 q 238 294 229 294 l 392 294 q 399 301 400 294 l 318 740 q 314 744 317 744 q 310 740 311 744 l 231 301 m 318 -310 q 250 -283 276 -310 q 224 -215 224 -256 q 250 -149 224 -175 q 318 -122 276 -122 q 385 -149 358 -122 q 411 -215 411 -175 q 385 -283 411 -256 q 318 -310 358 -310 m 146 1061 q 133 1066 136 1061 q 135 1081 129 1071 l 222 1224 q 242 1235 228 1235 l 385 1235 q 404 1224 397 1235 l 496 1081 q 499 1071 499 1072 q 485 1061 499 1061 l 388 1061 q 367 1072 374 1061 l 319 1160 q 311 1160 315 1167 l 263 1072 q 242 1061 256 1061 l 146 1061 z "},"Ầ":{"ha":633,"x_min":15,"x_max":614,"o":"m 469 0 q 451 15 453 0 l 425 161 q 417 168 425 168 l 214 168 q 206 161 206 168 l 179 15 q 161 0 178 0 l 35 0 q 19 18 15 0 l 225 957 q 243 972 228 972 l 390 972 q 408 957 406 972 l 614 18 l 614 13 q 599 0 614 0 l 469 0 m 231 301 q 238 294 229 294 l 392 294 q 399 301 400 294 l 318 740 q 314 744 317 744 q 310 740 311 744 l 231 301 z "},"Ẩ":{"ha":633,"x_min":15,"x_max":642,"o":"m 469 0 q 451 15 453 0 l 425 161 q 417 168 425 168 l 214 168 q 206 161 206 168 l 179 15 q 161 0 178 0 l 35 0 q 19 18 15 0 l 225 957 q 243 972 228 972 l 390 972 q 408 957 406 972 l 614 18 l 614 13 q 599 0 614 0 l 469 0 m 231 301 q 238 294 229 294 l 392 294 q 399 301 400 294 l 318 740 q 314 744 317 744 q 310 740 311 744 l 231 301 m 499 1200 q 487 1208 490 1203 q 488 1222 483 1214 q 513 1265 499 1249 q 529 1285 526 1281 q 550 1310 543 1299 q 557 1340 557 1322 q 544 1367 557 1356 q 514 1378 532 1378 q 484 1369 497 1378 q 453 1340 471 1361 q 447 1335 447 1335 q 426 1333 439 1324 l 394 1357 q 390 1381 382 1368 q 446 1437 418 1419 q 518 1454 474 1454 q 608 1423 574 1454 q 642 1340 642 1392 q 629 1290 642 1311 q 592 1244 617 1269 q 557 1203 565 1218 q 536 1193 549 1192 l 499 1200 m 146 1061 q 133 1066 136 1061 q 135 1081 129 1071 l 222 1224 q 242 1235 228 1235 l 385 1235 q 404 1224 397 1235 l 496 1081 q 499 1071 499 1072 q 485 1061 499 1061 l 388 1061 q 367 1072 374 1061 l 319 1160 q 311 1160 315 1167 l 263 1072 q 242 1061 256 1061 l 146 1061 z "},"Ẫ":{"ha":633,"x_min":15,"x_max":614,"o":"m 469 0 q 451 15 453 0 l 425 161 q 417 168 425 168 l 214 168 q 206 161 206 168 l 179 15 q 161 0 178 0 l 35 0 q 19 18 15 0 l 225 957 q 243 972 228 972 l 390 972 q 408 957 406 972 l 614 18 l 614 13 q 599 0 614 0 l 469 0 m 231 301 q 238 294 229 294 l 392 294 q 399 301 400 294 l 318 740 q 314 744 317 744 q 310 740 311 744 l 231 301 z "},"Ä":{"ha":633,"x_min":15,"x_max":614,"o":"m 469 0 q 451 15 453 0 l 425 161 q 417 168 425 168 l 214 168 q 206 161 206 168 l 179 15 q 161 0 178 0 l 35 0 q 19 18 15 0 l 225 957 q 243 972 228 972 l 390 972 q 408 957 406 972 l 614 18 l 614 13 q 599 0 614 0 l 469 0 m 231 301 q 238 294 229 294 l 392 294 q 399 301 400 294 l 318 740 q 314 744 317 744 q 310 740 311 744 l 231 301 z "},"Ạ":{"ha":633,"x_min":15,"x_max":614,"o":"m 469 0 q 451 15 453 0 l 425 161 q 417 168 425 168 l 214 168 q 206 161 206 168 l 179 15 q 161 0 178 0 l 35 0 q 19 18 15 0 l 225 957 q 243 972 228 972 l 390 972 q 408 957 406 972 l 614 18 l 614 13 q 599 0 614 0 l 469 0 m 231 301 q 238 294 229 294 l 392 294 q 399 301 400 294 l 318 740 q 314 744 317 744 q 310 740 311 744 l 231 301 m 318 -310 q 250 -283 276 -310 q 224 -215 224 -256 q 250 -149 224 -175 q 318 -122 276 -122 q 385 -149 358 -122 q 411 -215 411 -175 q 385 -283 411 -256 q 318 -310 358 -310 z "},"À":{"ha":633,"x_min":15,"x_max":614,"o":"m 469 0 q 451 15 453 0 l 425 161 q 417 168 425 168 l 214 168 q 206 161 206 168 l 179 15 q 161 0 178 0 l 35 0 q 19 18 15 0 l 225 957 q 243 972 228 972 l 390 972 q 408 957 406 972 l 614 18 l 614 13 q 599 0 614 0 l 469 0 m 231 301 q 238 294 229 294 l 392 294 q 399 301 400 294 l 318 740 q 314 744 317 744 q 310 740 311 744 l 231 301 m 368 1072 q 353 1061 368 1061 l 272 1061 q 253 1072 260 1061 l 151 1214 q 147 1224 147 1221 q 163 1235 147 1235 l 263 1235 q 283 1224 278 1235 l 365 1081 l 368 1072 z "},"Ả":{"ha":633,"x_min":15,"x_max":614,"o":"m 469 0 q 451 15 453 0 l 425 161 q 417 168 425 168 l 214 168 q 206 161 206 168 l 179 15 q 161 0 178 0 l 35 0 q 19 18 15 0 l 225 957 q 243 972 228 972 l 390 972 q 408 957 406 972 l 614 18 l 614 13 q 599 0 614 0 l 469 0 m 231 301 q 238 294 229 294 l 392 294 q 399 301 400 294 l 318 740 q 314 744 317 744 q 310 740 311 744 l 231 301 m 303 1032 q 292 1053 283 1036 q 336 1119 306 1086 q 358 1147 351 1135 q 365 1179 365 1160 q 352 1206 365 1194 q 321 1218 339 1218 q 286 1209 300 1218 q 253 1175 272 1200 q 239 1167 247 1167 q 229 1171 233 1167 l 193 1197 q 189 1221 181 1208 q 248 1281 218 1263 q 324 1299 278 1299 q 419 1266 383 1299 q 454 1179 454 1233 q 441 1127 454 1149 q 401 1078 428 1106 q 365 1035 374 1050 q 343 1024 358 1021 l 303 1032 z "},"Ā":{"ha":633,"x_min":15,"x_max":614,"o":"m 469 0 q 451 15 453 0 l 425 161 q 417 168 425 168 l 214 168 q 206 161 206 168 l 179 15 q 161 0 178 0 l 35 0 q 19 18 15 0 l 225 957 q 243 972 228 972 l 390 972 q 408 957 406 972 l 614 18 l 614 13 q 599 0 614 0 l 469 0 m 231 301 q 238 294 229 294 l 392 294 q 399 301 400 294 l 318 740 q 314 744 317 744 q 310 740 311 744 l 231 301 m 181 1076 q 169 1081 174 1076 q 164 1093 164 1086 l 164 1171 q 169 1183 164 1178 q 181 1188 174 1188 l 444 1188 q 456 1183 451 1188 q 461 1171 461 1178 l 461 1093 q 456 1081 461 1086 q 444 1076 451 1076 l 181 1076 z "},"Ą":{"ha":633,"x_min":15,"x_max":624,"o":"m 469 0 q 451 15 453 0 l 425 161 q 417 168 425 168 l 214 168 q 206 161 206 168 l 179 15 q 161 0 178 0 l 35 0 q 19 18 15 0 l 225 957 q 243 972 228 972 l 390 972 q 408 957 406 972 l 614 18 l 614 13 q 599 0 614 0 l 469 0 m 231 301 q 238 294 229 294 l 392 294 q 399 301 400 294 l 318 740 q 314 744 317 744 q 310 740 311 744 l 231 301 m 624 -240 q 613 -254 624 -250 q 556 -262 582 -262 q 470 -235 504 -262 q 436 -143 436 -208 q 500 -8 436 -71 q 521 0 508 0 l 589 0 q 599 -3 594 0 q 603 -8 603 -6 q 596 -21 603 -14 q 542 -122 542 -75 l 543 -133 q 563 -165 549 -156 q 597 -172 578 -175 l 601 -172 q 617 -185 615 -172 l 624 -235 l 624 -240 z "},"Å":{"ha":633,"x_min":15,"x_max":614,"o":"m 469 0 q 451 15 453 0 l 425 161 q 417 168 425 168 l 214 168 q 206 161 206 168 l 179 15 q 161 0 178 0 l 35 0 q 19 18 15 0 l 225 957 q 243 972 228 972 l 390 972 q 408 957 406 972 l 614 18 l 614 13 q 599 0 614 0 l 469 0 m 231 301 q 238 294 229 294 l 392 294 q 399 301 400 294 l 318 740 q 314 744 317 744 q 310 740 311 744 l 231 301 m 318 1051 q 201 1099 249 1051 q 154 1217 154 1147 q 201 1333 154 1286 q 318 1381 249 1381 q 433 1333 386 1381 q 481 1217 481 1286 q 433 1099 481 1147 q 318 1051 386 1051 m 318 1139 q 371 1162 349 1139 q 393 1217 393 1185 q 371 1272 393 1250 q 318 1294 349 1294 q 264 1272 286 1294 q 242 1217 242 1250 q 264 1162 242 1185 q 318 1139 286 1139 z "},"Ã":{"ha":633,"x_min":15,"x_max":614,"o":"m 469 0 q 451 15 453 0 l 425 161 q 417 168 425 168 l 214 168 q 206 161 206 168 l 179 15 q 161 0 178 0 l 35 0 q 19 18 15 0 l 225 957 q 243 972 228 972 l 390 972 q 408 957 406 972 l 614 18 l 614 13 q 599 0 614 0 l 469 0 m 231 301 q 238 294 229 294 l 392 294 q 399 301 400 294 l 318 740 q 314 744 317 744 q 310 740 311 744 l 231 301 m 407 1088 q 372 1094 389 1088 q 332 1114 356 1100 q 311 1126 322 1119 q 292 1137 300 1133 q 272 1140 283 1140 q 219 1108 240 1140 q 196 1103 210 1094 l 151 1135 q 144 1157 139 1143 q 194 1223 164 1201 q 260 1244 224 1244 q 301 1236 282 1244 q 346 1213 321 1228 q 363 1202 351 1210 q 384 1190 374 1194 q 406 1186 394 1186 q 458 1217 439 1186 q 481 1224 467 1233 l 525 1193 q 532 1179 532 1189 q 526 1161 532 1171 q 470 1105 503 1122 q 407 1088 438 1088 z "},"Æ":{"ha":1021,"x_min":21,"x_max":976,"o":"m 976 850 q 972 838 976 843 q 960 833 967 833 l 661 833 q 654 826 654 833 l 654 564 q 661 557 654 557 l 838 557 q 849 552 844 557 q 854 540 854 547 l 854 433 q 849 422 854 426 q 838 417 844 417 l 661 417 q 654 410 654 417 l 654 146 q 661 139 654 139 l 960 139 q 972 134 967 139 q 976 122 976 129 l 976 17 q 972 5 976 10 q 960 0 967 0 l 508 0 q 497 5 501 0 q 492 17 492 10 l 492 161 q 485 168 492 168 l 258 168 q 250 163 253 168 l 190 13 q 171 0 186 0 l 36 0 q 24 6 26 0 q 24 19 21 11 l 421 960 q 440 972 426 972 l 960 972 q 972 967 967 972 q 976 956 976 963 l 976 850 m 306 303 q 306 297 304 300 q 311 294 308 294 l 485 294 q 492 301 492 294 l 493 744 q 490 750 493 750 q 485 746 488 750 l 306 303 z "},"B":{"ha":642,"x_min":75,"x_max":604,"o":"m 604 267 q 530 69 604 139 q 336 0 456 0 l 92 0 q 80 5 85 0 q 75 17 75 10 l 75 956 q 80 967 75 963 q 92 972 85 972 l 311 972 q 518 906 443 972 q 593 711 593 839 q 492 507 593 568 q 489 499 485 503 q 574 406 543 464 q 604 267 604 347 m 243 833 q 236 826 236 833 l 236 568 q 243 561 236 561 l 314 561 q 403 596 371 561 q 435 694 435 631 q 403 797 435 761 q 314 833 371 833 l 243 833 m 324 140 q 411 179 379 140 q 443 289 443 218 q 411 402 443 361 q 324 443 379 443 l 243 443 q 236 436 236 443 l 236 147 q 243 140 236 140 l 324 140 z "},"C":{"ha":635,"x_min":58,"x_max":583,"o":"m 319 -11 q 130 60 201 -11 q 58 250 58 132 l 58 724 q 130 913 58 843 q 319 983 201 983 q 511 913 439 983 q 583 724 583 843 l 583 707 q 578 694 583 700 q 567 689 574 689 l 438 683 q 421 700 421 683 l 421 735 q 393 814 421 783 q 319 844 365 844 q 247 814 275 844 q 219 735 219 783 l 219 238 q 247 158 219 189 q 319 128 275 128 q 393 158 365 128 q 421 238 421 189 l 421 272 q 426 284 421 279 q 438 289 431 289 l 567 283 q 578 278 574 283 q 583 267 583 274 l 583 250 q 511 60 583 132 q 319 -11 439 -11 z "},"Ć":{"ha":635,"x_min":58,"x_max":583,"o":"m 319 -11 q 130 60 201 -11 q 58 250 58 132 l 58 724 q 130 913 58 843 q 319 983 201 983 q 511 913 439 983 q 583 724 583 843 l 583 707 q 578 694 583 700 q 567 689 574 689 l 438 683 q 421 700 421 683 l 421 735 q 393 814 421 783 q 319 844 365 844 q 247 814 275 844 q 219 735 219 783 l 219 238 q 247 158 219 189 q 319 128 275 128 q 393 158 365 128 q 421 238 421 189 l 421 272 q 426 284 421 279 q 438 289 431 289 l 567 283 q 578 278 574 283 q 583 267 583 274 l 583 250 q 511 60 583 132 q 319 -11 439 -11 m 256 1061 q 242 1067 246 1061 q 243 1081 238 1072 l 325 1224 q 346 1235 331 1235 l 446 1235 q 460 1228 457 1235 q 457 1214 463 1222 l 354 1071 q 335 1061 347 1061 l 256 1061 z "},"Č":{"ha":635,"x_min":58,"x_max":583,"o":"m 319 -11 q 130 60 201 -11 q 58 250 58 132 l 58 724 q 130 913 58 843 q 319 983 201 983 q 511 913 439 983 q 583 724 583 843 l 583 707 q 578 694 583 700 q 567 689 574 689 l 438 683 q 421 700 421 683 l 421 735 q 393 814 421 783 q 319 844 365 844 q 247 814 275 844 q 219 735 219 783 l 219 238 q 247 158 219 189 q 319 128 275 128 q 393 158 365 128 q 421 238 421 189 l 421 272 q 426 284 421 279 q 438 289 431 289 l 567 283 q 578 278 574 283 q 583 267 583 274 l 583 250 q 511 60 583 132 q 319 -11 439 -11 m 144 1215 q 142 1225 142 1224 q 156 1235 142 1235 l 251 1235 q 272 1224 265 1235 l 321 1138 q 329 1138 325 1132 l 376 1224 q 397 1235 383 1235 l 494 1235 q 508 1230 504 1235 q 506 1215 511 1225 l 414 1072 q 394 1061 407 1061 l 251 1061 q 232 1072 238 1061 l 144 1215 z "},"Ç":{"ha":635,"x_min":58,"x_max":583,"o":"m 583 707 q 578 694 583 700 q 567 689 574 689 l 438 683 q 421 700 421 683 l 421 735 q 393 814 421 783 q 319 844 365 844 q 247 814 275 844 q 219 735 219 783 l 219 238 q 247 158 219 189 q 319 128 275 128 q 393 158 365 128 q 421 238 421 189 l 421 272 q 426 284 421 279 q 438 289 431 289 l 567 283 q 578 278 574 283 q 583 267 583 274 l 583 250 q 529 81 583 149 q 382 -6 475 13 q 379 -14 374 -8 q 432 -137 432 -75 q 398 -230 432 -203 q 314 -257 364 -257 q 256 -249 286 -257 q 244 -229 243 -244 l 251 -181 q 271 -167 253 -164 q 305 -160 290 -169 q 325 -128 319 -151 q 326 -115 326 -124 q 267 -10 326 -67 l 260 -6 q 113 80 167 13 q 58 250 58 147 l 58 724 q 130 913 58 843 q 319 983 201 983 q 511 913 439 983 q 583 724 583 843 l 583 707 z "},"Ĉ":{"ha":635,"x_min":58,"x_max":583,"o":"m 319 -11 q 130 60 201 -11 q 58 250 58 132 l 58 724 q 130 913 58 843 q 319 983 201 983 q 511 913 439 983 q 583 724 583 843 l 583 707 q 578 694 583 700 q 567 689 574 689 l 438 683 q 421 700 421 683 l 421 735 q 393 814 421 783 q 319 844 365 844 q 247 814 275 844 q 219 735 219 783 l 219 238 q 247 158 219 189 q 319 128 275 128 q 393 158 365 128 q 421 238 421 189 l 421 272 q 426 284 421 279 q 438 289 431 289 l 567 283 q 578 278 574 283 q 583 267 583 274 l 583 250 q 511 60 583 132 q 319 -11 439 -11 m 149 1061 q 135 1066 139 1061 q 138 1081 132 1071 l 225 1224 q 244 1235 231 1235 l 388 1235 q 407 1224 400 1235 l 499 1081 q 501 1071 501 1072 q 488 1061 501 1061 l 390 1061 q 369 1072 376 1061 l 322 1160 q 314 1160 318 1167 l 265 1072 q 244 1061 258 1061 l 149 1061 z "},"Ċ":{"ha":635,"x_min":58,"x_max":583,"o":"m 319 -11 q 130 60 201 -11 q 58 250 58 132 l 58 724 q 130 913 58 843 q 319 983 201 983 q 511 913 439 983 q 583 724 583 843 l 583 707 q 578 694 583 700 q 567 689 574 689 l 438 683 q 421 700 421 683 l 421 735 q 393 814 421 783 q 319 844 365 844 q 247 814 275 844 q 219 735 219 783 l 219 238 q 247 158 219 189 q 319 128 275 128 q 393 158 365 128 q 421 238 421 189 l 421 272 q 426 284 421 279 q 438 289 431 289 l 567 283 q 578 278 574 283 q 583 267 583 274 l 583 250 q 511 60 583 132 q 319 -11 439 -11 m 321 1069 q 250 1097 278 1069 q 222 1168 222 1125 q 250 1239 222 1211 q 321 1267 278 1267 q 391 1239 364 1267 q 418 1168 418 1211 q 390 1097 418 1125 q 321 1069 363 1069 z "},"D":{"ha":656,"x_min":75,"x_max":592,"o":"m 92 0 q 80 5 85 0 q 75 17 75 10 l 75 956 q 80 967 75 963 q 92 972 85 972 l 329 972 q 520 900 449 972 q 592 707 592 828 l 592 265 q 520 72 592 144 q 329 0 449 0 l 92 0 m 236 146 q 243 139 236 139 l 326 140 q 401 177 372 140 q 431 275 429 214 l 431 697 q 402 797 431 760 q 325 833 374 833 l 243 833 q 236 826 236 833 l 236 146 z "},"Ð":{"ha":704,"x_min":75,"x_max":640,"o":"m 378 972 q 569 900 497 972 q 640 707 640 828 l 640 265 q 569 72 640 144 q 378 0 497 0 l 140 0 q 128 5 133 0 q 124 17 124 10 l 124 454 q 117 461 124 461 l 92 461 q 80 466 85 461 q 75 478 75 471 l 75 539 q 80 551 75 546 q 92 556 85 556 l 117 556 q 124 563 124 556 l 124 956 q 128 967 124 963 q 140 972 133 972 l 378 972 m 479 697 q 451 797 479 760 q 374 833 422 833 l 292 833 q 285 826 285 833 l 285 563 q 292 556 285 556 l 361 556 q 373 551 368 556 q 378 539 378 546 l 378 478 q 373 466 378 471 q 361 461 368 461 l 292 461 q 285 454 285 461 l 285 146 q 292 139 285 139 l 375 140 q 449 177 421 140 q 479 275 478 214 l 479 697 z "},"Ď":{"ha":656,"x_min":75,"x_max":592,"o":"m 92 0 q 80 5 85 0 q 75 17 75 10 l 75 956 q 80 967 75 963 q 92 972 85 972 l 329 972 q 520 900 449 972 q 592 707 592 828 l 592 265 q 520 72 592 144 q 329 0 449 0 l 92 0 m 236 146 q 243 139 236 139 l 326 140 q 401 177 372 140 q 431 275 429 214 l 431 697 q 402 797 431 760 q 325 833 374 833 l 243 833 q 236 826 236 833 l 236 146 z "},"Đ":{"ha":704,"x_min":75,"x_max":640,"o":"m 378 972 q 569 900 497 972 q 640 707 640 828 l 640 265 q 569 72 640 144 q 378 0 497 0 l 140 0 q 128 5 133 0 q 124 17 124 10 l 124 454 q 117 461 124 461 l 92 461 q 80 466 85 461 q 75 478 75 471 l 75 539 q 80 551 75 546 q 92 556 85 556 l 117 556 q 124 563 124 556 l 124 956 q 128 967 124 963 q 140 972 133 972 l 378 972 m 479 697 q 451 797 479 760 q 374 833 422 833 l 292 833 q 285 826 285 833 l 285 563 q 292 556 285 556 l 361 556 q 373 551 368 556 q 378 539 378 546 l 378 478 q 373 466 378 471 q 361 461 368 461 l 292 461 q 285 454 285 461 l 285 146 q 292 139 285 139 l 375 140 q 449 177 421 140 q 479 275 478 214 l 479 697 z "},"E":{"ha":604,"x_min":75,"x_max":560,"o":"m 560 850 q 555 838 560 843 q 543 833 550 833 l 243 833 q 236 826 236 833 l 236 564 q 243 557 236 557 l 421 557 q 433 552 428 557 q 438 540 438 547 l 438 433 q 433 422 438 426 q 421 417 428 417 l 243 417 q 236 410 236 417 l 236 146 q 243 139 236 139 l 543 139 q 555 134 550 139 q 560 122 560 129 l 560 17 q 555 5 560 10 q 543 0 550 0 l 92 0 q 80 5 85 0 q 75 17 75 10 l 75 956 q 80 967 75 963 q 92 972 85 972 l 543 972 q 555 967 550 972 q 560 956 560 963 l 560 850 z "},"É":{"ha":604,"x_min":75,"x_max":560,"o":"m 560 850 q 555 838 560 843 q 543 833 550 833 l 243 833 q 236 826 236 833 l 236 564 q 243 557 236 557 l 421 557 q 433 552 428 557 q 438 540 438 547 l 438 433 q 433 422 438 426 q 421 417 428 417 l 243 417 q 236 410 236 417 l 236 146 q 243 139 236 139 l 543 139 q 555 134 550 139 q 560 122 560 129 l 560 17 q 555 5 560 10 q 543 0 550 0 l 92 0 q 80 5 85 0 q 75 17 75 10 l 75 956 q 80 967 75 963 q 92 972 85 972 l 543 972 q 555 967 550 972 q 560 956 560 963 l 560 850 m 254 1061 q 240 1067 244 1061 q 242 1081 236 1072 l 324 1224 q 344 1235 329 1235 l 444 1235 q 458 1228 456 1235 q 456 1214 461 1222 l 353 1071 q 333 1061 346 1061 l 254 1061 z "},"Ě":{"ha":604,"x_min":75,"x_max":560,"o":"m 560 850 q 555 838 560 843 q 543 833 550 833 l 243 833 q 236 826 236 833 l 236 564 q 243 557 236 557 l 421 557 q 433 552 428 557 q 438 540 438 547 l 438 433 q 433 422 438 426 q 421 417 428 417 l 243 417 q 236 410 236 417 l 236 146 q 243 139 236 139 l 543 139 q 555 134 550 139 q 560 122 560 129 l 560 17 q 555 5 560 10 q 543 0 550 0 l 92 0 q 80 5 85 0 q 75 17 75 10 l 75 956 q 80 967 75 963 q 92 972 85 972 l 543 972 q 555 967 550 972 q 560 956 560 963 l 560 850 m 143 1215 q 140 1225 140 1224 q 154 1235 140 1235 l 250 1235 q 271 1224 264 1235 l 319 1138 q 328 1138 324 1132 l 375 1224 q 396 1235 382 1235 l 493 1235 q 506 1230 503 1235 q 504 1215 510 1225 l 413 1072 q 393 1061 406 1061 l 250 1061 q 231 1072 236 1061 l 143 1215 z "},"Ȩ":{"ha":604,"x_min":75,"x_max":560,"o":"m 560 850 q 555 838 560 843 q 543 833 550 833 l 243 833 q 236 826 236 833 l 236 564 q 243 557 236 557 l 421 557 q 433 552 428 557 q 438 540 438 547 l 438 433 q 433 422 438 426 q 421 417 428 417 l 243 417 q 236 410 236 417 l 236 146 q 243 139 236 139 l 543 139 q 555 134 550 139 q 560 122 560 129 l 560 17 q 555 5 560 10 q 543 0 550 0 l 378 0 q 372 -3 374 0 q 374 -8 371 -6 q 422 -126 422 -65 q 388 -219 422 -192 q 304 -246 354 -246 q 246 -237 276 -246 q 235 -218 233 -233 l 242 -169 q 261 -156 243 -153 q 295 -149 281 -158 q 315 -117 310 -140 q 263 -4 324 -67 q 253 0 258 0 l 92 0 q 80 5 85 0 q 75 17 75 10 l 75 956 q 80 967 75 963 q 92 972 85 972 l 543 972 q 555 967 550 972 q 560 956 560 963 l 560 850 z "},"Ê":{"ha":604,"x_min":75,"x_max":560,"o":"m 560 850 q 555 838 560 843 q 543 833 550 833 l 243 833 q 236 826 236 833 l 236 564 q 243 557 236 557 l 421 557 q 433 552 428 557 q 438 540 438 547 l 438 433 q 433 422 438 426 q 421 417 428 417 l 243 417 q 236 410 236 417 l 236 146 q 243 139 236 139 l 543 139 q 555 134 550 139 q 560 122 560 129 l 560 17 q 555 5 560 10 q 543 0 550 0 l 92 0 q 80 5 85 0 q 75 17 75 10 l 75 956 q 80 967 75 963 q 92 972 85 972 l 543 972 q 555 967 550 972 q 560 956 560 963 l 560 850 m 147 1061 q 134 1066 138 1061 q 136 1081 131 1071 l 224 1224 q 243 1235 229 1235 l 386 1235 q 406 1224 399 1235 l 497 1081 q 500 1071 500 1072 q 486 1061 500 1061 l 389 1061 q 368 1072 375 1061 l 321 1160 q 313 1160 317 1167 l 264 1072 q 243 1061 257 1061 l 147 1061 z "},"Ế":{"ha":604,"x_min":75,"x_max":715,"o":"m 560 850 q 555 838 560 843 q 543 833 550 833 l 243 833 q 236 826 236 833 l 236 564 q 243 557 236 557 l 421 557 q 433 552 428 557 q 438 540 438 547 l 438 433 q 433 422 438 426 q 421 417 428 417 l 243 417 q 236 410 236 417 l 236 146 q 243 139 236 139 l 543 139 q 555 134 550 139 q 560 122 560 129 l 560 17 q 555 5 560 10 q 543 0 550 0 l 92 0 q 80 5 85 0 q 75 17 75 10 l 75 956 q 80 967 75 963 q 92 972 85 972 l 543 972 q 555 967 550 972 q 560 956 560 963 l 560 850 z "},"Ệ":{"ha":604,"x_min":75,"x_max":560,"o":"m 560 850 q 555 838 560 843 q 543 833 550 833 l 243 833 q 236 826 236 833 l 236 564 q 243 557 236 557 l 421 557 q 433 552 428 557 q 438 540 438 547 l 438 433 q 433 422 438 426 q 421 417 428 417 l 243 417 q 236 410 236 417 l 236 146 q 243 139 236 139 l 543 139 q 555 134 550 139 q 560 122 560 129 l 560 17 q 555 5 560 10 q 543 0 550 0 l 92 0 q 80 5 85 0 q 75 17 75 10 l 75 956 q 80 967 75 963 q 92 972 85 972 l 543 972 q 555 967 550 972 q 560 956 560 963 l 560 850 m 311 -310 q 243 -283 269 -310 q 217 -215 217 -256 q 243 -149 217 -175 q 311 -122 269 -122 q 378 -149 351 -122 q 404 -215 404 -175 q 378 -283 404 -256 q 311 -310 351 -310 m 147 1061 q 134 1066 138 1061 q 136 1081 131 1071 l 224 1224 q 243 1235 229 1235 l 386 1235 q 406 1224 399 1235 l 497 1081 q 500 1071 500 1072 q 486 1061 500 1061 l 389 1061 q 368 1072 375 1061 l 321 1160 q 313 1160 317 1167 l 264 1072 q 243 1061 257 1061 l 147 1061 z "},"Ề":{"ha":604,"x_min":75,"x_max":588,"o":"m 560 850 q 555 838 560 843 q 543 833 550 833 l 243 833 q 236 826 236 833 l 236 564 q 243 557 236 557 l 421 557 q 433 552 428 557 q 438 540 438 547 l 438 433 q 433 422 438 426 q 421 417 428 417 l 243 417 q 236 410 236 417 l 236 146 q 243 139 236 139 l 543 139 q 555 134 550 139 q 560 122 560 129 l 560 17 q 555 5 560 10 q 543 0 550 0 l 92 0 q 80 5 85 0 q 75 17 75 10 l 75 956 q 80 967 75 963 q 92 972 85 972 l 543 972 q 555 967 550 972 q 560 956 560 963 l 560 850 z "},"Ể":{"ha":604,"x_min":75,"x_max":643,"o":"m 560 850 q 555 838 560 843 q 543 833 550 833 l 243 833 q 236 826 236 833 l 236 564 q 243 557 236 557 l 421 557 q 433 552 428 557 q 438 540 438 547 l 438 433 q 433 422 438 426 q 421 417 428 417 l 243 417 q 236 410 236 417 l 236 146 q 243 139 236 139 l 543 139 q 555 134 550 139 q 560 122 560 129 l 560 17 q 555 5 560 10 q 543 0 550 0 l 92 0 q 80 5 85 0 q 75 17 75 10 l 75 956 q 80 967 75 963 q 92 972 85 972 l 543 972 q 555 967 550 972 q 560 956 560 963 l 560 850 m 500 1200 q 488 1208 492 1203 q 489 1222 485 1214 q 514 1265 500 1249 q 531 1285 528 1281 q 551 1310 544 1299 q 558 1340 558 1322 q 546 1367 558 1356 q 515 1378 533 1378 q 485 1369 499 1378 q 454 1340 472 1361 q 449 1335 449 1335 q 428 1333 440 1324 l 396 1357 q 392 1381 383 1368 q 447 1437 419 1419 q 519 1454 475 1454 q 609 1423 575 1454 q 643 1340 643 1392 q 631 1290 643 1311 q 593 1244 618 1269 q 558 1203 567 1218 q 538 1193 550 1192 l 500 1200 m 147 1061 q 134 1066 138 1061 q 136 1081 131 1071 l 224 1224 q 243 1235 229 1235 l 386 1235 q 406 1224 399 1235 l 497 1081 q 500 1071 500 1072 q 486 1061 500 1061 l 389 1061 q 368 1072 375 1061 l 321 1160 q 313 1160 317 1167 l 264 1072 q 243 1061 257 1061 l 147 1061 z "},"Ễ":{"ha":604,"x_min":75,"x_max":560,"o":"m 560 850 q 555 838 560 843 q 543 833 550 833 l 243 833 q 236 826 236 833 l 236 564 q 243 557 236 557 l 421 557 q 433 552 428 557 q 438 540 438 547 l 438 433 q 433 422 438 426 q 421 417 428 417 l 243 417 q 236 410 236 417 l 236 146 q 243 139 236 139 l 543 139 q 555 134 550 139 q 560 122 560 129 l 560 17 q 555 5 560 10 q 543 0 550 0 l 92 0 q 80 5 85 0 q 75 17 75 10 l 75 956 q 80 967 75 963 q 92 972 85 972 l 543 972 q 555 967 550 972 q 560 956 560 963 l 560 850 z "},"Ë":{"ha":604,"x_min":75,"x_max":560,"o":"m 560 850 q 555 838 560 843 q 543 833 550 833 l 243 833 q 236 826 236 833 l 236 564 q 243 557 236 557 l 421 557 q 433 552 428 557 q 438 540 438 547 l 438 433 q 433 422 438 426 q 421 417 428 417 l 243 417 q 236 410 236 417 l 236 146 q 243 139 236 139 l 543 139 q 555 134 550 139 q 560 122 560 129 l 560 17 q 555 5 560 10 q 543 0 550 0 l 92 0 q 80 5 85 0 q 75 17 75 10 l 75 956 q 80 967 75 963 q 92 972 85 972 l 543 972 q 555 967 550 972 q 560 956 560 963 l 560 850 z "},"Ė":{"ha":604,"x_min":75,"x_max":560,"o":"m 560 850 q 555 838 560 843 q 543 833 550 833 l 243 833 q 236 826 236 833 l 236 564 q 243 557 236 557 l 421 557 q 433 552 428 557 q 438 540 438 547 l 438 433 q 433 422 438 426 q 421 417 428 417 l 243 417 q 236 410 236 417 l 236 146 q 243 139 236 139 l 543 139 q 555 134 550 139 q 560 122 560 129 l 560 17 q 555 5 560 10 q 543 0 550 0 l 92 0 q 80 5 85 0 q 75 17 75 10 l 75 956 q 80 967 75 963 q 92 972 85 972 l 543 972 q 555 967 550 972 q 560 956 560 963 l 560 850 m 319 1069 q 249 1097 276 1069 q 221 1168 221 1125 q 249 1239 221 1211 q 319 1267 276 1267 q 390 1239 363 1267 q 417 1168 417 1211 q 389 1097 417 1125 q 319 1069 361 1069 z "},"Ẹ":{"ha":604,"x_min":75,"x_max":560,"o":"m 560 850 q 555 838 560 843 q 543 833 550 833 l 243 833 q 236 826 236 833 l 236 564 q 243 557 236 557 l 421 557 q 433 552 428 557 q 438 540 438 547 l 438 433 q 433 422 438 426 q 421 417 428 417 l 243 417 q 236 410 236 417 l 236 146 q 243 139 236 139 l 543 139 q 555 134 550 139 q 560 122 560 129 l 560 17 q 555 5 560 10 q 543 0 550 0 l 92 0 q 80 5 85 0 q 75 17 75 10 l 75 956 q 80 967 75 963 q 92 972 85 972 l 543 972 q 555 967 550 972 q 560 956 560 963 l 560 850 m 311 -310 q 243 -283 269 -310 q 217 -215 217 -256 q 243 -149 217 -175 q 311 -122 269 -122 q 378 -149 351 -122 q 404 -215 404 -175 q 378 -283 404 -256 q 311 -310 351 -310 z "},"È":{"ha":604,"x_min":75,"x_max":560,"o":"m 560 850 q 555 838 560 843 q 543 833 550 833 l 243 833 q 236 826 236 833 l 236 564 q 243 557 236 557 l 421 557 q 433 552 428 557 q 438 540 438 547 l 438 433 q 433 422 438 426 q 421 417 428 417 l 243 417 q 236 410 236 417 l 236 146 q 243 139 236 139 l 543 139 q 555 134 550 139 q 560 122 560 129 l 560 17 q 555 5 560 10 q 543 0 550 0 l 92 0 q 80 5 85 0 q 75 17 75 10 l 75 956 q 80 967 75 963 q 92 972 85 972 l 543 972 q 555 967 550 972 q 560 956 560 963 l 560 850 m 369 1072 q 354 1061 369 1061 l 274 1061 q 254 1072 261 1061 l 153 1214 q 149 1224 149 1221 q 164 1235 149 1235 l 264 1235 q 285 1224 279 1235 l 367 1081 l 369 1072 z "},"Ẻ":{"ha":604,"x_min":75,"x_max":560,"o":"m 560 850 q 555 838 560 843 q 543 833 550 833 l 243 833 q 236 826 236 833 l 236 564 q 243 557 236 557 l 421 557 q 433 552 428 557 q 438 540 438 547 l 438 433 q 433 422 438 426 q 421 417 428 417 l 243 417 q 236 410 236 417 l 236 146 q 243 139 236 139 l 543 139 q 555 134 550 139 q 560 122 560 129 l 560 17 q 555 5 560 10 q 543 0 550 0 l 92 0 q 80 5 85 0 q 75 17 75 10 l 75 956 q 80 967 75 963 q 92 972 85 972 l 543 972 q 555 967 550 972 q 560 956 560 963 l 560 850 m 304 1032 q 293 1053 285 1036 q 338 1119 307 1086 q 360 1147 353 1135 q 367 1179 367 1160 q 353 1206 367 1194 q 322 1218 340 1218 q 288 1209 301 1218 q 254 1175 274 1200 q 240 1167 249 1167 q 231 1171 235 1167 l 194 1197 q 190 1221 182 1208 q 249 1281 219 1263 q 325 1299 279 1299 q 420 1266 385 1299 q 456 1179 456 1233 q 442 1127 456 1149 q 403 1078 429 1106 q 367 1035 375 1050 q 344 1024 360 1021 l 304 1032 z "},"Ē":{"ha":604,"x_min":75,"x_max":560,"o":"m 560 850 q 555 838 560 843 q 543 833 550 833 l 243 833 q 236 826 236 833 l 236 564 q 243 557 236 557 l 421 557 q 433 552 428 557 q 438 540 438 547 l 438 433 q 433 422 438 426 q 421 417 428 417 l 243 417 q 236 410 236 417 l 236 146 q 243 139 236 139 l 543 139 q 555 134 550 139 q 560 122 560 129 l 560 17 q 555 5 560 10 q 543 0 550 0 l 92 0 q 80 5 85 0 q 75 17 75 10 l 75 956 q 80 967 75 963 q 92 972 85 972 l 543 972 q 555 967 550 972 q 560 956 560 963 l 560 850 m 182 1076 q 170 1081 175 1076 q 165 1093 165 1086 l 165 1171 q 170 1183 165 1178 q 182 1188 175 1188 l 446 1188 q 458 1183 453 1188 q 463 1171 463 1178 l 463 1093 q 458 1081 463 1086 q 446 1076 453 1076 l 182 1076 z "},"Ę":{"ha":604,"x_min":75,"x_max":560,"o":"m 560 850 q 555 838 560 843 q 543 833 550 833 l 243 833 q 236 826 236 833 l 236 564 q 243 557 236 557 l 421 557 q 433 552 428 557 q 438 540 438 547 l 438 433 q 433 422 438 426 q 421 417 428 417 l 243 417 q 236 410 236 417 l 236 146 q 243 139 236 139 l 543 139 q 555 134 550 139 q 560 122 560 129 l 560 17 q 555 5 560 10 q 543 0 550 0 l 372 0 q 363 -3 368 0 q 303 -110 303 -62 q 319 -153 303 -140 q 358 -161 335 -165 l 363 -161 q 378 -175 376 -161 l 385 -224 l 385 -228 q 372 -243 385 -239 q 315 -251 342 -251 q 232 -224 267 -251 q 197 -132 197 -197 q 250 -8 197 -67 q 252 -3 253 -6 q 247 0 251 0 l 92 0 q 80 5 85 0 q 75 17 75 10 l 75 956 q 80 967 75 963 q 92 972 85 972 l 543 972 q 555 967 550 972 q 560 956 560 963 l 560 850 z "},"Ẽ":{"ha":604,"x_min":75,"x_max":560,"o":"m 560 850 q 555 838 560 843 q 543 833 550 833 l 243 833 q 236 826 236 833 l 236 564 q 243 557 236 557 l 421 557 q 433 552 428 557 q 438 540 438 547 l 438 433 q 433 422 438 426 q 421 417 428 417 l 243 417 q 236 410 236 417 l 236 146 q 243 139 236 139 l 543 139 q 555 134 550 139 q 560 122 560 129 l 560 17 q 555 5 560 10 q 543 0 550 0 l 92 0 q 80 5 85 0 q 75 17 75 10 l 75 956 q 80 967 75 963 q 92 972 85 972 l 543 972 q 555 967 550 972 q 560 956 560 963 l 560 850 m 408 1088 q 374 1094 390 1088 q 333 1114 357 1100 q 313 1126 324 1119 q 293 1137 301 1133 q 274 1140 285 1140 q 221 1108 242 1140 q 197 1103 211 1094 l 153 1135 q 146 1157 140 1143 q 195 1223 165 1201 q 261 1244 225 1244 q 303 1236 283 1244 q 347 1213 322 1228 q 364 1202 353 1210 q 385 1190 375 1194 q 407 1186 396 1186 q 460 1217 440 1186 q 482 1224 468 1233 l 526 1193 q 533 1179 533 1189 q 528 1161 533 1171 q 472 1105 504 1122 q 408 1088 439 1088 z "},"F":{"ha":576,"x_min":75,"x_max":558,"o":"m 558 850 q 553 838 558 843 q 542 833 549 833 l 243 833 q 236 826 236 833 l 236 564 q 243 557 236 557 l 419 557 q 431 552 426 557 q 436 540 436 547 l 436 433 q 431 422 436 426 q 419 417 426 417 l 243 417 q 236 410 236 417 l 236 17 q 231 5 236 10 q 219 0 226 0 l 92 0 q 80 5 85 0 q 75 17 75 10 l 75 956 q 80 967 75 963 q 92 972 85 972 l 542 972 q 553 967 549 972 q 558 956 558 963 l 558 850 z "},"G":{"ha":642,"x_min":58,"x_max":583,"o":"m 319 -11 q 130 58 201 -11 q 58 240 58 126 l 58 732 q 130 915 58 846 q 319 983 201 983 q 510 915 438 983 q 583 731 583 846 l 583 676 q 578 665 583 669 q 567 660 574 660 l 439 660 q 427 665 432 660 q 422 676 422 669 l 422 733 q 394 814 422 783 q 319 844 365 844 q 246 814 274 844 q 218 733 218 783 l 218 239 q 246 158 218 189 q 319 128 274 128 q 394 158 365 128 q 422 239 422 189 l 422 372 q 415 379 422 379 l 331 379 q 319 384 324 379 q 314 396 314 389 l 314 497 q 319 509 314 504 q 331 514 324 514 l 567 514 q 578 509 574 514 q 583 497 583 504 l 583 240 q 510 58 583 126 q 319 -11 438 -11 z "},"Ğ":{"ha":640,"x_min":58,"x_max":583,"o":"m 319 -11 q 130 58 201 -11 q 58 240 58 126 l 58 732 q 130 915 58 846 q 319 983 201 983 q 510 915 438 983 q 583 731 583 846 l 583 676 q 578 665 583 669 q 567 660 574 660 l 439 660 q 427 665 432 660 q 422 676 422 669 l 422 733 q 394 814 422 783 q 319 844 365 844 q 246 814 274 844 q 218 733 218 783 l 218 239 q 246 158 218 189 q 319 128 274 128 q 394 158 365 128 q 422 239 422 189 l 422 372 q 415 379 422 379 l 331 379 q 319 384 324 379 q 314 396 314 389 l 314 497 q 319 509 314 504 q 331 514 324 514 l 567 514 q 578 509 574 514 q 583 497 583 504 l 583 240 q 510 58 583 126 q 319 -11 438 -11 m 321 1029 q 211 1068 254 1029 q 163 1171 168 1107 l 163 1174 q 178 1188 163 1188 l 232 1188 q 250 1171 249 1188 q 274 1122 254 1140 q 321 1103 293 1103 q 368 1122 349 1103 q 392 1171 388 1140 q 410 1188 394 1188 l 464 1188 q 479 1171 482 1188 q 430 1068 474 1107 q 321 1029 386 1029 z "},"Ĝ":{"ha":640,"x_min":58,"x_max":583,"o":"m 319 -11 q 130 58 201 -11 q 58 240 58 126 l 58 732 q 130 915 58 846 q 319 983 201 983 q 510 915 438 983 q 583 731 583 846 l 583 676 q 578 665 583 669 q 567 660 574 660 l 439 660 q 427 665 432 660 q 422 676 422 669 l 422 733 q 394 814 422 783 q 319 844 365 844 q 246 814 274 844 q 218 733 218 783 l 218 239 q 246 158 218 189 q 319 128 274 128 q 394 158 365 128 q 422 239 422 189 l 422 372 q 415 379 422 379 l 331 379 q 319 384 324 379 q 314 396 314 389 l 314 497 q 319 509 314 504 q 331 514 324 514 l 567 514 q 578 509 574 514 q 583 497 583 504 l 583 240 q 510 58 583 126 q 319 -11 438 -11 m 149 1061 q 135 1066 139 1061 q 138 1081 132 1071 l 225 1224 q 244 1235 231 1235 l 388 1235 q 407 1224 400 1235 l 499 1081 q 501 1071 501 1072 q 488 1061 501 1061 l 390 1061 q 369 1072 376 1061 l 322 1160 q 314 1160 318 1167 l 265 1072 q 244 1061 258 1061 l 149 1061 z "},"Ġ":{"ha":640,"x_min":58,"x_max":583,"o":"m 319 -11 q 130 58 201 -11 q 58 240 58 126 l 58 732 q 130 915 58 846 q 319 983 201 983 q 510 915 438 983 q 583 731 583 846 l 583 676 q 578 665 583 669 q 567 660 574 660 l 439 660 q 427 665 432 660 q 422 676 422 669 l 422 733 q 394 814 422 783 q 319 844 365 844 q 246 814 274 844 q 218 733 218 783 l 218 239 q 246 158 218 189 q 319 128 274 128 q 394 158 365 128 q 422 239 422 189 l 422 372 q 415 379 422 379 l 331 379 q 319 384 324 379 q 314 396 314 389 l 314 497 q 319 509 314 504 q 331 514 324 514 l 567 514 q 578 509 574 514 q 583 497 583 504 l 583 240 q 510 58 583 126 q 319 -11 438 -11 m 321 1069 q 250 1097 278 1069 q 222 1168 222 1125 q 250 1239 222 1211 q 321 1267 278 1267 q 391 1239 364 1267 q 418 1168 418 1211 q 390 1097 418 1125 q 321 1069 363 1069 z "},"H":{"ha":663,"x_min":75,"x_max":588,"o":"m 426 956 q 431 967 426 963 q 443 972 436 972 l 571 972 q 583 967 578 972 q 588 956 588 963 l 588 17 q 583 5 588 10 q 571 0 578 0 l 443 0 q 431 5 436 0 q 426 17 426 10 l 426 410 q 419 417 426 417 l 243 417 q 236 410 236 417 l 236 17 q 231 5 236 10 q 219 0 226 0 l 92 0 q 80 5 85 0 q 75 17 75 10 l 75 956 q 80 967 75 963 q 92 972 85 972 l 219 972 q 231 967 226 972 q 236 956 236 963 l 236 564 q 243 557 236 557 l 419 557 q 426 564 426 557 l 426 956 z "},"Ħ":{"ha":663,"x_min":10,"x_max":654,"o":"m 638 815 q 649 810 644 815 q 654 799 654 806 l 654 721 q 649 709 654 714 q 638 704 644 704 l 594 704 q 588 697 588 704 l 588 17 q 583 5 588 10 q 571 0 578 0 l 443 0 q 431 5 436 0 q 426 17 426 10 l 426 410 q 419 417 426 417 l 243 417 q 236 410 236 417 l 236 17 q 231 5 236 10 q 219 0 226 0 l 92 0 q 80 5 85 0 q 75 17 75 10 l 75 697 q 68 704 75 704 l 26 704 q 15 709 19 704 q 10 721 10 714 l 10 799 q 15 810 10 806 q 26 815 19 815 l 68 815 q 75 822 75 815 l 75 956 q 80 967 75 963 q 92 972 85 972 l 219 972 q 231 967 226 972 q 236 956 236 963 l 236 822 q 243 815 236 815 l 419 815 q 426 822 426 815 l 426 956 q 431 967 426 963 q 443 972 436 972 l 571 972 q 583 967 578 972 q 588 956 588 963 l 588 822 q 594 815 588 815 l 638 815 m 419 557 q 426 564 426 557 l 426 697 q 419 704 426 704 l 243 704 q 236 697 236 704 l 236 564 q 243 557 236 557 l 419 557 z "},"Ĥ":{"ha":663,"x_min":75,"x_max":588,"o":"m 426 956 q 431 967 426 963 q 443 972 436 972 l 571 972 q 583 967 578 972 q 588 956 588 963 l 588 17 q 583 5 588 10 q 571 0 578 0 l 443 0 q 431 5 436 0 q 426 17 426 10 l 426 410 q 419 417 426 417 l 243 417 q 236 410 236 417 l 236 17 q 231 5 236 10 q 219 0 226 0 l 92 0 q 80 5 85 0 q 75 17 75 10 l 75 956 q 80 967 75 963 q 92 972 85 972 l 219 972 q 231 967 226 972 q 236 956 236 963 l 236 564 q 243 557 236 557 l 419 557 q 426 564 426 557 l 426 956 m 158 1063 q 145 1067 149 1063 q 147 1082 142 1072 l 235 1225 q 254 1236 240 1236 l 397 1236 q 417 1225 410 1236 l 508 1082 q 511 1072 511 1074 q 497 1063 511 1063 l 400 1063 q 379 1074 386 1063 l 332 1161 q 324 1161 328 1168 l 275 1074 q 254 1063 268 1063 l 158 1063 z "},"I":{"ha":311,"x_min":75,"x_max":236,"o":"m 92 0 q 80 5 85 0 q 75 17 75 10 l 75 956 q 80 967 75 963 q 92 972 85 972 l 219 972 q 231 967 226 972 q 236 956 236 963 l 236 17 q 231 5 236 10 q 219 0 226 0 l 92 0 z "},"Í":{"ha":311,"x_min":74,"x_max":299,"o":"m 92 0 q 80 5 85 0 q 75 17 75 10 l 75 956 q 80 967 75 963 q 92 972 85 972 l 219 972 q 231 967 226 972 q 236 956 236 963 l 236 17 q 231 5 236 10 q 219 0 226 0 l 92 0 m 92 1061 q 78 1067 82 1061 q 79 1081 74 1072 l 161 1224 q 182 1235 167 1235 l 282 1235 q 296 1228 293 1235 q 293 1214 299 1222 l 190 1071 q 171 1061 183 1061 l 92 1061 z "},"Î":{"ha":311,"x_min":-32,"x_max":338,"o":"m 92 0 q 80 5 85 0 q 75 17 75 10 l 75 956 q 80 967 75 963 q 92 972 85 972 l 219 972 q 231 967 226 972 q 236 956 236 963 l 236 17 q 231 5 236 10 q 219 0 226 0 l 92 0 m -15 1061 q -28 1066 -25 1061 q -26 1081 -32 1071 l 61 1224 q 81 1235 67 1235 l 224 1235 q 243 1224 236 1235 l 335 1081 q 338 1071 338 1072 q 324 1061 338 1061 l 226 1061 q 206 1072 213 1061 l 158 1160 q 150 1160 154 1167 l 101 1072 q 81 1061 94 1061 l -15 1061 z "},"Ï":{"ha":311,"x_min":-62,"x_max":372,"o":"m 92 0 q 80 5 85 0 q 75 17 75 10 l 75 956 q 80 967 75 963 q 92 972 85 972 l 219 972 q 231 967 226 972 q 236 956 236 963 l 236 17 q 231 5 236 10 q 219 0 226 0 l 92 0 z "},"İ":{"ha":311,"x_min":58,"x_max":254,"o":"m 92 0 q 80 5 85 0 q 75 17 75 10 l 75 956 q 80 967 75 963 q 92 972 85 972 l 219 972 q 231 967 226 972 q 236 956 236 963 l 236 17 q 231 5 236 10 q 219 0 226 0 l 92 0 m 157 1069 q 86 1097 114 1069 q 58 1168 58 1125 q 86 1239 58 1211 q 157 1267 114 1267 q 227 1239 200 1267 q 254 1168 254 1211 q 226 1097 254 1125 q 157 1069 199 1069 z "},"Ị":{"ha":311,"x_min":63,"x_max":250,"o":"m 92 0 q 80 5 85 0 q 75 17 75 10 l 75 956 q 80 967 75 963 q 92 972 85 972 l 219 972 q 231 967 226 972 q 236 956 236 963 l 236 17 q 231 5 236 10 q 219 0 226 0 l 92 0 m 157 -310 q 89 -283 115 -310 q 63 -215 63 -256 q 89 -149 63 -175 q 157 -122 115 -122 q 224 -149 197 -122 q 250 -215 250 -175 q 224 -283 250 -256 q 157 -310 197 -310 z "},"Ì":{"ha":311,"x_min":-14,"x_max":236,"o":"m 92 0 q 80 5 85 0 q 75 17 75 10 l 75 956 q 80 967 75 963 q 92 972 85 972 l 219 972 q 231 967 226 972 q 236 956 236 963 l 236 17 q 231 5 236 10 q 219 0 226 0 l 92 0 m 207 1072 q 192 1061 207 1061 l 111 1061 q 92 1072 99 1061 l -10 1214 q -14 1224 -14 1221 q 1 1235 -14 1235 l 101 1235 q 122 1224 117 1235 l 204 1081 l 207 1072 z "},"Ỉ":{"ha":311,"x_min":19,"x_max":293,"o":"m 92 0 q 80 5 85 0 q 75 17 75 10 l 75 956 q 80 967 75 963 q 92 972 85 972 l 219 972 q 231 967 226 972 q 236 956 236 963 l 236 17 q 231 5 236 10 q 219 0 226 0 l 92 0 m 142 1032 q 131 1053 122 1036 q 175 1119 144 1086 q 197 1147 190 1135 q 204 1179 204 1160 q 191 1206 204 1194 q 160 1218 178 1218 q 125 1209 139 1218 q 92 1175 111 1200 q 78 1167 86 1167 q 68 1171 72 1167 l 32 1197 q 28 1221 19 1208 q 87 1281 57 1263 q 163 1299 117 1299 q 258 1266 222 1299 q 293 1179 293 1233 q 280 1127 293 1149 q 240 1078 267 1106 q 204 1035 213 1050 q 182 1024 197 1021 l 142 1032 z "},"Ī":{"ha":311,"x_min":3,"x_max":300,"o":"m 92 0 q 80 5 85 0 q 75 17 75 10 l 75 956 q 80 967 75 963 q 92 972 85 972 l 219 972 q 231 967 226 972 q 236 956 236 963 l 236 17 q 231 5 236 10 q 219 0 226 0 l 92 0 m 19 1076 q 8 1081 13 1076 q 3 1093 3 1086 l 3 1171 q 8 1183 3 1178 q 19 1188 13 1188 l 283 1188 q 295 1183 290 1188 q 300 1171 300 1178 l 300 1093 q 295 1081 300 1086 q 283 1076 290 1076 l 19 1076 z "},"Į":{"ha":288,"x_min":44,"x_max":232,"o":"m 81 0 q 69 5 74 0 q 64 17 64 10 l 64 956 q 69 967 64 963 q 81 972 74 972 l 208 972 q 220 967 215 972 q 225 956 225 963 l 225 17 q 220 5 225 10 q 208 0 215 0 l 81 0 m 232 -239 q 219 -254 232 -250 q 163 -262 189 -262 q 78 -235 113 -262 q 44 -142 44 -207 q 108 -8 44 -71 q 129 0 117 0 l 196 0 q 206 -3 201 0 q 210 -8 210 -6 q 203 -21 210 -14 q 150 -119 150 -71 q 151 -133 150 -129 q 172 -166 157 -157 q 206 -172 186 -175 l 210 -172 q 225 -185 224 -172 l 232 -235 l 232 -239 z "},"Ĩ":{"ha":311,"x_min":-22,"x_max":371,"o":"m 92 0 q 80 5 85 0 q 75 17 75 10 l 75 956 q 80 967 75 963 q 92 972 85 972 l 219 972 q 231 967 226 972 q 236 956 236 963 l 236 17 q 231 5 236 10 q 219 0 226 0 l 92 0 m 246 1088 q 211 1094 228 1088 q 171 1114 194 1100 q 150 1126 161 1119 q 131 1137 139 1133 q 111 1140 122 1140 q 58 1108 79 1140 q 35 1103 49 1094 l -10 1135 q -17 1157 -22 1143 q 33 1223 3 1201 q 99 1244 63 1244 q 140 1236 121 1244 q 185 1213 160 1228 q 201 1202 190 1210 q 223 1190 213 1194 q 244 1186 233 1186 q 297 1217 278 1186 q 319 1224 306 1233 l 364 1193 q 371 1179 371 1189 q 365 1161 371 1171 q 309 1105 342 1122 q 246 1088 276 1088 z "},"J":{"ha":615,"x_min":24,"x_max":539,"o":"m 281 -11 q 94 58 165 -11 q 24 240 24 126 l 24 343 q 28 355 24 350 q 40 360 33 360 l 168 360 q 180 355 175 360 q 185 343 185 350 l 185 238 q 211 158 185 189 q 281 128 238 128 q 351 158 324 128 q 378 238 378 189 l 378 956 q 383 967 378 963 q 394 972 388 972 l 522 972 q 534 967 529 972 q 539 956 539 963 l 539 240 q 467 58 539 126 q 281 -11 396 -11 z "},"Ĵ":{"ha":615,"x_min":24,"x_max":638,"o":"m 281 -11 q 94 58 165 -11 q 24 240 24 126 l 24 343 q 28 355 24 350 q 40 360 33 360 l 168 360 q 180 355 175 360 q 185 343 185 350 l 185 238 q 211 158 185 189 q 281 128 238 128 q 351 158 324 128 q 378 238 378 189 l 378 956 q 383 967 378 963 q 394 972 388 972 l 522 972 q 534 967 529 972 q 539 956 539 963 l 539 240 q 467 58 539 126 q 281 -11 396 -11 m 285 1063 q 272 1067 275 1063 q 274 1082 268 1072 l 361 1225 q 381 1236 367 1236 l 524 1236 q 543 1225 536 1236 l 635 1082 q 638 1072 638 1074 q 624 1063 638 1063 l 526 1063 q 506 1074 513 1063 l 458 1161 q 450 1161 454 1168 l 401 1074 q 381 1063 394 1063 l 285 1063 z "},"K":{"ha":663,"x_min":75,"x_max":639,"o":"m 92 0 q 80 5 85 0 q 75 17 75 10 l 75 956 q 80 967 75 963 q 92 972 85 972 l 219 972 q 231 967 226 972 q 236 956 236 963 l 236 572 q 239 566 236 567 q 244 569 242 565 l 453 960 q 474 972 460 972 l 611 972 q 624 967 621 972 q 622 953 626 961 l 414 563 q 413 554 413 557 l 638 19 q 639 11 639 17 q 625 0 639 0 l 488 0 q 468 13 472 0 l 304 414 q 300 417 303 418 q 294 414 297 417 l 239 321 q 236 313 236 315 l 236 17 q 231 5 236 10 q 219 0 226 0 l 92 0 z "},"L":{"ha":576,"x_min":75,"x_max":560,"o":"m 92 0 q 80 5 85 0 q 75 17 75 10 l 75 956 q 80 967 75 963 q 92 972 85 972 l 219 972 q 231 967 226 972 q 236 956 236 963 l 236 146 q 243 139 236 139 l 543 139 q 555 134 550 139 q 560 122 560 129 l 560 17 q 555 5 560 10 q 543 0 550 0 l 92 0 z "},"Ĺ":{"ha":576,"x_min":75,"x_max":560,"o":"m 92 0 q 80 5 85 0 q 75 17 75 10 l 75 956 q 80 967 75 963 q 92 972 85 972 l 219 972 q 231 967 226 972 q 236 956 236 963 l 236 146 q 243 139 236 139 l 543 139 q 555 134 550 139 q 560 122 560 129 l 560 17 q 555 5 560 10 q 543 0 550 0 l 92 0 m 94 1061 q 81 1067 85 1061 q 82 1081 76 1072 l 164 1224 q 185 1235 169 1235 l 285 1235 q 299 1228 296 1235 q 296 1214 301 1222 l 193 1071 q 174 1061 186 1061 l 94 1061 z "},"Ľ":{"ha":579,"x_min":75,"x_max":560,"o":"m 92 0 q 80 5 85 0 q 75 17 75 10 l 75 956 q 80 967 75 963 q 92 972 85 972 l 219 972 q 231 967 226 972 q 236 956 236 963 l 236 146 q 243 139 236 139 l 543 139 q 555 134 550 139 q 560 122 560 129 l 560 17 q 555 5 560 10 q 543 0 550 0 l 92 0 z "},"Ļ":{"ha":576,"x_min":75,"x_max":560,"o":"m 92 0 q 80 5 85 0 q 75 17 75 10 l 75 956 q 80 967 75 963 q 92 972 85 972 l 219 972 q 231 967 226 972 q 236 956 236 963 l 236 146 q 243 139 236 139 l 543 139 q 555 134 550 139 q 560 122 560 129 l 560 17 q 555 5 560 10 q 543 0 550 0 l 92 0 z "},"Ł":{"ha":649,"x_min":-18,"x_max":632,"o":"m 308 146 q 315 139 308 139 l 615 139 q 627 134 622 139 q 632 122 632 129 l 632 17 q 627 5 632 10 q 615 0 622 0 l 164 0 q 152 5 157 0 q 147 17 147 10 l 147 283 q 144 289 147 288 q 139 288 142 290 l 68 232 q 57 228 61 228 q 44 235 51 228 l -14 303 q -18 314 -18 310 q -11 326 -18 319 l 143 450 q 147 458 147 453 l 147 956 q 152 967 147 963 q 164 972 157 972 l 292 972 q 303 967 299 972 q 308 956 308 963 l 308 592 q 311 586 308 588 q 317 588 314 585 l 497 731 q 508 735 503 735 q 521 728 514 735 l 578 657 q 583 646 583 649 q 576 633 583 640 l 313 425 q 308 417 308 424 l 308 146 z "},"M":{"ha":747,"x_min":71,"x_max":676,"o":"m 511 961 q 532 972 518 972 l 660 972 q 672 967 667 972 q 676 956 676 963 l 676 17 q 672 5 676 10 q 660 0 667 0 l 532 0 q 520 5 525 0 q 515 17 515 10 l 515 672 q 513 678 515 678 q 507 674 510 678 l 386 454 q 374 443 379 443 q 361 454 368 443 l 240 674 q 235 678 238 678 q 232 672 232 678 l 232 17 q 227 5 232 10 q 215 0 222 0 l 88 0 q 76 5 81 0 q 71 17 71 10 l 71 956 q 76 967 71 963 q 88 972 81 972 l 215 972 q 236 961 229 972 l 371 724 q 379 724 375 718 l 511 961 z "},"N":{"ha":704,"x_min":75,"x_max":629,"o":"m 469 956 q 474 967 469 963 q 486 972 479 972 l 613 972 q 624 967 619 972 q 629 956 629 963 l 629 17 q 624 5 629 10 q 613 0 619 0 l 467 0 q 449 14 453 0 l 242 603 q 237 606 240 607 q 233 601 233 606 l 235 17 q 230 5 235 10 q 218 0 225 0 l 92 0 q 80 5 85 0 q 75 17 75 10 l 75 956 q 80 967 75 963 q 92 972 85 972 l 235 972 q 253 958 249 972 l 461 374 q 466 370 463 369 q 469 375 469 371 l 469 956 z "},"Ń":{"ha":704,"x_min":75,"x_max":629,"o":"m 469 956 q 474 967 469 963 q 486 972 479 972 l 613 972 q 624 967 619 972 q 629 956 629 963 l 629 17 q 624 5 629 10 q 613 0 619 0 l 467 0 q 449 14 453 0 l 242 603 q 237 606 240 607 q 233 601 233 606 l 235 17 q 230 5 235 10 q 218 0 225 0 l 92 0 q 80 5 85 0 q 75 17 75 10 l 75 956 q 80 967 75 963 q 92 972 85 972 l 235 972 q 253 958 249 972 l 461 374 q 466 370 463 369 q 469 375 469 371 l 469 956 m 286 1067 q 272 1072 276 1067 q 274 1086 268 1078 l 356 1229 q 376 1240 361 1240 l 476 1240 q 490 1234 488 1240 q 488 1219 493 1228 l 385 1076 q 365 1067 378 1067 l 286 1067 z "},"Ň":{"ha":704,"x_min":75,"x_max":629,"o":"m 469 956 q 474 967 469 963 q 486 972 479 972 l 613 972 q 624 967 619 972 q 629 956 629 963 l 629 17 q 624 5 629 10 q 613 0 619 0 l 467 0 q 449 14 453 0 l 242 603 q 237 606 240 607 q 233 601 233 606 l 235 17 q 230 5 235 10 q 218 0 225 0 l 92 0 q 80 5 85 0 q 75 17 75 10 l 75 956 q 80 967 75 963 q 92 972 85 972 l 235 972 q 253 958 249 972 l 461 374 q 466 370 463 369 q 469 375 469 371 l 469 956 m 175 1221 q 172 1231 172 1229 q 186 1240 172 1240 l 282 1240 q 303 1229 296 1240 l 351 1143 q 360 1143 356 1138 l 407 1229 q 428 1240 414 1240 l 525 1240 q 538 1235 535 1240 q 536 1221 542 1231 l 444 1078 q 425 1067 438 1067 l 282 1067 q 263 1078 268 1067 l 175 1221 z "},"Ŋ":{"ha":704,"x_min":75,"x_max":629,"o":"m 469 956 q 474 967 469 963 q 486 972 479 972 l 613 972 q 624 967 619 972 q 629 956 629 963 l 629 0 q 615 -142 629 -92 q 547 -219 600 -192 q 378 -246 493 -247 q 361 -229 361 -246 l 360 -124 q 378 -108 360 -106 q 430 -97 414 -108 q 449 -65 446 -85 q 453 -4 453 -44 l 451 4 l 242 603 q 237 606 240 607 q 233 601 233 606 l 235 17 q 230 5 235 10 q 218 0 225 0 l 92 0 q 80 5 85 0 q 75 17 75 10 l 75 956 q 80 967 75 963 q 92 972 85 972 l 235 972 q 253 958 249 972 l 444 421 q 449 417 446 417 q 453 422 453 418 l 453 497 q 461 514 453 514 l 463 514 q 469 521 469 514 l 469 956 z "},"Ñ":{"ha":704,"x_min":75,"x_max":629,"o":"m 469 956 q 474 967 469 963 q 486 972 479 972 l 613 972 q 624 967 619 972 q 629 956 629 963 l 629 17 q 624 5 629 10 q 613 0 619 0 l 467 0 q 449 14 453 0 l 242 603 q 237 606 240 607 q 233 601 233 606 l 235 17 q 230 5 235 10 q 218 0 225 0 l 92 0 q 80 5 85 0 q 75 17 75 10 l 75 956 q 80 967 75 963 q 92 972 85 972 l 235 972 q 253 958 249 972 l 461 374 q 466 370 463 369 q 469 375 469 371 l 469 956 m 440 1093 q 406 1099 422 1093 q 365 1119 389 1106 q 344 1132 356 1125 q 325 1142 333 1139 q 306 1146 317 1146 q 253 1114 274 1146 q 229 1108 243 1100 l 185 1140 q 178 1163 172 1149 q 227 1228 197 1207 q 293 1250 257 1250 q 335 1242 315 1250 q 379 1218 354 1233 q 396 1208 385 1215 q 417 1196 407 1200 q 439 1192 428 1192 q 492 1222 472 1192 q 514 1229 500 1239 l 558 1199 q 565 1185 565 1194 q 560 1167 565 1176 q 503 1110 536 1128 q 440 1093 471 1093 z "},"O":{"ha":649,"x_min":58,"x_max":590,"o":"m 324 -11 q 131 61 204 -11 q 58 253 58 133 l 58 719 q 131 911 58 839 q 324 983 204 983 q 517 911 443 983 q 590 719 590 839 l 590 253 q 517 61 590 133 q 324 -11 443 -11 m 324 128 q 400 160 371 128 q 429 246 429 193 l 429 726 q 400 812 429 779 q 324 844 371 844 q 248 812 276 844 q 219 726 219 779 l 219 246 q 248 160 219 193 q 324 128 276 128 z "},"Ó":{"ha":649,"x_min":58,"x_max":590,"o":"m 324 -11 q 131 61 204 -11 q 58 253 58 133 l 58 719 q 131 911 58 839 q 324 983 204 983 q 517 911 443 983 q 590 719 590 839 l 590 253 q 517 61 590 133 q 324 -11 443 -11 m 324 128 q 400 160 371 128 q 429 246 429 193 l 429 726 q 400 812 429 779 q 324 844 371 844 q 248 812 276 844 q 219 726 219 779 l 219 246 q 248 160 219 193 q 324 128 276 128 m 260 1060 q 246 1065 250 1060 q 247 1079 242 1071 l 329 1222 q 350 1233 335 1233 l 450 1233 q 464 1227 461 1233 q 461 1213 467 1221 l 358 1069 q 339 1060 351 1060 l 260 1060 z "},"Ô":{"ha":649,"x_min":58,"x_max":590,"o":"m 324 -11 q 131 61 204 -11 q 58 253 58 133 l 58 719 q 131 911 58 839 q 324 983 204 983 q 517 911 443 983 q 590 719 590 839 l 590 253 q 517 61 590 133 q 324 -11 443 -11 m 324 128 q 400 160 371 128 q 429 246 429 193 l 429 726 q 400 812 429 779 q 324 844 371 844 q 248 812 276 844 q 219 726 219 779 l 219 246 q 248 160 219 193 q 324 128 276 128 m 153 1060 q 140 1065 143 1060 q 142 1079 136 1069 l 229 1222 q 249 1233 235 1233 l 392 1233 q 411 1222 404 1233 l 503 1079 q 506 1069 506 1071 q 492 1060 506 1060 l 394 1060 q 374 1071 381 1060 l 326 1158 q 318 1158 322 1165 l 269 1071 q 249 1060 263 1060 l 153 1060 z "},"Ố":{"ha":649,"x_min":58,"x_max":721,"o":"m 324 -11 q 131 61 204 -11 q 58 253 58 133 l 58 719 q 131 911 58 839 q 324 983 204 983 q 517 911 443 983 q 590 719 590 839 l 590 253 q 517 61 590 133 q 324 -11 443 -11 m 324 128 q 400 160 371 128 q 429 246 429 193 l 429 726 q 400 812 429 779 q 324 844 371 844 q 248 812 276 844 q 219 726 219 779 l 219 246 q 248 160 219 193 q 324 128 276 128 z "},"Ộ":{"ha":649,"x_min":58,"x_max":590,"o":"m 324 -11 q 131 61 204 -11 q 58 253 58 133 l 58 719 q 131 911 58 839 q 324 983 204 983 q 517 911 443 983 q 590 719 590 839 l 590 253 q 517 61 590 133 q 324 -11 443 -11 m 324 128 q 400 160 371 128 q 429 246 429 193 l 429 726 q 400 812 429 779 q 324 844 371 844 q 248 812 276 844 q 219 726 219 779 l 219 246 q 248 160 219 193 q 324 128 276 128 m 325 -310 q 257 -283 283 -310 q 231 -215 231 -256 q 257 -149 231 -175 q 325 -122 283 -122 q 392 -149 365 -122 q 418 -215 418 -175 q 392 -283 418 -256 q 325 -310 365 -310 m 153 1060 q 140 1065 143 1060 q 142 1079 136 1069 l 229 1222 q 249 1233 235 1233 l 392 1233 q 411 1222 404 1233 l 503 1079 q 506 1069 506 1071 q 492 1060 506 1060 l 394 1060 q 374 1071 381 1060 l 326 1158 q 318 1158 322 1165 l 269 1071 q 249 1060 263 1060 l 153 1060 z "},"Ồ":{"ha":649,"x_min":58,"x_max":593,"o":"m 324 -11 q 131 61 204 -11 q 58 253 58 133 l 58 719 q 131 911 58 839 q 324 983 204 983 q 517 911 443 983 q 590 719 590 839 l 590 253 q 517 61 590 133 q 324 -11 443 -11 m 324 128 q 400 160 371 128 q 429 246 429 193 l 429 726 q 400 812 429 779 q 324 844 371 844 q 248 812 276 844 q 219 726 219 779 l 219 246 q 248 160 219 193 q 324 128 276 128 z "},"Ổ":{"ha":649,"x_min":58,"x_max":649,"o":"m 324 -11 q 131 61 204 -11 q 58 253 58 133 l 58 719 q 131 911 58 839 q 324 983 204 983 q 517 911 443 983 q 590 719 590 839 l 590 253 q 517 61 590 133 q 324 -11 443 -11 m 324 128 q 400 160 371 128 q 429 246 429 193 l 429 726 q 400 812 429 779 q 324 844 371 844 q 248 812 276 844 q 219 726 219 779 l 219 246 q 248 160 219 193 q 324 128 276 128 m 506 1199 q 494 1207 497 1201 q 494 1221 490 1213 q 519 1263 506 1247 q 536 1283 533 1279 q 557 1309 550 1297 q 564 1339 564 1321 q 551 1365 564 1354 q 521 1376 539 1376 q 491 1368 504 1376 q 460 1339 478 1360 q 454 1333 454 1333 q 433 1332 446 1322 l 401 1356 q 397 1379 389 1367 q 453 1435 425 1418 q 525 1453 481 1453 q 615 1422 581 1453 q 649 1339 649 1390 q 636 1289 649 1310 q 599 1243 624 1268 q 564 1201 572 1217 q 543 1192 556 1190 l 506 1199 m 153 1060 q 140 1065 143 1060 q 142 1079 136 1069 l 229 1222 q 249 1233 235 1233 l 392 1233 q 411 1222 404 1233 l 503 1079 q 506 1069 506 1071 q 492 1060 506 1060 l 394 1060 q 374 1071 381 1060 l 326 1158 q 318 1158 322 1165 l 269 1071 q 249 1060 263 1060 l 153 1060 z "},"Ỗ":{"ha":649,"x_min":58,"x_max":590,"o":"m 324 -11 q 131 61 204 -11 q 58 253 58 133 l 58 719 q 131 911 58 839 q 324 983 204 983 q 517 911 443 983 q 590 719 590 839 l 590 253 q 517 61 590 133 q 324 -11 443 -11 m 324 128 q 400 160 371 128 q 429 246 429 193 l 429 726 q 400 812 429 779 q 324 844 371 844 q 248 812 276 844 q 219 726 219 779 l 219 246 q 248 160 219 193 q 324 128 276 128 z "},"Ö":{"ha":649,"x_min":58,"x_max":590,"o":"m 324 -11 q 131 61 204 -11 q 58 253 58 133 l 58 719 q 131 911 58 839 q 324 983 204 983 q 517 911 443 983 q 590 719 590 839 l 590 253 q 517 61 590 133 q 324 -11 443 -11 m 324 128 q 400 160 371 128 q 429 246 429 193 l 429 726 q 400 812 429 779 q 324 844 371 844 q 248 812 276 844 q 219 726 219 779 l 219 246 q 248 160 219 193 q 324 128 276 128 z "},"Ọ":{"ha":649,"x_min":58,"x_max":590,"o":"m 324 -11 q 131 61 204 -11 q 58 253 58 133 l 58 719 q 131 911 58 839 q 324 983 204 983 q 517 911 443 983 q 590 719 590 839 l 590 253 q 517 61 590 133 q 324 -11 443 -11 m 324 128 q 400 160 371 128 q 429 246 429 193 l 429 726 q 400 812 429 779 q 324 844 371 844 q 248 812 276 844 q 219 726 219 779 l 219 246 q 248 160 219 193 q 324 128 276 128 m 325 -310 q 257 -283 283 -310 q 231 -215 231 -256 q 257 -149 231 -175 q 325 -122 283 -122 q 392 -149 365 -122 q 418 -215 418 -175 q 392 -283 418 -256 q 325 -310 365 -310 z "},"Ò":{"ha":649,"x_min":58,"x_max":590,"o":"m 324 -11 q 131 61 204 -11 q 58 253 58 133 l 58 719 q 131 911 58 839 q 324 983 204 983 q 517 911 443 983 q 590 719 590 839 l 590 253 q 517 61 590 133 q 324 -11 443 -11 m 324 128 q 400 160 371 128 q 429 246 429 193 l 429 726 q 400 812 429 779 q 324 844 371 844 q 248 812 276 844 q 219 726 219 779 l 219 246 q 248 160 219 193 q 324 128 276 128 m 375 1071 q 360 1060 375 1060 l 279 1060 q 260 1071 267 1060 l 158 1213 q 154 1222 154 1219 q 169 1233 154 1233 l 269 1233 q 290 1222 285 1233 l 372 1079 l 375 1071 z "},"Ỏ":{"ha":649,"x_min":58,"x_max":590,"o":"m 324 -11 q 131 61 204 -11 q 58 253 58 133 l 58 719 q 131 911 58 839 q 324 983 204 983 q 517 911 443 983 q 590 719 590 839 l 590 253 q 517 61 590 133 q 324 -11 443 -11 m 324 128 q 400 160 371 128 q 429 246 429 193 l 429 726 q 400 812 429 779 q 324 844 371 844 q 248 812 276 844 q 219 726 219 779 l 219 246 q 248 160 219 193 q 324 128 276 128 m 310 1031 q 299 1051 290 1035 q 343 1118 313 1085 q 365 1146 358 1133 q 372 1178 372 1158 q 359 1205 372 1193 q 328 1217 346 1217 q 293 1208 307 1217 q 260 1174 279 1199 q 246 1165 254 1165 q 236 1169 240 1165 l 200 1196 q 196 1219 188 1207 q 255 1279 225 1261 q 331 1297 285 1297 q 426 1265 390 1297 q 461 1178 461 1232 q 448 1126 461 1147 q 408 1076 435 1104 q 372 1033 381 1049 q 350 1022 365 1019 l 310 1031 z "},"Ơ":{"ha":649,"x_min":58,"x_max":590,"o":"m 510 929 q 508 919 504 925 q 590 719 590 846 l 590 253 q 517 61 590 133 q 324 -11 443 -11 q 131 61 204 -11 q 58 253 58 133 l 58 719 q 131 911 58 839 q 324 983 204 983 q 404 974 360 983 q 413 972 407 972 q 465 999 443 975 q 492 1071 488 1022 q 508 1088 492 1088 l 563 1088 q 575 1081 571 1088 q 578 1063 579 1075 q 510 929 569 974 m 429 726 q 400 812 429 779 q 324 844 371 844 q 248 812 276 844 q 219 726 219 779 l 219 246 q 248 160 219 193 q 324 128 276 128 q 400 160 371 128 q 429 246 429 193 l 429 726 z "},"Ớ":{"ha":649,"x_min":58,"x_max":590,"o":"m 510 929 q 508 919 504 925 q 590 719 590 846 l 590 253 q 517 61 590 133 q 324 -11 443 -11 q 131 61 204 -11 q 58 253 58 133 l 58 719 q 131 911 58 839 q 324 983 204 983 q 404 974 360 983 q 413 972 407 972 q 465 999 443 975 q 492 1071 488 1022 q 508 1088 492 1088 l 563 1088 q 575 1081 571 1088 q 578 1063 579 1075 q 510 929 569 974 m 429 726 q 400 812 429 779 q 324 844 371 844 q 248 812 276 844 q 219 726 219 779 l 219 246 q 248 160 219 193 q 324 128 276 128 q 400 160 371 128 q 429 246 429 193 l 429 726 m 260 1060 q 246 1065 250 1060 q 247 1079 242 1071 l 329 1222 q 350 1233 335 1233 l 450 1233 q 464 1227 461 1233 q 461 1213 467 1221 l 358 1069 q 339 1060 351 1060 l 260 1060 z "},"Ợ":{"ha":649,"x_min":58,"x_max":590,"o":"m 510 929 q 508 919 504 925 q 590 719 590 846 l 590 253 q 517 61 590 133 q 324 -11 443 -11 q 131 61 204 -11 q 58 253 58 133 l 58 719 q 131 911 58 839 q 324 983 204 983 q 404 974 360 983 q 413 972 407 972 q 465 999 443 975 q 492 1071 488 1022 q 508 1088 492 1088 l 563 1088 q 575 1081 571 1088 q 578 1063 579 1075 q 510 929 569 974 m 429 726 q 400 812 429 779 q 324 844 371 844 q 248 812 276 844 q 219 726 219 779 l 219 246 q 248 160 219 193 q 324 128 276 128 q 400 160 371 128 q 429 246 429 193 l 429 726 m 325 -310 q 257 -283 283 -310 q 231 -215 231 -256 q 257 -149 231 -175 q 325 -122 283 -122 q 392 -149 365 -122 q 418 -215 418 -175 q 392 -283 418 -256 q 325 -310 365 -310 z "},"Ờ":{"ha":649,"x_min":58,"x_max":590,"o":"m 510 929 q 508 919 504 925 q 590 719 590 846 l 590 253 q 517 61 590 133 q 324 -11 443 -11 q 131 61 204 -11 q 58 253 58 133 l 58 719 q 131 911 58 839 q 324 983 204 983 q 404 974 360 983 q 413 972 407 972 q 465 999 443 975 q 492 1071 488 1022 q 508 1088 492 1088 l 563 1088 q 575 1081 571 1088 q 578 1063 579 1075 q 510 929 569 974 m 429 726 q 400 812 429 779 q 324 844 371 844 q 248 812 276 844 q 219 726 219 779 l 219 246 q 248 160 219 193 q 324 128 276 128 q 400 160 371 128 q 429 246 429 193 l 429 726 m 375 1071 q 360 1060 375 1060 l 279 1060 q 260 1071 267 1060 l 158 1213 q 154 1222 154 1219 q 169 1233 154 1233 l 269 1233 q 290 1222 285 1233 l 372 1079 l 375 1071 z "},"Ở":{"ha":649,"x_min":58,"x_max":590,"o":"m 510 929 q 508 919 504 925 q 590 719 590 846 l 590 253 q 517 61 590 133 q 324 -11 443 -11 q 131 61 204 -11 q 58 253 58 133 l 58 719 q 131 911 58 839 q 324 983 204 983 q 404 974 360 983 q 413 972 407 972 q 465 999 443 975 q 492 1071 488 1022 q 508 1088 492 1088 l 563 1088 q 575 1081 571 1088 q 578 1063 579 1075 q 510 929 569 974 m 429 726 q 400 812 429 779 q 324 844 371 844 q 248 812 276 844 q 219 726 219 779 l 219 246 q 248 160 219 193 q 324 128 276 128 q 400 160 371 128 q 429 246 429 193 l 429 726 m 310 1031 q 299 1051 290 1035 q 343 1118 313 1085 q 365 1146 358 1133 q 372 1178 372 1158 q 359 1205 372 1193 q 328 1217 346 1217 q 293 1208 307 1217 q 260 1174 279 1199 q 246 1165 254 1165 q 236 1169 240 1165 l 200 1196 q 196 1219 188 1207 q 255 1279 225 1261 q 331 1297 285 1297 q 426 1265 390 1297 q 461 1178 461 1232 q 448 1126 461 1147 q 408 1076 435 1104 q 372 1033 381 1049 q 350 1022 365 1019 l 310 1031 z "},"Ỡ":{"ha":649,"x_min":58,"x_max":590,"o":"m 510 929 q 508 919 504 925 q 590 719 590 846 l 590 253 q 517 61 590 133 q 324 -11 443 -11 q 131 61 204 -11 q 58 253 58 133 l 58 719 q 131 911 58 839 q 324 983 204 983 q 404 974 360 983 q 413 972 407 972 q 465 999 443 975 q 492 1071 488 1022 q 508 1088 492 1088 l 563 1088 q 575 1081 571 1088 q 578 1063 579 1075 q 510 929 569 974 m 429 726 q 400 812 429 779 q 324 844 371 844 q 248 812 276 844 q 219 726 219 779 l 219 246 q 248 160 219 193 q 324 128 276 128 q 400 160 371 128 q 429 246 429 193 l 429 726 m 414 1086 q 379 1092 396 1086 q 339 1113 363 1099 q 318 1125 329 1118 q 299 1135 307 1132 q 279 1139 290 1139 q 226 1107 247 1139 q 203 1101 217 1093 l 158 1133 q 151 1156 146 1142 q 201 1222 171 1200 q 267 1243 231 1243 q 308 1235 289 1243 q 353 1211 328 1226 q 369 1201 358 1208 q 391 1189 381 1193 q 413 1185 401 1185 q 465 1215 446 1185 q 488 1222 474 1232 l 532 1192 q 539 1178 539 1188 q 533 1160 539 1169 q 477 1103 510 1121 q 414 1086 444 1086 z "},"Ő":{"ha":649,"x_min":58,"x_max":590,"o":"m 324 -11 q 131 61 204 -11 q 58 253 58 133 l 58 719 q 131 911 58 839 q 324 983 204 983 q 517 911 443 983 q 590 719 590 839 l 590 253 q 517 61 590 133 q 324 -11 443 -11 m 324 128 q 400 160 371 128 q 429 246 429 193 l 429 726 q 400 812 429 779 q 324 844 371 844 q 248 812 276 844 q 219 726 219 779 l 219 246 q 248 160 219 193 q 324 128 276 128 m 183 1060 q 170 1065 174 1060 q 171 1079 167 1069 l 240 1221 q 260 1233 246 1233 l 364 1233 q 376 1228 374 1233 q 375 1214 379 1222 l 300 1072 q 279 1060 293 1060 l 183 1060 m 386 1060 q 374 1065 376 1060 q 375 1079 371 1071 l 450 1221 q 471 1233 456 1233 l 568 1233 q 581 1228 578 1233 q 579 1214 583 1222 l 503 1071 q 482 1060 497 1060 l 386 1060 z "},"Ō":{"ha":649,"x_min":58,"x_max":590,"o":"m 324 -11 q 131 61 204 -11 q 58 253 58 133 l 58 719 q 131 911 58 839 q 324 983 204 983 q 517 911 443 983 q 590 719 590 839 l 590 253 q 517 61 590 133 q 324 -11 443 -11 m 324 128 q 400 160 371 128 q 429 246 429 193 l 429 726 q 400 812 429 779 q 324 844 371 844 q 248 812 276 844 q 219 726 219 779 l 219 246 q 248 160 219 193 q 324 128 276 128 m 188 1075 q 176 1080 181 1075 q 171 1092 171 1085 l 171 1169 q 176 1181 171 1176 q 188 1186 181 1186 l 451 1186 q 463 1181 458 1186 q 468 1169 468 1176 l 468 1092 q 463 1080 468 1085 q 451 1075 458 1075 l 188 1075 z "},"Ø":{"ha":829,"x_min":39,"x_max":611,"o":"m 597 988 q 604 965 611 979 l 561 865 q 561 857 560 860 q 593 719 593 797 l 593 253 q 519 61 593 133 q 326 -11 446 -11 q 188 21 247 -11 q 178 18 181 25 l 146 -51 q 124 -58 140 -65 l 53 -22 q 46 0 39 -15 l 93 107 q 93 115 94 113 q 61 253 61 175 l 61 719 q 134 911 61 839 q 326 983 207 983 q 467 950 408 983 q 476 953 474 946 l 508 1022 q 517 1032 511 1029 q 531 1029 524 1035 l 597 988 m 222 410 q 225 404 222 404 q 231 408 228 404 l 407 799 q 406 808 410 804 q 326 844 376 844 q 251 812 279 844 q 222 726 222 779 l 222 410 m 432 563 q 429 568 432 568 q 424 564 426 568 l 247 174 q 249 164 244 168 q 326 128 278 128 q 403 160 374 128 q 432 246 432 193 l 432 563 z "},"Õ":{"ha":649,"x_min":58,"x_max":590,"o":"m 324 -11 q 131 61 204 -11 q 58 253 58 133 l 58 719 q 131 911 58 839 q 324 983 204 983 q 517 911 443 983 q 590 719 590 839 l 590 253 q 517 61 590 133 q 324 -11 443 -11 m 324 128 q 400 160 371 128 q 429 246 429 193 l 429 726 q 400 812 429 779 q 324 844 371 844 q 248 812 276 844 q 219 726 219 779 l 219 246 q 248 160 219 193 q 324 128 276 128 m 414 1086 q 379 1092 396 1086 q 339 1113 363 1099 q 318 1125 329 1118 q 299 1135 307 1132 q 279 1139 290 1139 q 226 1107 247 1139 q 203 1101 217 1093 l 158 1133 q 151 1156 146 1142 q 201 1222 171 1200 q 267 1243 231 1243 q 308 1235 289 1243 q 353 1211 328 1226 q 369 1201 358 1208 q 391 1189 381 1193 q 413 1185 401 1185 q 465 1215 446 1185 q 488 1222 474 1232 l 532 1192 q 539 1178 539 1188 q 533 1160 539 1169 q 477 1103 510 1121 q 414 1086 444 1086 z "},"Œ":{"ha":958,"x_min":58,"x_max":914,"o":"m 914 850 q 909 838 914 843 q 897 833 904 833 l 597 833 q 590 826 590 833 l 590 564 q 597 557 590 557 l 775 557 q 787 552 782 557 q 792 540 792 547 l 792 433 q 787 422 792 426 q 775 417 782 417 l 597 417 q 590 410 590 417 l 590 146 q 597 139 590 139 l 897 139 q 909 134 904 139 q 914 122 914 129 l 914 17 q 909 5 914 10 q 897 0 904 0 l 446 0 q 434 5 439 0 q 429 17 429 10 l 429 33 q 426 38 429 38 q 421 36 424 39 q 285 -11 367 -11 q 172 22 224 -11 q 90 115 121 56 q 58 253 58 175 l 58 719 q 90 857 58 797 q 172 950 121 917 q 285 983 224 983 q 421 936 367 983 q 426 934 424 933 q 429 939 429 935 l 429 956 q 434 967 429 963 q 446 972 439 972 l 897 972 q 909 967 904 972 q 914 956 914 963 l 914 850 m 324 128 q 400 160 371 128 q 429 246 429 193 l 429 726 q 400 812 429 779 q 324 844 371 844 q 248 812 276 844 q 219 726 219 779 l 219 246 q 248 160 219 193 q 324 128 276 128 z "},"P":{"ha":635,"x_min":74,"x_max":600,"o":"m 351 974 q 481 938 425 974 q 569 836 538 901 q 600 688 600 771 q 534 486 600 563 q 360 410 468 410 l 242 410 q 235 403 235 410 l 235 17 q 230 5 235 10 q 218 0 225 0 l 90 0 q 78 5 83 0 q 74 17 74 10 l 74 957 q 78 969 74 964 q 90 974 83 974 l 351 974 m 325 536 q 408 576 376 536 q 439 683 439 615 q 408 794 439 753 q 325 835 376 835 l 242 835 q 235 828 235 835 l 235 543 q 242 536 235 536 l 325 536 z "},"Þ":{"ha":635,"x_min":74,"x_max":600,"o":"m 351 771 q 481 735 424 771 q 569 633 538 699 q 600 483 600 568 q 533 281 600 357 q 358 204 467 204 l 242 204 q 235 197 235 204 l 235 17 q 230 5 235 10 q 218 0 225 0 l 90 0 q 78 5 83 0 q 74 17 74 10 l 74 956 q 78 967 74 963 q 90 972 83 972 l 218 972 q 230 967 225 972 q 235 956 235 963 l 235 778 q 242 771 235 771 l 351 771 m 325 333 q 408 373 376 333 q 439 481 439 413 q 408 590 439 550 q 325 631 376 631 l 242 631 q 235 624 235 631 l 235 340 q 242 333 235 333 l 325 333 z "},"Q":{"ha":632,"x_min":58,"x_max":574,"o":"m 315 983 q 503 908 432 983 q 574 713 574 833 l 574 260 q 528 95 574 164 q 401 1 482 26 q 396 -6 396 0 l 396 -128 q 391 -140 396 -135 q 379 -144 386 -144 l 251 -144 q 240 -140 244 -144 q 235 -128 235 -135 l 235 -6 q 229 1 235 0 q 104 96 150 28 q 58 260 58 164 l 58 713 q 129 908 58 833 q 315 983 200 983 m 413 729 q 385 813 413 781 q 315 844 358 844 q 246 813 272 844 q 219 729 219 781 l 219 243 q 246 160 219 192 q 315 128 272 128 q 385 160 358 128 q 413 243 413 192 l 413 729 z "},"R":{"ha":640,"x_min":75,"x_max":608,"o":"m 460 0 q 442 14 446 0 l 324 413 q 317 418 321 418 l 243 418 q 236 411 236 418 l 236 17 q 231 5 236 10 q 219 0 226 0 l 92 0 q 80 5 85 0 q 75 17 75 10 l 75 956 q 80 967 75 963 q 92 972 85 972 l 353 972 q 483 937 426 972 q 570 837 539 901 q 601 689 601 772 q 568 540 601 603 q 475 446 535 478 q 471 438 469 444 l 607 19 q 608 13 608 17 q 593 0 608 0 l 460 0 m 243 833 q 236 826 236 833 l 236 550 q 243 543 236 543 l 328 543 q 409 582 378 543 q 440 688 440 621 q 409 794 440 754 q 328 833 378 833 l 243 833 z "},"Ŕ":{"ha":640,"x_min":75,"x_max":608,"o":"m 460 0 q 442 14 446 0 l 324 413 q 317 418 321 418 l 243 418 q 236 411 236 418 l 236 17 q 231 5 236 10 q 219 0 226 0 l 92 0 q 80 5 85 0 q 75 17 75 10 l 75 956 q 80 967 75 963 q 92 972 85 972 l 353 972 q 483 937 426 972 q 570 837 539 901 q 601 689 601 772 q 568 540 601 603 q 475 446 535 478 q 471 438 469 444 l 607 19 q 608 13 608 17 q 593 0 608 0 l 460 0 m 243 833 q 236 826 236 833 l 236 550 q 243 543 236 543 l 328 543 q 409 582 378 543 q 440 688 440 621 q 409 794 440 754 q 328 833 378 833 l 243 833 m 251 1061 q 238 1067 242 1061 q 239 1081 233 1072 l 321 1224 q 342 1235 326 1235 l 442 1235 q 456 1228 453 1235 q 453 1214 458 1222 l 350 1071 q 331 1061 343 1061 l 251 1061 z "},"Ř":{"ha":640,"x_min":75,"x_max":608,"o":"m 460 0 q 442 14 446 0 l 324 413 q 317 418 321 418 l 243 418 q 236 411 236 418 l 236 17 q 231 5 236 10 q 219 0 226 0 l 92 0 q 80 5 85 0 q 75 17 75 10 l 75 956 q 80 967 75 963 q 92 972 85 972 l 353 972 q 483 937 426 972 q 570 837 539 901 q 601 689 601 772 q 568 540 601 603 q 475 446 535 478 q 471 438 469 444 l 607 19 q 608 13 608 17 q 593 0 608 0 l 460 0 m 243 833 q 236 826 236 833 l 236 550 q 243 543 236 543 l 328 543 q 409 582 378 543 q 440 688 440 621 q 409 794 440 754 q 328 833 378 833 l 243 833 m 140 1215 q 138 1225 138 1224 q 151 1235 138 1235 l 247 1235 q 268 1224 261 1235 l 317 1138 q 325 1138 321 1132 l 372 1224 q 393 1235 379 1235 l 490 1235 q 503 1230 500 1235 q 501 1215 507 1225 l 410 1072 q 390 1061 403 1061 l 247 1061 q 228 1072 233 1061 l 140 1215 z "},"S":{"ha":603,"x_min":44,"x_max":561,"o":"m 304 -11 q 118 58 189 -11 q 47 240 47 128 l 47 276 q 52 288 47 283 q 64 293 57 293 l 190 293 q 202 288 197 293 q 207 276 207 283 l 207 249 q 234 161 207 194 q 304 128 261 128 q 375 159 347 128 q 403 242 403 190 q 388 304 403 278 q 344 354 372 331 q 256 422 317 378 q 144 511 186 472 q 73 605 101 550 q 44 732 44 660 q 114 915 44 847 q 297 983 183 983 q 483 912 413 983 q 554 722 554 840 l 554 689 q 549 677 554 682 q 538 672 544 672 l 413 672 q 401 677 406 672 q 396 689 396 682 l 396 725 q 369 812 396 779 q 297 844 342 844 q 229 815 256 844 q 203 732 203 785 q 231 647 203 682 q 343 551 260 613 q 471 449 428 489 q 538 363 514 410 q 561 250 561 315 q 490 60 561 132 q 304 -11 419 -11 z "},"Ś":{"ha":603,"x_min":44,"x_max":561,"o":"m 304 -11 q 118 58 189 -11 q 47 240 47 128 l 47 276 q 52 288 47 283 q 64 293 57 293 l 190 293 q 202 288 197 293 q 207 276 207 283 l 207 249 q 234 161 207 194 q 304 128 261 128 q 375 159 347 128 q 403 242 403 190 q 388 304 403 278 q 344 354 372 331 q 256 422 317 378 q 144 511 186 472 q 73 605 101 550 q 44 732 44 660 q 114 915 44 847 q 297 983 183 983 q 483 912 413 983 q 554 722 554 840 l 554 689 q 549 677 554 682 q 538 672 544 672 l 413 672 q 401 677 406 672 q 396 689 396 682 l 396 725 q 369 812 396 779 q 297 844 342 844 q 229 815 256 844 q 203 732 203 785 q 231 647 203 682 q 343 551 260 613 q 471 449 428 489 q 538 363 514 410 q 561 250 561 315 q 490 60 561 132 q 304 -11 419 -11 m 233 1061 q 219 1067 224 1061 q 221 1081 215 1072 l 303 1224 q 324 1235 308 1235 l 424 1235 q 438 1228 435 1235 q 435 1214 440 1222 l 332 1071 q 313 1061 325 1061 l 233 1061 z "},"Š":{"ha":603,"x_min":44,"x_max":561,"o":"m 304 -11 q 118 58 189 -11 q 47 240 47 128 l 47 276 q 52 288 47 283 q 64 293 57 293 l 190 293 q 202 288 197 293 q 207 276 207 283 l 207 249 q 234 161 207 194 q 304 128 261 128 q 375 159 347 128 q 403 242 403 190 q 388 304 403 278 q 344 354 372 331 q 256 422 317 378 q 144 511 186 472 q 73 605 101 550 q 44 732 44 660 q 114 915 44 847 q 297 983 183 983 q 483 912 413 983 q 554 722 554 840 l 554 689 q 549 677 554 682 q 538 672 544 672 l 413 672 q 401 677 406 672 q 396 689 396 682 l 396 725 q 369 812 396 779 q 297 844 342 844 q 229 815 256 844 q 203 732 203 785 q 231 647 203 682 q 343 551 260 613 q 471 449 428 489 q 538 363 514 410 q 561 250 561 315 q 490 60 561 132 q 304 -11 419 -11 m 121 1215 q 118 1225 118 1224 q 132 1235 118 1235 l 228 1235 q 249 1224 242 1235 l 297 1138 q 306 1138 301 1132 l 353 1224 q 374 1235 360 1235 l 471 1235 q 484 1230 481 1235 q 482 1215 488 1225 l 390 1072 q 371 1061 383 1061 l 228 1061 q 208 1072 214 1061 l 121 1215 z "},"Ş":{"ha":603,"x_min":44,"x_max":561,"o":"m 561 250 q 508 81 561 149 q 365 -6 456 14 q 363 -14 357 -8 q 415 -137 415 -75 q 381 -230 415 -203 q 297 -257 347 -257 q 240 -249 271 -257 q 228 -229 226 -244 l 235 -181 q 254 -167 236 -164 q 294 -158 278 -171 q 310 -114 310 -144 q 250 -8 310 -65 l 243 -4 q 100 78 153 13 q 47 240 47 144 l 47 276 q 52 288 47 283 q 64 293 57 293 l 190 293 q 202 288 197 293 q 207 276 207 283 l 207 249 q 234 161 207 194 q 304 128 261 128 q 375 159 347 128 q 403 242 403 190 q 388 304 403 278 q 344 354 372 331 q 256 422 317 378 q 144 511 186 472 q 73 605 101 550 q 44 732 44 660 q 114 915 44 847 q 297 983 183 983 q 483 912 413 983 q 554 722 554 840 l 554 689 q 549 677 554 682 q 538 672 544 672 l 413 672 q 401 677 406 672 q 396 689 396 682 l 396 725 q 369 812 396 779 q 297 844 342 844 q 229 815 256 844 q 203 732 203 785 q 231 647 203 682 q 343 551 260 613 q 471 449 428 489 q 538 363 514 410 q 561 250 561 315 z "},"Ŝ":{"ha":603,"x_min":44,"x_max":561,"o":"m 304 -11 q 118 58 189 -11 q 47 240 47 128 l 47 276 q 52 288 47 283 q 64 293 57 293 l 190 293 q 202 288 197 293 q 207 276 207 283 l 207 249 q 234 161 207 194 q 304 128 261 128 q 375 159 347 128 q 403 242 403 190 q 388 304 403 278 q 344 354 372 331 q 256 422 317 378 q 144 511 186 472 q 73 605 101 550 q 44 732 44 660 q 114 915 44 847 q 297 983 183 983 q 483 912 413 983 q 554 722 554 840 l 554 689 q 549 677 554 682 q 538 672 544 672 l 413 672 q 401 677 406 672 q 396 689 396 682 l 396 725 q 369 812 396 779 q 297 844 342 844 q 229 815 256 844 q 203 732 203 785 q 231 647 203 682 q 343 551 260 613 q 471 449 428 489 q 538 363 514 410 q 561 250 561 315 q 490 60 561 132 q 304 -11 419 -11 m 125 1061 q 112 1066 115 1061 q 114 1081 108 1071 l 201 1224 q 221 1235 207 1235 l 364 1235 q 383 1224 376 1235 l 475 1081 q 478 1071 478 1072 q 464 1061 478 1061 l 367 1061 q 346 1072 353 1061 l 299 1160 q 290 1160 294 1167 l 242 1072 q 221 1061 235 1061 l 125 1061 z "},"Ə":{"ha":742,"x_min":53,"x_max":683,"o":"m 368 983 q 535 946 464 983 q 644 840 606 908 q 683 682 683 772 l 683 286 q 644 130 683 199 q 534 23 606 61 q 368 -15 463 -15 q 201 23 272 -15 q 91 130 129 61 q 53 286 53 199 l 53 522 q 58 534 53 529 q 69 539 63 539 l 515 539 q 522 546 522 539 l 522 671 q 479 795 522 747 q 368 843 436 843 q 274 808 311 843 q 224 713 236 772 q 206 699 219 699 l 74 704 q 58 722 56 704 q 152 915 72 846 q 368 983 232 983 m 368 125 q 479 174 436 125 q 522 299 522 222 l 522 392 q 515 399 522 399 l 219 399 q 213 392 213 399 l 213 299 q 256 174 213 222 q 368 125 300 125 z "},"T":{"ha":628,"x_min":39,"x_max":590,"o":"m 574 972 q 585 967 581 972 q 590 956 590 963 l 590 850 q 585 838 590 843 q 574 833 581 833 l 397 833 q 390 826 390 833 l 390 17 q 385 5 390 10 q 374 0 381 0 l 246 0 q 234 5 239 0 q 229 17 229 10 l 229 826 q 222 833 229 833 l 56 833 q 44 838 49 833 q 39 850 39 843 l 39 956 q 44 967 39 963 q 56 972 49 972 l 574 972 z "},"Ŧ":{"ha":628,"x_min":39,"x_max":590,"o":"m 590 850 q 585 838 590 843 q 574 833 581 833 l 397 833 q 390 826 390 833 l 390 579 q 397 572 390 572 l 478 572 q 490 567 485 572 q 494 556 494 563 l 494 490 q 490 478 494 483 q 478 474 485 474 l 397 474 q 390 467 390 474 l 390 17 q 385 5 390 10 q 374 0 381 0 l 246 0 q 234 5 239 0 q 229 17 229 10 l 229 467 q 222 474 229 474 l 125 474 q 113 478 118 474 q 108 490 108 483 l 108 556 q 113 567 108 563 q 125 572 118 572 l 222 572 q 229 579 229 572 l 229 826 q 222 833 229 833 l 56 833 q 44 838 49 833 q 39 850 39 843 l 39 956 q 44 967 39 963 q 56 972 49 972 l 574 972 q 585 967 581 972 q 590 956 590 963 l 590 850 z "},"Ť":{"ha":628,"x_min":39,"x_max":590,"o":"m 574 972 q 585 967 581 972 q 590 956 590 963 l 590 850 q 585 838 590 843 q 574 833 581 833 l 397 833 q 390 826 390 833 l 390 17 q 385 5 390 10 q 374 0 381 0 l 246 0 q 234 5 239 0 q 229 17 229 10 l 229 826 q 222 833 229 833 l 56 833 q 44 838 49 833 q 39 850 39 843 l 39 956 q 44 967 39 963 q 56 972 49 972 l 574 972 z "},"U":{"ha":664,"x_min":69,"x_max":594,"o":"m 332 -11 q 141 66 213 -11 q 69 269 69 143 l 69 956 q 74 967 69 963 q 86 972 79 972 l 214 972 q 226 967 221 972 q 231 956 231 963 l 231 253 q 258 163 231 197 q 332 128 286 128 q 406 163 378 128 q 433 253 433 197 l 433 956 q 438 967 433 963 q 450 972 443 972 l 578 972 q 590 967 585 972 q 594 956 594 963 l 594 269 q 522 66 594 143 q 332 -11 450 -11 z "},"Ú":{"ha":664,"x_min":69,"x_max":594,"o":"m 332 -11 q 141 66 213 -11 q 69 269 69 143 l 69 956 q 74 967 69 963 q 86 972 79 972 l 214 972 q 226 967 221 972 q 231 956 231 963 l 231 253 q 258 163 231 197 q 332 128 286 128 q 406 163 378 128 q 433 253 433 197 l 433 956 q 438 967 433 963 q 450 972 443 972 l 578 972 q 590 967 585 972 q 594 956 594 963 l 594 269 q 522 66 594 143 q 332 -11 450 -11 m 268 1061 q 254 1067 258 1061 q 256 1081 250 1072 l 338 1224 q 358 1235 343 1235 l 458 1235 q 472 1228 469 1235 q 469 1214 475 1222 l 367 1071 q 347 1061 360 1061 l 268 1061 z "},"Ŭ":{"ha":664,"x_min":69,"x_max":594,"o":"m 332 -11 q 141 66 213 -11 q 69 269 69 143 l 69 956 q 74 967 69 963 q 86 972 79 972 l 214 972 q 226 967 221 972 q 231 956 231 963 l 231 253 q 258 163 231 197 q 332 128 286 128 q 406 163 378 128 q 433 253 433 197 l 433 956 q 438 967 433 963 q 450 972 443 972 l 578 972 q 590 967 585 972 q 594 956 594 963 l 594 269 q 522 66 594 143 q 332 -11 450 -11 m 332 1054 q 222 1093 265 1054 q 174 1196 179 1132 l 174 1199 q 189 1213 174 1213 l 243 1213 q 261 1196 258 1213 q 285 1147 265 1165 q 332 1128 304 1128 q 378 1147 358 1128 q 403 1196 397 1165 q 421 1213 404 1213 l 475 1213 q 490 1196 492 1213 q 441 1093 485 1132 q 332 1054 397 1054 z "},"Û":{"ha":664,"x_min":69,"x_max":594,"o":"m 332 -11 q 141 66 213 -11 q 69 269 69 143 l 69 956 q 74 967 69 963 q 86 972 79 972 l 214 972 q 226 967 221 972 q 231 956 231 963 l 231 253 q 258 163 231 197 q 332 128 286 128 q 406 163 378 128 q 433 253 433 197 l 433 956 q 438 967 433 963 q 450 972 443 972 l 578 972 q 590 967 585 972 q 594 956 594 963 l 594 269 q 522 66 594 143 q 332 -11 450 -11 m 161 1061 q 148 1066 151 1061 q 150 1081 144 1071 l 238 1224 q 257 1235 243 1235 l 400 1235 q 419 1224 413 1235 l 511 1081 q 514 1071 514 1072 q 500 1061 514 1061 l 403 1061 q 382 1072 389 1061 l 335 1160 q 326 1160 331 1167 l 278 1072 q 257 1061 271 1061 l 161 1061 z "},"Ü":{"ha":664,"x_min":69,"x_max":594,"o":"m 332 -11 q 141 66 213 -11 q 69 269 69 143 l 69 956 q 74 967 69 963 q 86 972 79 972 l 214 972 q 226 967 221 972 q 231 956 231 963 l 231 253 q 258 163 231 197 q 332 128 286 128 q 406 163 378 128 q 433 253 433 197 l 433 956 q 438 967 433 963 q 450 972 443 972 l 578 972 q 590 967 585 972 q 594 956 594 963 l 594 269 q 522 66 594 143 q 332 -11 450 -11 z "},"Ụ":{"ha":664,"x_min":69,"x_max":594,"o":"m 332 -11 q 141 66 213 -11 q 69 269 69 143 l 69 956 q 74 967 69 963 q 86 972 79 972 l 214 972 q 226 967 221 972 q 231 956 231 963 l 231 253 q 258 163 231 197 q 332 128 286 128 q 406 163 378 128 q 433 253 433 197 l 433 956 q 438 967 433 963 q 450 972 443 972 l 578 972 q 590 967 585 972 q 594 956 594 963 l 594 269 q 522 66 594 143 q 332 -11 450 -11 m 333 -310 q 265 -283 292 -310 q 239 -215 239 -256 q 265 -149 239 -175 q 333 -122 292 -122 q 400 -149 374 -122 q 426 -215 426 -175 q 400 -283 426 -256 q 333 -310 374 -310 z "},"Ù":{"ha":664,"x_min":69,"x_max":594,"o":"m 332 -11 q 141 66 213 -11 q 69 269 69 143 l 69 956 q 74 967 69 963 q 86 972 79 972 l 214 972 q 226 967 221 972 q 231 956 231 963 l 231 253 q 258 163 231 197 q 332 128 286 128 q 406 163 378 128 q 433 253 433 197 l 433 956 q 438 967 433 963 q 450 972 443 972 l 578 972 q 590 967 585 972 q 594 956 594 963 l 594 269 q 522 66 594 143 q 332 -11 450 -11 m 383 1072 q 368 1061 383 1061 l 288 1061 q 268 1072 275 1061 l 167 1214 q 163 1224 163 1221 q 178 1235 163 1235 l 278 1235 q 299 1224 293 1235 l 381 1081 l 383 1072 z "},"Ủ":{"ha":664,"x_min":69,"x_max":594,"o":"m 332 -11 q 141 66 213 -11 q 69 269 69 143 l 69 956 q 74 967 69 963 q 86 972 79 972 l 214 972 q 226 967 221 972 q 231 956 231 963 l 231 253 q 258 163 231 197 q 332 128 286 128 q 406 163 378 128 q 433 253 433 197 l 433 956 q 438 967 433 963 q 450 972 443 972 l 578 972 q 590 967 585 972 q 594 956 594 963 l 594 269 q 522 66 594 143 q 332 -11 450 -11 m 318 1032 q 307 1053 299 1036 q 351 1119 321 1086 q 374 1147 367 1135 q 381 1179 381 1160 q 367 1206 381 1194 q 336 1218 354 1218 q 301 1209 315 1218 q 268 1175 288 1200 q 254 1167 263 1167 q 244 1171 249 1167 l 208 1197 q 204 1221 196 1208 q 263 1281 233 1263 q 339 1299 293 1299 q 434 1266 399 1299 q 469 1179 469 1233 q 456 1127 469 1149 q 417 1078 443 1106 q 381 1035 389 1050 q 358 1024 374 1021 l 318 1032 z "},"Ư":{"ha":664,"x_min":69,"x_max":704,"o":"m 688 1088 q 704 1071 704 1088 q 672 969 700 1008 q 600 911 644 929 q 594 904 594 910 l 594 269 q 522 66 594 143 q 332 -11 450 -11 q 141 66 213 -11 q 69 269 69 143 l 69 956 q 74 967 69 963 q 86 972 79 972 l 214 972 q 226 967 221 972 q 231 956 231 963 l 231 253 q 258 163 231 197 q 332 128 286 128 q 406 163 378 128 q 433 253 433 197 l 433 956 q 438 967 433 963 q 450 972 443 972 l 528 972 q 587 996 561 972 q 617 1071 613 1019 q 633 1088 617 1088 l 688 1088 z "},"Ứ":{"ha":664,"x_min":69,"x_max":704,"o":"m 688 1088 q 704 1071 704 1088 q 672 969 700 1008 q 600 911 644 929 q 594 904 594 910 l 594 269 q 522 66 594 143 q 332 -11 450 -11 q 141 66 213 -11 q 69 269 69 143 l 69 956 q 74 967 69 963 q 86 972 79 972 l 214 972 q 226 967 221 972 q 231 956 231 963 l 231 253 q 258 163 231 197 q 332 128 286 128 q 406 163 378 128 q 433 253 433 197 l 433 956 q 438 967 433 963 q 450 972 443 972 l 528 972 q 587 996 561 972 q 617 1071 613 1019 q 633 1088 617 1088 l 688 1088 m 268 1061 q 254 1067 258 1061 q 256 1081 250 1072 l 338 1224 q 358 1235 343 1235 l 458 1235 q 472 1228 469 1235 q 469 1214 475 1222 l 367 1071 q 347 1061 360 1061 l 268 1061 z "},"Ự":{"ha":664,"x_min":69,"x_max":704,"o":"m 688 1088 q 704 1071 704 1088 q 672 969 700 1008 q 600 911 644 929 q 594 904 594 910 l 594 269 q 522 66 594 143 q 332 -11 450 -11 q 141 66 213 -11 q 69 269 69 143 l 69 956 q 74 967 69 963 q 86 972 79 972 l 214 972 q 226 967 221 972 q 231 956 231 963 l 231 253 q 258 163 231 197 q 332 128 286 128 q 406 163 378 128 q 433 253 433 197 l 433 956 q 438 967 433 963 q 450 972 443 972 l 528 972 q 587 996 561 972 q 617 1071 613 1019 q 633 1088 617 1088 l 688 1088 m 333 -310 q 265 -283 292 -310 q 239 -215 239 -256 q 265 -149 239 -175 q 333 -122 292 -122 q 400 -149 374 -122 q 426 -215 426 -175 q 400 -283 426 -256 q 333 -310 374 -310 z "},"Ừ":{"ha":664,"x_min":69,"x_max":704,"o":"m 688 1088 q 704 1071 704 1088 q 672 969 700 1008 q 600 911 644 929 q 594 904 594 910 l 594 269 q 522 66 594 143 q 332 -11 450 -11 q 141 66 213 -11 q 69 269 69 143 l 69 956 q 74 967 69 963 q 86 972 79 972 l 214 972 q 226 967 221 972 q 231 956 231 963 l 231 253 q 258 163 231 197 q 332 128 286 128 q 406 163 378 128 q 433 253 433 197 l 433 956 q 438 967 433 963 q 450 972 443 972 l 528 972 q 587 996 561 972 q 617 1071 613 1019 q 633 1088 617 1088 l 688 1088 m 383 1072 q 368 1061 383 1061 l 288 1061 q 268 1072 275 1061 l 167 1214 q 163 1224 163 1221 q 178 1235 163 1235 l 278 1235 q 299 1224 293 1235 l 381 1081 l 383 1072 z "},"Ử":{"ha":664,"x_min":69,"x_max":704,"o":"m 688 1088 q 704 1071 704 1088 q 672 969 700 1008 q 600 911 644 929 q 594 904 594 910 l 594 269 q 522 66 594 143 q 332 -11 450 -11 q 141 66 213 -11 q 69 269 69 143 l 69 956 q 74 967 69 963 q 86 972 79 972 l 214 972 q 226 967 221 972 q 231 956 231 963 l 231 253 q 258 163 231 197 q 332 128 286 128 q 406 163 378 128 q 433 253 433 197 l 433 956 q 438 967 433 963 q 450 972 443 972 l 528 972 q 587 996 561 972 q 617 1071 613 1019 q 633 1088 617 1088 l 688 1088 m 318 1032 q 307 1053 299 1036 q 351 1119 321 1086 q 374 1147 367 1135 q 381 1179 381 1160 q 367 1206 381 1194 q 336 1218 354 1218 q 301 1209 315 1218 q 268 1175 288 1200 q 254 1167 263 1167 q 244 1171 249 1167 l 208 1197 q 204 1221 196 1208 q 263 1281 233 1263 q 339 1299 293 1299 q 434 1266 399 1299 q 469 1179 469 1233 q 456 1127 469 1149 q 417 1078 443 1106 q 381 1035 389 1050 q 358 1024 374 1021 l 318 1032 z "},"Ữ":{"ha":664,"x_min":69,"x_max":704,"o":"m 688 1088 q 704 1071 704 1088 q 672 969 700 1008 q 600 911 644 929 q 594 904 594 910 l 594 269 q 522 66 594 143 q 332 -11 450 -11 q 141 66 213 -11 q 69 269 69 143 l 69 956 q 74 967 69 963 q 86 972 79 972 l 214 972 q 226 967 221 972 q 231 956 231 963 l 231 253 q 258 163 231 197 q 332 128 286 128 q 406 163 378 128 q 433 253 433 197 l 433 956 q 438 967 433 963 q 450 972 443 972 l 528 972 q 587 996 561 972 q 617 1071 613 1019 q 633 1088 617 1088 l 688 1088 m 422 1088 q 388 1094 404 1088 q 347 1114 371 1100 q 326 1126 338 1119 q 307 1137 315 1133 q 288 1140 299 1140 q 235 1108 256 1140 q 211 1103 225 1094 l 167 1135 q 160 1157 154 1143 q 209 1223 179 1201 q 275 1244 239 1244 q 317 1236 297 1244 q 361 1213 336 1228 q 378 1202 367 1210 q 399 1190 389 1194 q 421 1186 410 1186 q 474 1217 454 1186 q 496 1224 482 1233 l 540 1193 q 547 1179 547 1189 q 542 1161 547 1171 q 485 1105 518 1122 q 422 1088 453 1088 z "},"Ű":{"ha":664,"x_min":69,"x_max":594,"o":"m 332 -11 q 141 66 213 -11 q 69 269 69 143 l 69 956 q 74 967 69 963 q 86 972 79 972 l 214 972 q 226 967 221 972 q 231 956 231 963 l 231 253 q 258 163 231 197 q 332 128 286 128 q 406 163 378 128 q 433 253 433 197 l 433 956 q 438 967 433 963 q 450 972 443 972 l 578 972 q 590 967 585 972 q 594 956 594 963 l 594 269 q 522 66 594 143 q 332 -11 450 -11 m 192 1061 q 178 1066 182 1061 q 179 1081 175 1071 l 249 1222 q 268 1235 254 1235 l 372 1235 q 385 1229 382 1235 q 383 1215 388 1224 l 308 1074 q 288 1061 301 1061 l 192 1061 m 394 1061 q 382 1067 385 1061 q 383 1081 379 1072 l 458 1222 q 479 1235 464 1235 l 576 1235 q 589 1229 586 1235 q 588 1215 592 1224 l 511 1072 q 490 1061 506 1061 l 394 1061 z "},"Ū":{"ha":664,"x_min":69,"x_max":594,"o":"m 332 -11 q 141 66 213 -11 q 69 269 69 143 l 69 956 q 74 967 69 963 q 86 972 79 972 l 214 972 q 226 967 221 972 q 231 956 231 963 l 231 253 q 258 163 231 197 q 332 128 286 128 q 406 163 378 128 q 433 253 433 197 l 433 956 q 438 967 433 963 q 450 972 443 972 l 578 972 q 590 967 585 972 q 594 956 594 963 l 594 269 q 522 66 594 143 q 332 -11 450 -11 m 196 1076 q 184 1081 189 1076 q 179 1093 179 1086 l 179 1171 q 184 1183 179 1178 q 196 1188 189 1188 l 460 1188 q 472 1183 467 1188 q 476 1171 476 1178 l 476 1093 q 472 1081 476 1086 q 460 1076 467 1076 l 196 1076 z "},"Ų":{"ha":664,"x_min":69,"x_max":594,"o":"m 433 956 q 438 967 433 963 q 450 972 443 972 l 578 972 q 590 967 585 972 q 594 956 594 963 l 594 269 q 538 85 594 158 q 386 -6 482 11 l 379 -10 q 326 -108 326 -62 q 342 -152 326 -139 q 382 -161 358 -165 l 386 -161 q 401 -175 400 -161 l 408 -224 l 408 -228 q 396 -243 408 -239 q 339 -251 365 -251 q 254 -224 289 -251 q 219 -132 219 -197 q 268 -12 219 -71 q 270 -7 271 -10 q 265 -4 269 -4 q 122 89 174 17 q 69 269 69 161 l 69 956 q 74 967 69 963 q 86 972 79 972 l 214 972 q 226 967 221 972 q 231 956 231 963 l 231 253 q 258 163 231 197 q 332 128 286 128 q 406 163 378 128 q 433 253 433 197 l 433 956 z "},"Ů":{"ha":664,"x_min":69,"x_max":594,"o":"m 332 -11 q 141 66 213 -11 q 69 269 69 143 l 69 956 q 74 967 69 963 q 86 972 79 972 l 214 972 q 226 967 221 972 q 231 956 231 963 l 231 253 q 258 163 231 197 q 332 128 286 128 q 406 163 378 128 q 433 253 433 197 l 433 956 q 438 967 433 963 q 450 972 443 972 l 578 972 q 590 967 585 972 q 594 956 594 963 l 594 269 q 522 66 594 143 q 332 -11 450 -11 m 332 1051 q 215 1099 263 1051 q 168 1217 168 1147 q 215 1333 168 1286 q 332 1381 263 1381 q 447 1333 400 1381 q 494 1217 494 1286 q 447 1099 494 1147 q 332 1051 400 1051 m 332 1139 q 385 1162 363 1139 q 407 1217 407 1185 q 385 1272 407 1250 q 332 1294 363 1294 q 278 1272 300 1294 q 256 1217 256 1250 q 278 1162 256 1185 q 332 1139 300 1139 z "},"Ũ":{"ha":664,"x_min":69,"x_max":594,"o":"m 332 -11 q 141 66 213 -11 q 69 269 69 143 l 69 956 q 74 967 69 963 q 86 972 79 972 l 214 972 q 226 967 221 972 q 231 956 231 963 l 231 253 q 258 163 231 197 q 332 128 286 128 q 406 163 378 128 q 433 253 433 197 l 433 956 q 438 967 433 963 q 450 972 443 972 l 578 972 q 590 967 585 972 q 594 956 594 963 l 594 269 q 522 66 594 143 q 332 -11 450 -11 m 422 1088 q 388 1094 404 1088 q 347 1114 371 1100 q 326 1126 338 1119 q 307 1137 315 1133 q 288 1140 299 1140 q 235 1108 256 1140 q 211 1103 225 1094 l 167 1135 q 160 1157 154 1143 q 209 1223 179 1201 q 275 1244 239 1244 q 317 1236 297 1244 q 361 1213 336 1228 q 378 1202 367 1210 q 399 1190 389 1194 q 421 1186 410 1186 q 474 1217 454 1186 q 496 1224 482 1233 l 540 1193 q 547 1179 547 1189 q 542 1161 547 1171 q 485 1105 518 1122 q 422 1088 453 1088 z "},"V":{"ha":654,"x_min":38,"x_max":619,"o":"m 256 0 q 238 15 240 0 l 39 954 l 38 960 q 53 972 38 972 l 193 972 q 211 957 210 972 l 326 289 q 331 285 328 285 q 335 289 333 285 l 447 957 q 465 972 449 972 l 601 972 q 615 954 619 972 l 415 15 q 397 0 413 0 l 256 0 z "},"W":{"ha":924,"x_min":32,"x_max":894,"o":"m 236 0 q 218 15 219 0 l 33 954 l 32 960 q 47 972 32 972 l 181 972 q 199 957 197 972 l 296 378 q 300 374 297 374 q 304 378 303 374 l 392 957 q 410 972 393 972 l 521 972 q 539 957 538 972 l 633 378 q 638 374 635 374 q 642 378 640 374 l 729 957 q 747 972 731 972 l 876 972 q 892 954 894 972 l 715 15 q 697 0 714 0 l 579 0 q 561 15 563 0 l 468 606 q 464 611 467 611 q 460 606 461 611 l 374 15 q 356 0 372 0 l 236 0 z "},"Ẃ":{"ha":914,"x_min":32,"x_max":894,"o":"m 236 0 q 218 15 219 0 l 33 954 l 32 960 q 47 972 32 972 l 181 972 q 199 957 197 972 l 296 378 q 300 374 297 374 q 304 378 303 374 l 392 957 q 410 972 393 972 l 521 972 q 539 957 538 972 l 633 378 q 638 374 635 374 q 642 378 640 374 l 729 957 q 747 972 731 972 l 876 972 q 892 954 894 972 l 715 15 q 697 0 714 0 l 579 0 q 561 15 563 0 l 468 606 q 464 611 467 611 q 460 606 461 611 l 374 15 q 356 0 372 0 l 236 0 m 392 1061 q 378 1067 382 1061 q 379 1081 374 1072 l 461 1224 q 482 1235 467 1235 l 582 1235 q 596 1228 593 1235 q 593 1214 599 1222 l 490 1071 q 471 1061 483 1061 l 392 1061 z "},"Ŵ":{"ha":914,"x_min":32,"x_max":894,"o":"m 236 0 q 218 15 219 0 l 33 954 l 32 960 q 47 972 32 972 l 181 972 q 199 957 197 972 l 296 378 q 300 374 297 374 q 304 378 303 374 l 392 957 q 410 972 393 972 l 521 972 q 539 957 538 972 l 633 378 q 638 374 635 374 q 642 378 640 374 l 729 957 q 747 972 731 972 l 876 972 q 892 954 894 972 l 715 15 q 697 0 714 0 l 579 0 q 561 15 563 0 l 468 606 q 464 611 467 611 q 460 606 461 611 l 374 15 q 356 0 372 0 l 236 0 m 283 1061 q 270 1066 274 1061 q 272 1081 267 1071 l 360 1224 q 379 1235 365 1235 l 522 1235 q 542 1224 535 1235 l 633 1081 q 636 1071 636 1072 q 622 1061 636 1061 l 525 1061 q 504 1072 511 1061 l 457 1160 q 449 1160 453 1167 l 400 1072 q 379 1061 393 1061 l 283 1061 z "},"Ẅ":{"ha":914,"x_min":32,"x_max":894,"o":"m 236 0 q 218 15 219 0 l 33 954 l 32 960 q 47 972 32 972 l 181 972 q 199 957 197 972 l 296 378 q 300 374 297 374 q 304 378 303 374 l 392 957 q 410 972 393 972 l 521 972 q 539 957 538 972 l 633 378 q 638 374 635 374 q 642 378 640 374 l 729 957 q 747 972 731 972 l 876 972 q 892 954 894 972 l 715 15 q 697 0 714 0 l 579 0 q 561 15 563 0 l 468 606 q 464 611 467 611 q 460 606 461 611 l 374 15 q 356 0 372 0 l 236 0 z "},"Ẁ":{"ha":914,"x_min":32,"x_max":894,"o":"m 236 0 q 218 15 219 0 l 33 954 l 32 960 q 47 972 32 972 l 181 972 q 199 957 197 972 l 296 378 q 300 374 297 374 q 304 378 303 374 l 392 957 q 410 972 393 972 l 521 972 q 539 957 538 972 l 633 378 q 638 374 635 374 q 642 378 640 374 l 729 957 q 747 972 731 972 l 876 972 q 892 954 894 972 l 715 15 q 697 0 714 0 l 579 0 q 561 15 563 0 l 468 606 q 464 611 467 611 q 460 606 461 611 l 374 15 q 356 0 372 0 l 236 0 m 506 1072 q 490 1061 506 1061 l 410 1061 q 390 1072 397 1061 l 289 1214 q 285 1224 285 1221 q 300 1235 285 1235 l 400 1235 q 421 1224 415 1235 l 503 1081 l 506 1072 z "},"X":{"ha":639,"x_min":40,"x_max":599,"o":"m 56 0 q 43 6 46 0 q 43 19 40 11 l 233 482 q 233 490 235 486 l 43 953 q 42 961 42 956 q 56 972 42 972 l 188 972 q 206 958 201 972 l 317 657 q 321 653 318 653 q 325 657 324 653 l 435 958 q 453 972 439 972 l 583 972 q 596 967 593 972 q 596 953 599 961 l 406 490 q 406 482 404 486 l 596 19 q 597 11 597 17 q 583 0 597 0 l 454 0 q 435 14 439 0 l 325 314 q 321 318 324 318 q 317 314 318 318 l 206 14 q 186 0 201 0 l 56 0 z "},"Y":{"ha":633,"x_min":40,"x_max":594,"o":"m 253 1 q 241 6 246 1 q 236 18 236 11 l 236 397 l 235 406 l 42 953 q 40 960 40 956 q 56 972 40 972 l 189 972 q 208 958 204 972 l 313 601 q 317 597 314 597 q 321 601 319 597 l 425 958 q 444 972 429 972 l 578 972 q 590 967 586 972 q 592 953 594 963 l 399 406 l 397 397 l 397 18 q 392 6 397 11 q 381 1 388 1 l 253 1 z "},"Ý":{"ha":633,"x_min":40,"x_max":594,"o":"m 253 1 q 241 6 246 1 q 236 18 236 11 l 236 397 l 235 406 l 42 953 q 40 960 40 956 q 56 972 40 972 l 189 972 q 208 958 204 972 l 313 601 q 317 597 314 597 q 321 601 319 597 l 425 958 q 444 972 429 972 l 578 972 q 590 967 586 972 q 592 953 594 963 l 399 406 l 397 397 l 397 18 q 392 6 397 11 q 381 1 388 1 l 253 1 m 253 1061 q 239 1067 243 1061 q 240 1081 235 1072 l 322 1224 q 343 1235 328 1235 l 443 1235 q 457 1228 454 1235 q 454 1214 460 1222 l 351 1071 q 332 1061 344 1061 l 253 1061 z "},"Ŷ":{"ha":633,"x_min":40,"x_max":594,"o":"m 253 1 q 241 6 246 1 q 236 18 236 11 l 236 397 l 235 406 l 42 953 q 40 960 40 956 q 56 972 40 972 l 189 972 q 208 958 204 972 l 313 601 q 317 597 314 597 q 321 601 319 597 l 425 958 q 444 972 429 972 l 578 972 q 590 967 586 972 q 592 953 594 963 l 399 406 l 397 397 l 397 18 q 392 6 397 11 q 381 1 388 1 l 253 1 m 146 1061 q 133 1066 136 1061 q 135 1081 129 1071 l 222 1224 q 242 1235 228 1235 l 385 1235 q 404 1224 397 1235 l 496 1081 q 499 1071 499 1072 q 485 1061 499 1061 l 388 1061 q 367 1072 374 1061 l 319 1160 q 311 1160 315 1167 l 263 1072 q 242 1061 256 1061 l 146 1061 z "},"Ÿ":{"ha":633,"x_min":40,"x_max":594,"o":"m 253 1 q 241 6 246 1 q 236 18 236 11 l 236 397 l 235 406 l 42 953 q 40 960 40 956 q 56 972 40 972 l 189 972 q 208 958 204 972 l 313 601 q 317 597 314 597 q 321 601 319 597 l 425 958 q 444 972 429 972 l 578 972 q 590 967 586 972 q 592 953 594 963 l 399 406 l 397 397 l 397 18 q 392 6 397 11 q 381 1 388 1 l 253 1 z "},"Ỵ":{"ha":633,"x_min":40,"x_max":594,"o":"m 253 1 q 241 6 246 1 q 236 18 236 11 l 236 397 l 235 406 l 42 953 q 40 960 40 956 q 56 972 40 972 l 189 972 q 208 958 204 972 l 313 601 q 317 597 314 597 q 321 601 319 597 l 425 958 q 444 972 429 972 l 578 972 q 590 967 586 972 q 592 953 594 963 l 399 406 l 397 397 l 397 18 q 392 6 397 11 q 381 1 388 1 l 253 1 m 318 -310 q 250 -283 276 -310 q 224 -215 224 -256 q 250 -149 224 -175 q 318 -122 276 -122 q 385 -149 358 -122 q 411 -215 411 -175 q 385 -283 411 -256 q 318 -310 358 -310 z "},"Ỳ":{"ha":633,"x_min":40,"x_max":594,"o":"m 253 1 q 241 6 246 1 q 236 18 236 11 l 236 397 l 235 406 l 42 953 q 40 960 40 956 q 56 972 40 972 l 189 972 q 208 958 204 972 l 313 601 q 317 597 314 597 q 321 601 319 597 l 425 958 q 444 972 429 972 l 578 972 q 590 967 586 972 q 592 953 594 963 l 399 406 l 397 397 l 397 18 q 392 6 397 11 q 381 1 388 1 l 253 1 m 368 1072 q 353 1061 368 1061 l 272 1061 q 253 1072 260 1061 l 151 1214 q 147 1224 147 1221 q 163 1235 147 1235 l 263 1235 q 283 1224 278 1235 l 365 1081 l 368 1072 z "},"Ỷ":{"ha":633,"x_min":40,"x_max":594,"o":"m 253 1 q 241 6 246 1 q 236 18 236 11 l 236 397 l 235 406 l 42 953 q 40 960 40 956 q 56 972 40 972 l 189 972 q 208 958 204 972 l 313 601 q 317 597 314 597 q 321 601 319 597 l 425 958 q 444 972 429 972 l 578 972 q 590 967 586 972 q 592 953 594 963 l 399 406 l 397 397 l 397 18 q 392 6 397 11 q 381 1 388 1 l 253 1 m 303 1032 q 292 1053 283 1036 q 336 1119 306 1086 q 358 1147 351 1135 q 365 1179 365 1160 q 352 1206 365 1194 q 321 1218 339 1218 q 286 1209 300 1218 q 253 1175 272 1200 q 239 1167 247 1167 q 229 1171 233 1167 l 193 1197 q 189 1221 181 1208 q 248 1281 218 1263 q 324 1299 278 1299 q 419 1266 383 1299 q 454 1179 454 1233 q 441 1127 454 1149 q 401 1078 428 1106 q 365 1035 374 1050 q 343 1024 358 1021 l 303 1032 z "},"Ỹ":{"ha":633,"x_min":40,"x_max":594,"o":"m 253 1 q 241 6 246 1 q 236 18 236 11 l 236 397 l 235 406 l 42 953 q 40 960 40 956 q 56 972 40 972 l 189 972 q 208 958 204 972 l 313 601 q 317 597 314 597 q 321 601 319 597 l 425 958 q 444 972 429 972 l 578 972 q 590 967 586 972 q 592 953 594 963 l 399 406 l 397 397 l 397 18 q 392 6 397 11 q 381 1 388 1 l 253 1 m 407 1088 q 372 1094 389 1088 q 332 1114 356 1100 q 311 1126 322 1119 q 292 1137 300 1133 q 272 1140 283 1140 q 219 1108 240 1140 q 196 1103 210 1094 l 151 1135 q 144 1157 139 1143 q 194 1223 164 1201 q 260 1244 224 1244 q 301 1236 282 1244 q 346 1213 321 1228 q 363 1202 351 1210 q 384 1190 374 1194 q 406 1186 394 1186 q 458 1217 439 1186 q 481 1224 467 1233 l 525 1193 q 532 1179 532 1189 q 526 1161 532 1171 q 470 1105 503 1122 q 407 1088 438 1088 z "},"Z":{"ha":564,"x_min":35,"x_max":524,"o":"m 51 0 q 40 5 44 0 q 35 17 35 10 l 35 128 q 39 149 35 139 l 350 825 q 350 831 351 828 q 346 833 349 833 l 51 833 q 40 838 44 833 q 35 850 35 843 l 35 956 q 40 967 35 963 q 51 972 44 972 l 507 972 q 519 967 514 972 q 524 956 524 963 l 524 844 q 519 824 524 835 l 208 147 q 208 142 207 144 q 213 139 210 139 l 507 139 q 519 134 514 139 q 524 122 524 129 l 524 17 q 519 5 524 10 q 507 0 514 0 l 51 0 z "},"Ź":{"ha":564,"x_min":35,"x_max":524,"o":"m 51 0 q 40 5 44 0 q 35 17 35 10 l 35 128 q 39 149 35 139 l 350 825 q 350 831 351 828 q 346 833 349 833 l 51 833 q 40 838 44 833 q 35 850 35 843 l 35 956 q 40 967 35 963 q 51 972 44 972 l 507 972 q 519 967 514 972 q 524 956 524 963 l 524 844 q 519 824 524 835 l 208 147 q 208 142 207 144 q 213 139 210 139 l 507 139 q 519 134 514 139 q 524 122 524 129 l 524 17 q 519 5 524 10 q 507 0 514 0 l 51 0 m 217 1061 q 203 1067 207 1061 q 204 1081 199 1072 l 286 1224 q 307 1235 292 1235 l 407 1235 q 421 1228 418 1235 q 418 1214 424 1222 l 315 1071 q 296 1061 308 1061 l 217 1061 z "},"Ž":{"ha":564,"x_min":35,"x_max":524,"o":"m 51 0 q 40 5 44 0 q 35 17 35 10 l 35 128 q 39 149 35 139 l 350 825 q 350 831 351 828 q 346 833 349 833 l 51 833 q 40 838 44 833 q 35 850 35 843 l 35 956 q 40 967 35 963 q 51 972 44 972 l 507 972 q 519 967 514 972 q 524 956 524 963 l 524 844 q 519 824 524 835 l 208 147 q 208 142 207 144 q 213 139 210 139 l 507 139 q 519 134 514 139 q 524 122 524 129 l 524 17 q 519 5 524 10 q 507 0 514 0 l 51 0 m 104 1215 q 101 1225 101 1224 q 115 1235 101 1235 l 211 1235 q 232 1224 225 1235 l 281 1138 q 289 1138 285 1132 l 336 1224 q 357 1235 343 1235 l 454 1235 q 467 1230 464 1235 q 465 1215 471 1225 l 374 1072 q 354 1061 367 1061 l 211 1061 q 192 1072 197 1061 l 104 1215 z "},"Ż":{"ha":564,"x_min":35,"x_max":524,"o":"m 51 0 q 40 5 44 0 q 35 17 35 10 l 35 128 q 39 149 35 139 l 350 825 q 350 831 351 828 q 346 833 349 833 l 51 833 q 40 838 44 833 q 35 850 35 843 l 35 956 q 40 967 35 963 q 51 972 44 972 l 507 972 q 519 967 514 972 q 524 956 524 963 l 524 844 q 519 824 524 835 l 208 147 q 208 142 207 144 q 213 139 210 139 l 507 139 q 519 134 514 139 q 524 122 524 129 l 524 17 q 519 5 524 10 q 507 0 514 0 l 51 0 m 281 1069 q 210 1097 238 1069 q 182 1168 182 1125 q 210 1239 182 1211 q 281 1267 238 1267 q 351 1239 324 1267 q 378 1168 378 1211 q 350 1097 378 1125 q 281 1069 322 1069 z "},"Ģ":{"ha":640,"x_min":58,"x_max":583,"o":"m 319 -11 q 130 58 201 -11 q 58 240 58 126 l 58 732 q 130 915 58 846 q 319 983 201 983 q 510 915 438 983 q 583 731 583 846 l 583 676 q 578 665 583 669 q 567 660 574 660 l 439 660 q 427 665 432 660 q 422 676 422 669 l 422 733 q 394 814 422 783 q 319 844 365 844 q 246 814 274 844 q 218 733 218 783 l 218 239 q 246 158 218 189 q 319 128 274 128 q 394 158 365 128 q 422 239 422 189 l 422 372 q 415 379 422 379 l 331 379 q 319 384 324 379 q 314 396 314 389 l 314 497 q 319 509 314 504 q 331 514 324 514 l 567 514 q 578 509 574 514 q 583 497 583 504 l 583 240 q 510 58 583 126 q 319 -11 438 -11 z "},"Ķ":{"ha":663,"x_min":75,"x_max":639,"o":"m 92 0 q 80 5 85 0 q 75 17 75 10 l 75 956 q 80 967 75 963 q 92 972 85 972 l 219 972 q 231 967 226 972 q 236 956 236 963 l 236 572 q 239 566 236 567 q 244 569 242 565 l 453 960 q 474 972 460 972 l 611 972 q 624 967 621 972 q 622 953 626 961 l 414 563 q 413 554 413 557 l 638 19 q 639 11 639 17 q 625 0 639 0 l 488 0 q 468 13 472 0 l 304 414 q 300 417 303 418 q 294 414 297 417 l 239 321 q 236 313 236 315 l 236 17 q 231 5 236 10 q 219 0 226 0 l 92 0 z "},"Ņ":{"ha":704,"x_min":75,"x_max":629,"o":"m 469 956 q 474 967 469 963 q 486 972 479 972 l 613 972 q 624 967 619 972 q 629 956 629 963 l 629 17 q 624 5 629 10 q 613 0 619 0 l 467 0 q 449 14 453 0 l 242 603 q 237 606 240 607 q 233 601 233 606 l 235 17 q 230 5 235 10 q 218 0 225 0 l 92 0 q 80 5 85 0 q 75 17 75 10 l 75 956 q 80 967 75 963 q 92 972 85 972 l 235 972 q 253 958 249 972 l 461 374 q 466 370 463 369 q 469 375 469 371 l 469 956 z "},"Ŗ":{"ha":640,"x_min":75,"x_max":608,"o":"m 460 0 q 442 14 446 0 l 324 413 q 317 418 321 418 l 243 418 q 236 411 236 418 l 236 17 q 231 5 236 10 q 219 0 226 0 l 92 0 q 80 5 85 0 q 75 17 75 10 l 75 956 q 80 967 75 963 q 92 972 85 972 l 353 972 q 483 937 426 972 q 570 837 539 901 q 601 689 601 772 q 568 540 601 603 q 475 446 535 478 q 471 438 469 444 l 607 19 q 608 13 608 17 q 593 0 608 0 l 460 0 m 243 833 q 236 826 236 833 l 236 550 q 243 543 236 543 l 328 543 q 409 582 378 543 q 440 688 440 621 q 409 794 440 754 q 328 833 378 833 l 243 833 z "},"Ţ":{"ha":628,"x_min":39,"x_max":590,"o":"m 574 972 q 585 967 581 972 q 590 956 590 963 l 590 850 q 585 838 590 843 q 574 833 581 833 l 397 833 q 390 826 390 833 l 390 17 q 385 5 390 10 q 374 0 381 0 l 246 0 q 234 5 239 0 q 229 17 229 10 l 229 826 q 222 833 229 833 l 56 833 q 44 838 49 833 q 39 850 39 843 l 39 956 q 44 967 39 963 q 56 972 49 972 l 574 972 m 289 -254 q 276 -235 275 -250 l 283 -185 q 303 -172 285 -169 q 342 -163 326 -175 q 358 -122 358 -151 q 304 -21 358 -72 q 297 -8 297 -14 q 301 -3 297 -6 q 311 0 306 0 l 379 0 q 400 -8 392 0 q 463 -144 463 -69 q 460 -178 463 -167 q 417 -243 449 -224 q 344 -262 386 -262 q 289 -254 319 -262 z "},"Ș":{"ha":603,"x_min":44,"x_max":561,"o":"m 304 -11 q 118 58 189 -11 q 47 240 47 128 l 47 276 q 52 288 47 283 q 64 293 57 293 l 190 293 q 202 288 197 293 q 207 276 207 283 l 207 249 q 234 161 207 194 q 304 128 261 128 q 375 159 347 128 q 403 242 403 190 q 388 304 403 278 q 344 354 372 331 q 256 422 317 378 q 144 511 186 472 q 73 605 101 550 q 44 732 44 660 q 114 915 44 847 q 297 983 183 983 q 483 912 413 983 q 554 722 554 840 l 554 689 q 549 677 554 682 q 538 672 544 672 l 413 672 q 401 677 406 672 q 396 689 396 682 l 396 725 q 369 812 396 779 q 297 844 342 844 q 229 815 256 844 q 203 732 203 785 q 231 647 203 682 q 343 551 260 613 q 471 449 428 489 q 538 363 514 410 q 561 250 561 315 q 490 60 561 132 q 304 -11 419 -11 z "},"Ț":{"ha":628,"x_min":39,"x_max":590,"o":"m 574 972 q 585 967 581 972 q 590 956 590 963 l 590 850 q 585 838 590 843 q 574 833 581 833 l 397 833 q 390 826 390 833 l 390 17 q 385 5 390 10 q 374 0 381 0 l 246 0 q 234 5 239 0 q 229 17 229 10 l 229 826 q 222 833 229 833 l 56 833 q 44 838 49 833 q 39 850 39 843 l 39 956 q 44 967 39 963 q 56 972 49 972 l 574 972 z "},"a":{"ha":603,"x_min":40,"x_max":551,"o":"m 306 721 q 483 657 415 721 q 551 489 551 593 l 551 17 q 547 5 551 10 q 535 0 542 0 l 407 0 q 395 5 400 0 q 390 17 390 10 l 390 43 q 388 49 390 47 q 382 46 385 50 q 240 -11 333 -11 q 101 34 161 -11 q 40 199 40 79 q 113 376 40 324 q 311 429 186 429 l 383 429 q 390 436 390 429 l 390 472 q 365 552 390 522 q 303 582 340 582 q 254 563 274 582 q 231 513 235 544 q 213 496 229 496 l 78 496 q 63 513 61 496 q 137 664 69 607 q 306 721 204 721 m 285 122 q 358 149 326 122 q 390 222 390 175 l 390 301 q 383 308 390 308 l 311 308 q 235 283 264 308 q 206 208 206 257 q 228 144 206 165 q 285 122 250 122 z "},"á":{"ha":601,"x_min":40,"x_max":551,"o":"m 306 721 q 483 657 415 721 q 551 489 551 593 l 551 17 q 547 5 551 10 q 535 0 542 0 l 407 0 q 395 5 400 0 q 390 17 390 10 l 390 43 q 388 49 390 47 q 382 46 385 50 q 240 -11 333 -11 q 101 34 161 -11 q 40 199 40 79 q 113 376 40 324 q 311 429 186 429 l 383 429 q 390 436 390 429 l 390 472 q 365 552 390 522 q 303 582 340 582 q 254 563 274 582 q 231 513 235 544 q 213 496 229 496 l 78 496 q 63 513 61 496 q 137 664 69 607 q 306 721 204 721 m 285 122 q 358 149 326 122 q 390 222 390 175 l 390 301 q 383 308 390 308 l 311 308 q 235 283 264 308 q 206 208 206 257 q 228 144 206 165 q 285 122 250 122 m 238 799 q 224 804 228 799 q 225 818 219 810 l 307 961 q 328 972 313 972 l 428 972 q 442 966 439 972 q 439 951 444 960 l 336 808 q 317 799 329 799 l 238 799 z "},"ă":{"ha":601,"x_min":40,"x_max":551,"o":"m 306 721 q 483 657 415 721 q 551 489 551 593 l 551 17 q 547 5 551 10 q 535 0 542 0 l 407 0 q 395 5 400 0 q 390 17 390 10 l 390 43 q 388 49 390 47 q 382 46 385 50 q 240 -11 333 -11 q 101 34 161 -11 q 40 199 40 79 q 113 376 40 324 q 311 429 186 429 l 383 429 q 390 436 390 429 l 390 472 q 365 552 390 522 q 303 582 340 582 q 254 563 274 582 q 231 513 235 544 q 213 496 229 496 l 78 496 q 63 513 61 496 q 137 664 69 607 q 306 721 204 721 m 285 122 q 358 149 326 122 q 390 222 390 175 l 390 301 q 383 308 390 308 l 311 308 q 235 283 264 308 q 206 208 206 257 q 228 144 206 165 q 285 122 250 122 m 301 767 q 192 806 235 767 q 143 908 149 844 l 143 911 q 158 925 143 925 l 213 925 q 231 908 229 925 q 254 859 235 878 q 301 840 274 840 q 349 859 329 840 q 372 908 368 878 q 390 925 375 925 l 444 925 q 460 908 463 925 q 410 806 454 844 q 301 767 367 767 z "},"ắ":{"ha":601,"x_min":40,"x_max":551,"o":"m 306 721 q 483 657 415 721 q 551 489 551 593 l 551 17 q 547 5 551 10 q 535 0 542 0 l 407 0 q 395 5 400 0 q 390 17 390 10 l 390 43 q 388 49 390 47 q 382 46 385 50 q 240 -11 333 -11 q 101 34 161 -11 q 40 199 40 79 q 113 376 40 324 q 311 429 186 429 l 383 429 q 390 436 390 429 l 390 472 q 365 552 390 522 q 303 582 340 582 q 254 563 274 582 q 231 513 235 544 q 213 496 229 496 l 78 496 q 63 513 61 496 q 137 664 69 607 q 306 721 204 721 m 285 122 q 358 149 326 122 q 390 222 390 175 l 390 301 q 383 308 390 308 l 311 308 q 235 283 264 308 q 206 208 206 257 q 228 144 206 165 q 285 122 250 122 z "},"ặ":{"ha":601,"x_min":40,"x_max":551,"o":"m 306 721 q 483 657 415 721 q 551 489 551 593 l 551 17 q 547 5 551 10 q 535 0 542 0 l 407 0 q 395 5 400 0 q 390 17 390 10 l 390 43 q 388 49 390 47 q 382 46 385 50 q 240 -11 333 -11 q 101 34 161 -11 q 40 199 40 79 q 113 376 40 324 q 311 429 186 429 l 383 429 q 390 436 390 429 l 390 472 q 365 552 390 522 q 303 582 340 582 q 254 563 274 582 q 231 513 235 544 q 213 496 229 496 l 78 496 q 63 513 61 496 q 137 664 69 607 q 306 721 204 721 m 285 122 q 358 149 326 122 q 390 222 390 175 l 390 301 q 383 308 390 308 l 311 308 q 235 283 264 308 q 206 208 206 257 q 228 144 206 165 q 285 122 250 122 m 301 -310 q 233 -283 260 -310 q 207 -215 207 -256 q 233 -149 207 -175 q 301 -122 260 -122 q 368 -149 342 -122 q 394 -215 394 -175 q 368 -283 394 -256 q 301 -310 342 -310 m 301 792 q 192 831 235 792 q 143 933 149 869 l 143 936 q 158 950 143 950 l 213 950 q 231 933 228 950 q 254 884 235 903 q 301 865 274 865 q 347 884 328 865 q 372 933 367 903 q 390 950 374 950 l 444 950 q 460 933 461 950 q 410 831 454 869 q 301 792 367 792 z "},"ằ":{"ha":601,"x_min":40,"x_max":551,"o":"m 306 721 q 483 657 415 721 q 551 489 551 593 l 551 17 q 547 5 551 10 q 535 0 542 0 l 407 0 q 395 5 400 0 q 390 17 390 10 l 390 43 q 388 49 390 47 q 382 46 385 50 q 240 -11 333 -11 q 101 34 161 -11 q 40 199 40 79 q 113 376 40 324 q 311 429 186 429 l 383 429 q 390 436 390 429 l 390 472 q 365 552 390 522 q 303 582 340 582 q 254 563 274 582 q 231 513 235 544 q 213 496 229 496 l 78 496 q 63 513 61 496 q 137 664 69 607 q 306 721 204 721 m 285 122 q 358 149 326 122 q 390 222 390 175 l 390 301 q 383 308 390 308 l 311 308 q 235 283 264 308 q 206 208 206 257 q 228 144 206 165 q 285 122 250 122 z "},"ẳ":{"ha":601,"x_min":40,"x_max":551,"o":"m 306 721 q 483 657 415 721 q 551 489 551 593 l 551 17 q 547 5 551 10 q 535 0 542 0 l 407 0 q 395 5 400 0 q 390 17 390 10 l 390 43 q 388 49 390 47 q 382 46 385 50 q 240 -11 333 -11 q 101 34 161 -11 q 40 199 40 79 q 113 376 40 324 q 311 429 186 429 l 383 429 q 390 436 390 429 l 390 472 q 365 552 390 522 q 303 582 340 582 q 254 563 274 582 q 231 513 235 544 q 213 496 229 496 l 78 496 q 63 513 61 496 q 137 664 69 607 q 306 721 204 721 m 285 122 q 358 149 326 122 q 390 222 390 175 l 390 301 q 383 308 390 308 l 311 308 q 235 283 264 308 q 206 208 206 257 q 228 144 206 165 q 285 122 250 122 m 290 986 q 279 1007 271 990 q 319 1065 293 1039 q 340 1091 333 1081 q 346 1119 346 1101 q 333 1144 346 1133 q 304 1154 321 1154 q 275 1147 288 1154 q 247 1119 263 1139 q 244 1117 246 1118 q 242 1114 243 1115 q 221 1113 233 1103 l 190 1135 q 183 1147 183 1139 q 188 1158 183 1153 q 240 1211 214 1196 q 308 1226 267 1226 q 393 1197 361 1226 q 425 1119 425 1168 q 413 1071 425 1090 q 378 1028 401 1051 q 346 989 356 1006 q 325 979 338 978 l 290 986 m 301 792 q 192 831 235 792 q 143 933 149 869 l 143 936 q 158 950 143 950 l 213 950 q 231 933 228 950 q 254 884 235 903 q 301 865 274 865 q 349 884 329 865 q 372 933 368 903 q 390 950 374 950 l 444 950 q 460 933 461 950 q 410 831 454 869 q 301 792 367 792 z "},"ẵ":{"ha":601,"x_min":40,"x_max":551,"o":"m 306 721 q 483 657 415 721 q 551 489 551 593 l 551 17 q 547 5 551 10 q 535 0 542 0 l 407 0 q 395 5 400 0 q 390 17 390 10 l 390 43 q 388 49 390 47 q 382 46 385 50 q 240 -11 333 -11 q 101 34 161 -11 q 40 199 40 79 q 113 376 40 324 q 311 429 186 429 l 383 429 q 390 436 390 429 l 390 472 q 365 552 390 522 q 303 582 340 582 q 254 563 274 582 q 231 513 235 544 q 213 496 229 496 l 78 496 q 63 513 61 496 q 137 664 69 607 q 306 721 204 721 m 285 122 q 358 149 326 122 q 390 222 390 175 l 390 301 q 383 308 390 308 l 311 308 q 235 283 264 308 q 206 208 206 257 q 228 144 206 165 q 285 122 250 122 z "},"ǎ":{"ha":601,"x_min":40,"x_max":551,"o":"m 306 721 q 483 657 415 721 q 551 489 551 593 l 551 17 q 547 5 551 10 q 535 0 542 0 l 407 0 q 395 5 400 0 q 390 17 390 10 l 390 43 q 388 49 390 47 q 382 46 385 50 q 240 -11 333 -11 q 101 34 161 -11 q 40 199 40 79 q 113 376 40 324 q 311 429 186 429 l 383 429 q 390 436 390 429 l 390 472 q 365 552 390 522 q 303 582 340 582 q 254 563 274 582 q 231 513 235 544 q 213 496 229 496 l 78 496 q 63 513 61 496 q 137 664 69 607 q 306 721 204 721 m 285 122 q 358 149 326 122 q 390 222 390 175 l 390 301 q 383 308 390 308 l 311 308 q 235 283 264 308 q 206 208 206 257 q 228 144 206 165 q 285 122 250 122 z "},"â":{"ha":601,"x_min":40,"x_max":551,"o":"m 306 721 q 483 657 415 721 q 551 489 551 593 l 551 17 q 547 5 551 10 q 535 0 542 0 l 407 0 q 395 5 400 0 q 390 17 390 10 l 390 43 q 388 49 390 47 q 382 46 385 50 q 240 -11 333 -11 q 101 34 161 -11 q 40 199 40 79 q 113 376 40 324 q 311 429 186 429 l 383 429 q 390 436 390 429 l 390 472 q 365 552 390 522 q 303 582 340 582 q 254 563 274 582 q 231 513 235 544 q 213 496 229 496 l 78 496 q 63 513 61 496 q 137 664 69 607 q 306 721 204 721 m 285 122 q 358 149 326 122 q 390 222 390 175 l 390 301 q 383 308 390 308 l 311 308 q 235 283 264 308 q 206 208 206 257 q 228 144 206 165 q 285 122 250 122 m 129 799 q 116 803 119 799 q 118 818 113 808 l 206 961 q 225 972 211 972 l 368 972 q 388 961 381 972 l 479 818 q 482 808 482 810 q 468 799 482 799 l 371 799 q 350 810 357 799 l 303 897 q 294 897 299 904 l 246 810 q 225 799 239 799 l 129 799 z "},"ấ":{"ha":601,"x_min":40,"x_max":697,"o":"m 306 721 q 483 657 415 721 q 551 489 551 593 l 551 17 q 547 5 551 10 q 535 0 542 0 l 407 0 q 395 5 400 0 q 390 17 390 10 l 390 43 q 388 49 390 47 q 382 46 385 50 q 240 -11 333 -11 q 101 34 161 -11 q 40 199 40 79 q 113 376 40 324 q 311 429 186 429 l 383 429 q 390 436 390 429 l 390 472 q 365 552 390 522 q 303 582 340 582 q 254 563 274 582 q 231 513 235 544 q 213 496 229 496 l 78 496 q 63 513 61 496 q 137 664 69 607 q 306 721 204 721 m 285 122 q 358 149 326 122 q 390 222 390 175 l 390 301 q 383 308 390 308 l 311 308 q 235 283 264 308 q 206 208 206 257 q 228 144 206 165 q 285 122 250 122 z "},"ậ":{"ha":601,"x_min":40,"x_max":551,"o":"m 306 721 q 483 657 415 721 q 551 489 551 593 l 551 17 q 547 5 551 10 q 535 0 542 0 l 407 0 q 395 5 400 0 q 390 17 390 10 l 390 43 q 388 49 390 47 q 382 46 385 50 q 240 -11 333 -11 q 101 34 161 -11 q 40 199 40 79 q 113 376 40 324 q 311 429 186 429 l 383 429 q 390 436 390 429 l 390 472 q 365 552 390 522 q 303 582 340 582 q 254 563 274 582 q 231 513 235 544 q 213 496 229 496 l 78 496 q 63 513 61 496 q 137 664 69 607 q 306 721 204 721 m 285 122 q 358 149 326 122 q 390 222 390 175 l 390 301 q 383 308 390 308 l 311 308 q 235 283 264 308 q 206 208 206 257 q 228 144 206 165 q 285 122 250 122 m 301 -310 q 233 -283 260 -310 q 207 -215 207 -256 q 233 -149 207 -175 q 301 -122 260 -122 q 368 -149 342 -122 q 394 -215 394 -175 q 368 -283 394 -256 q 301 -310 342 -310 m 129 799 q 116 803 119 799 q 118 818 113 808 l 206 961 q 225 972 211 972 l 368 972 q 388 961 381 972 l 479 818 q 482 808 482 810 q 468 799 482 799 l 371 799 q 350 810 357 799 l 303 897 q 294 897 299 904 l 246 810 q 225 799 239 799 l 129 799 z "},"ầ":{"ha":601,"x_min":40,"x_max":571,"o":"m 306 721 q 483 657 415 721 q 551 489 551 593 l 551 17 q 547 5 551 10 q 535 0 542 0 l 407 0 q 395 5 400 0 q 390 17 390 10 l 390 43 q 388 49 390 47 q 382 46 385 50 q 240 -11 333 -11 q 101 34 161 -11 q 40 199 40 79 q 113 376 40 324 q 311 429 186 429 l 383 429 q 390 436 390 429 l 390 472 q 365 552 390 522 q 303 582 340 582 q 254 563 274 582 q 231 513 235 544 q 213 496 229 496 l 78 496 q 63 513 61 496 q 137 664 69 607 q 306 721 204 721 m 285 122 q 358 149 326 122 q 390 222 390 175 l 390 301 q 383 308 390 308 l 311 308 q 235 283 264 308 q 206 208 206 257 q 228 144 206 165 q 285 122 250 122 z "},"ẩ":{"ha":601,"x_min":40,"x_max":626,"o":"m 306 721 q 483 657 415 721 q 551 489 551 593 l 551 17 q 547 5 551 10 q 535 0 542 0 l 407 0 q 395 5 400 0 q 390 17 390 10 l 390 43 q 388 49 390 47 q 382 46 385 50 q 240 -11 333 -11 q 101 34 161 -11 q 40 199 40 79 q 113 376 40 324 q 311 429 186 429 l 383 429 q 390 436 390 429 l 390 472 q 365 552 390 522 q 303 582 340 582 q 254 563 274 582 q 231 513 235 544 q 213 496 229 496 l 78 496 q 63 513 61 496 q 137 664 69 607 q 306 721 204 721 m 285 122 q 358 149 326 122 q 390 222 390 175 l 390 301 q 383 308 390 308 l 311 308 q 235 283 264 308 q 206 208 206 257 q 228 144 206 165 q 285 122 250 122 m 483 938 q 472 946 475 940 q 472 960 468 951 q 497 1002 483 986 q 514 1022 511 1018 q 535 1048 528 1036 q 542 1078 542 1060 q 529 1104 542 1093 q 499 1115 517 1115 q 469 1107 482 1115 q 438 1078 456 1099 q 432 1072 432 1072 q 411 1071 424 1061 l 379 1094 q 375 1118 367 1106 q 431 1174 403 1157 q 503 1192 458 1192 q 592 1160 558 1192 q 626 1078 626 1129 q 614 1028 626 1049 q 576 982 601 1007 q 542 940 550 956 q 521 931 533 929 l 483 938 m 131 799 q 117 803 121 799 q 119 818 114 808 l 207 961 q 226 972 213 972 l 369 972 q 389 961 382 972 l 481 818 q 483 808 483 810 q 469 799 483 799 l 372 799 q 351 810 358 799 l 304 897 q 296 897 300 904 l 247 810 q 226 799 240 799 l 131 799 z "},"ẫ":{"ha":601,"x_min":40,"x_max":551,"o":"m 306 721 q 483 657 415 721 q 551 489 551 593 l 551 17 q 547 5 551 10 q 535 0 542 0 l 407 0 q 395 5 400 0 q 390 17 390 10 l 390 43 q 388 49 390 47 q 382 46 385 50 q 240 -11 333 -11 q 101 34 161 -11 q 40 199 40 79 q 113 376 40 324 q 311 429 186 429 l 383 429 q 390 436 390 429 l 390 472 q 365 552 390 522 q 303 582 340 582 q 254 563 274 582 q 231 513 235 544 q 213 496 229 496 l 78 496 q 63 513 61 496 q 137 664 69 607 q 306 721 204 721 m 285 122 q 358 149 326 122 q 390 222 390 175 l 390 301 q 383 308 390 308 l 311 308 q 235 283 264 308 q 206 208 206 257 q 228 144 206 165 q 285 122 250 122 z "},"ä":{"ha":601,"x_min":40,"x_max":551,"o":"m 306 721 q 483 657 415 721 q 551 489 551 593 l 551 17 q 547 5 551 10 q 535 0 542 0 l 407 0 q 395 5 400 0 q 390 17 390 10 l 390 43 q 388 49 390 47 q 382 46 385 50 q 240 -11 333 -11 q 101 34 161 -11 q 40 199 40 79 q 113 376 40 324 q 311 429 186 429 l 383 429 q 390 436 390 429 l 390 472 q 365 552 390 522 q 303 582 340 582 q 254 563 274 582 q 231 513 235 544 q 213 496 229 496 l 78 496 q 63 513 61 496 q 137 664 69 607 q 306 721 204 721 m 285 122 q 358 149 326 122 q 390 222 390 175 l 390 301 q 383 308 390 308 l 311 308 q 235 283 264 308 q 206 208 206 257 q 228 144 206 165 q 285 122 250 122 z "},"ạ":{"ha":601,"x_min":40,"x_max":551,"o":"m 306 721 q 483 657 415 721 q 551 489 551 593 l 551 17 q 547 5 551 10 q 535 0 542 0 l 407 0 q 395 5 400 0 q 390 17 390 10 l 390 43 q 388 49 390 47 q 382 46 385 50 q 240 -11 333 -11 q 101 34 161 -11 q 40 199 40 79 q 113 376 40 324 q 311 429 186 429 l 383 429 q 390 436 390 429 l 390 472 q 365 552 390 522 q 303 582 340 582 q 254 563 274 582 q 231 513 235 544 q 213 496 229 496 l 78 496 q 63 513 61 496 q 137 664 69 607 q 306 721 204 721 m 285 122 q 358 149 326 122 q 390 222 390 175 l 390 301 q 383 308 390 308 l 311 308 q 235 283 264 308 q 206 208 206 257 q 228 144 206 165 q 285 122 250 122 m 301 -310 q 233 -283 260 -310 q 207 -215 207 -256 q 233 -149 207 -175 q 301 -122 260 -122 q 368 -149 342 -122 q 394 -215 394 -175 q 368 -283 394 -256 q 301 -310 342 -310 z "},"à":{"ha":601,"x_min":40,"x_max":551,"o":"m 306 721 q 483 657 415 721 q 551 489 551 593 l 551 17 q 547 5 551 10 q 535 0 542 0 l 407 0 q 395 5 400 0 q 390 17 390 10 l 390 43 q 388 49 390 47 q 382 46 385 50 q 240 -11 333 -11 q 101 34 161 -11 q 40 199 40 79 q 113 376 40 324 q 311 429 186 429 l 383 429 q 390 436 390 429 l 390 472 q 365 552 390 522 q 303 582 340 582 q 254 563 274 582 q 231 513 235 544 q 213 496 229 496 l 78 496 q 63 513 61 496 q 137 664 69 607 q 306 721 204 721 m 285 122 q 358 149 326 122 q 390 222 390 175 l 390 301 q 383 308 390 308 l 311 308 q 235 283 264 308 q 206 208 206 257 q 228 144 206 165 q 285 122 250 122 m 351 810 q 336 799 351 799 l 256 799 q 236 810 243 799 l 135 951 q 131 961 131 958 q 146 972 131 972 l 246 972 q 267 961 261 972 l 349 818 l 351 810 z "},"ả":{"ha":601,"x_min":40,"x_max":551,"o":"m 306 721 q 483 657 415 721 q 551 489 551 593 l 551 17 q 547 5 551 10 q 535 0 542 0 l 407 0 q 395 5 400 0 q 390 17 390 10 l 390 43 q 388 49 390 47 q 382 46 385 50 q 240 -11 333 -11 q 101 34 161 -11 q 40 199 40 79 q 113 376 40 324 q 311 429 186 429 l 383 429 q 390 436 390 429 l 390 472 q 365 552 390 522 q 303 582 340 582 q 254 563 274 582 q 231 513 235 544 q 213 496 229 496 l 78 496 q 63 513 61 496 q 137 664 69 607 q 306 721 204 721 m 285 122 q 358 149 326 122 q 390 222 390 175 l 390 301 q 383 308 390 308 l 311 308 q 235 283 264 308 q 206 208 206 257 q 228 144 206 165 q 285 122 250 122 m 286 769 q 275 790 267 774 q 319 857 289 824 q 342 885 335 872 q 349 917 349 897 q 335 944 349 932 q 304 956 322 956 q 269 947 283 956 q 236 913 256 938 q 222 904 231 904 q 213 908 217 904 l 176 935 q 172 958 164 946 q 231 1018 201 1000 q 307 1036 261 1036 q 402 1003 367 1036 q 438 917 438 971 q 424 865 438 886 q 385 815 411 843 q 349 772 357 788 q 326 761 342 758 l 286 769 z "},"ā":{"ha":601,"x_min":40,"x_max":551,"o":"m 306 721 q 483 657 415 721 q 551 489 551 593 l 551 17 q 547 5 551 10 q 535 0 542 0 l 407 0 q 395 5 400 0 q 390 17 390 10 l 390 43 q 388 49 390 47 q 382 46 385 50 q 240 -11 333 -11 q 101 34 161 -11 q 40 199 40 79 q 113 376 40 324 q 311 429 186 429 l 383 429 q 390 436 390 429 l 390 472 q 365 552 390 522 q 303 582 340 582 q 254 563 274 582 q 231 513 235 544 q 213 496 229 496 l 78 496 q 63 513 61 496 q 137 664 69 607 q 306 721 204 721 m 285 122 q 358 149 326 122 q 390 222 390 175 l 390 301 q 383 308 390 308 l 311 308 q 235 283 264 308 q 206 208 206 257 q 228 144 206 165 q 285 122 250 122 m 165 814 q 153 819 158 814 q 149 831 149 824 l 149 908 q 153 920 149 915 q 165 925 158 925 l 429 925 q 441 920 436 925 q 446 908 446 915 l 446 831 q 441 819 446 824 q 429 814 436 814 l 165 814 z "},"ą":{"ha":601,"x_min":40,"x_max":556,"o":"m 533 -172 q 549 -186 547 -172 l 556 -235 l 556 -239 q 543 -254 556 -250 q 486 -262 513 -262 q 403 -235 438 -262 q 368 -144 368 -208 q 431 -8 368 -71 q 433 -3 435 -6 q 428 0 432 0 l 407 0 q 395 5 400 0 q 390 17 390 10 l 390 43 q 388 49 390 47 q 382 46 385 50 q 240 -11 333 -11 q 101 34 161 -11 q 40 199 40 79 q 113 376 40 324 q 311 429 186 429 l 383 429 q 390 436 390 429 l 390 472 q 365 552 390 522 q 303 582 340 582 q 254 563 274 582 q 231 513 235 544 q 213 496 229 496 l 78 496 q 63 513 61 496 q 137 664 69 607 q 306 721 204 721 q 483 657 415 721 q 551 489 551 593 l 551 17 l 550 0 l 549 0 q 474 -119 474 -65 q 490 -163 474 -150 q 529 -172 506 -176 l 533 -172 m 285 122 q 358 149 326 122 q 390 222 390 175 l 390 301 q 383 308 390 308 l 311 308 q 235 283 264 308 q 206 208 206 257 q 228 144 206 165 q 285 122 250 122 z "},"å":{"ha":601,"x_min":40,"x_max":551,"o":"m 306 721 q 483 657 415 721 q 551 489 551 593 l 551 17 q 547 5 551 10 q 535 0 542 0 l 407 0 q 395 5 400 0 q 390 17 390 10 l 390 43 q 388 49 390 47 q 382 46 385 50 q 240 -11 333 -11 q 101 34 161 -11 q 40 199 40 79 q 113 376 40 324 q 311 429 186 429 l 383 429 q 390 436 390 429 l 390 472 q 365 552 390 522 q 303 582 340 582 q 254 563 274 582 q 231 513 235 544 q 213 496 229 496 l 78 496 q 63 513 61 496 q 137 664 69 607 q 306 721 204 721 m 285 122 q 358 149 326 122 q 390 222 390 175 l 390 301 q 383 308 390 308 l 311 308 q 235 283 264 308 q 206 208 206 257 q 228 144 206 165 q 285 122 250 122 m 301 789 q 185 837 232 789 q 138 954 138 885 q 185 1071 138 1024 q 301 1118 232 1118 q 417 1071 369 1118 q 464 954 464 1024 q 417 837 464 885 q 301 789 369 789 m 301 876 q 354 899 332 876 q 376 954 376 922 q 354 1010 376 988 q 301 1032 332 1032 q 247 1010 269 1032 q 225 954 225 988 q 247 899 225 922 q 301 876 269 876 z "},"ã":{"ha":601,"x_min":40,"x_max":551,"o":"m 306 721 q 483 657 415 721 q 551 489 551 593 l 551 17 q 547 5 551 10 q 535 0 542 0 l 407 0 q 395 5 400 0 q 390 17 390 10 l 390 43 q 388 49 390 47 q 382 46 385 50 q 240 -11 333 -11 q 101 34 161 -11 q 40 199 40 79 q 113 376 40 324 q 311 429 186 429 l 383 429 q 390 436 390 429 l 390 472 q 365 552 390 522 q 303 582 340 582 q 254 563 274 582 q 231 513 235 544 q 213 496 229 496 l 78 496 q 63 513 61 496 q 137 664 69 607 q 306 721 204 721 m 285 122 q 358 149 326 122 q 390 222 390 175 l 390 301 q 383 308 390 308 l 311 308 q 235 283 264 308 q 206 208 206 257 q 228 144 206 165 q 285 122 250 122 m 390 825 q 356 831 372 825 q 315 851 339 838 q 294 864 306 857 q 275 874 283 871 q 256 878 267 878 q 203 846 224 878 q 179 840 193 832 l 135 872 q 128 894 122 881 q 177 960 147 939 q 243 982 207 982 q 285 974 265 982 q 329 950 304 965 q 346 940 335 947 q 367 928 357 932 q 389 924 378 924 q 442 954 422 924 q 464 961 450 971 l 508 931 q 515 917 515 926 q 510 899 515 908 q 453 842 486 860 q 390 825 421 825 z "},"æ":{"ha":936,"x_min":40,"x_max":890,"o":"m 244 -11 q 40 197 40 -11 q 107 367 40 318 q 297 415 174 415 l 381 415 q 388 422 388 415 l 388 472 q 365 552 388 522 q 300 582 342 582 q 244 563 268 582 q 214 514 219 544 q 196 497 213 497 l 68 501 q 51 518 51 501 q 126 666 57 611 q 296 721 196 721 q 391 702 351 721 q 461 644 431 683 q 471 644 467 640 q 649 721 533 721 q 824 658 757 721 q 890 496 890 596 l 890 310 q 885 298 890 303 q 874 293 881 293 l 564 293 q 557 286 557 293 l 557 226 q 581 161 557 188 q 643 135 606 135 q 695 154 674 135 q 726 201 717 174 q 746 215 733 217 l 871 201 q 886 183 888 199 q 815 40 875 90 q 656 -11 756 -11 q 535 15 586 -11 q 468 76 483 42 q 464 81 467 85 q 388 15 449 42 q 244 -11 326 -11 m 557 422 q 564 415 557 415 l 722 415 q 729 422 729 415 l 729 483 q 705 554 729 526 q 643 582 681 582 q 581 555 604 582 q 557 483 557 528 l 557 422 m 285 114 q 356 139 325 114 q 388 206 388 164 l 388 285 q 381 292 388 292 l 310 292 q 233 268 261 292 q 204 200 204 244 q 226 135 204 157 q 285 114 249 114 z "},"b":{"ha":607,"x_min":64,"x_max":554,"o":"m 358 721 q 502 661 450 721 q 554 496 554 601 l 554 214 q 503 50 554 111 q 358 -11 451 -11 q 233 38 283 -11 q 228 39 231 40 q 225 33 225 38 l 225 17 q 220 5 225 10 q 208 0 215 0 l 81 0 q 69 5 74 0 q 64 17 64 10 l 64 956 q 69 967 64 963 q 81 972 74 972 l 208 972 q 220 967 215 972 q 225 956 225 963 l 225 675 q 228 670 225 671 q 236 675 232 669 q 295 710 263 699 q 358 721 328 721 m 394 483 q 371 555 394 528 q 308 582 347 582 q 253 560 275 582 q 225 503 231 539 l 225 207 q 253 149 231 171 q 308 128 275 128 q 371 155 347 128 q 394 226 394 182 l 394 483 z "},"c":{"ha":586,"x_min":53,"x_max":546,"o":"m 299 -11 q 119 50 185 -11 q 53 215 53 111 l 53 496 q 119 659 53 597 q 299 721 185 721 q 479 660 413 721 q 546 507 546 600 l 546 488 q 541 476 546 481 q 529 471 536 471 l 401 465 q 385 482 385 465 l 385 496 q 360 556 385 531 q 299 582 336 582 q 238 554 261 582 q 214 483 214 526 l 214 226 q 238 156 214 183 q 299 128 261 128 q 360 153 336 128 q 385 215 385 179 l 385 229 q 390 241 385 236 q 401 246 394 246 l 529 244 q 541 240 536 244 q 546 228 546 235 l 546 203 q 479 48 546 107 q 299 -11 413 -11 z "},"ć":{"ha":586,"x_min":53,"x_max":546,"o":"m 299 -11 q 119 50 185 -11 q 53 215 53 111 l 53 496 q 119 659 53 597 q 299 721 185 721 q 479 660 413 721 q 546 507 546 600 l 546 488 q 541 476 546 481 q 529 471 536 471 l 401 465 q 385 482 385 465 l 385 496 q 360 556 385 531 q 299 582 336 582 q 238 554 261 582 q 214 483 214 526 l 214 226 q 238 156 214 183 q 299 128 261 128 q 360 153 336 128 q 385 215 385 179 l 385 229 q 390 241 385 236 q 401 246 394 246 l 529 244 q 541 240 536 244 q 546 228 546 235 l 546 203 q 479 48 546 107 q 299 -11 413 -11 m 235 799 q 221 804 225 799 q 222 818 217 810 l 304 961 q 325 972 310 972 l 425 972 q 439 966 436 972 q 436 951 442 960 l 333 808 q 314 799 326 799 l 235 799 z "},"č":{"ha":586,"x_min":53,"x_max":546,"o":"m 299 -11 q 119 50 185 -11 q 53 215 53 111 l 53 496 q 119 659 53 597 q 299 721 185 721 q 479 660 413 721 q 546 507 546 600 l 546 488 q 541 476 546 481 q 529 471 536 471 l 401 465 q 385 482 385 465 l 385 496 q 360 556 385 531 q 299 582 336 582 q 238 554 261 582 q 214 483 214 526 l 214 226 q 238 156 214 183 q 299 128 261 128 q 360 153 336 128 q 385 215 385 179 l 385 229 q 390 241 385 236 q 401 246 394 246 l 529 244 q 541 240 536 244 q 546 228 546 235 l 546 203 q 479 48 546 107 q 299 -11 413 -11 m 124 953 q 121 963 121 961 q 135 972 121 972 l 231 972 q 251 961 244 972 l 300 875 q 308 875 304 869 l 356 961 q 376 972 363 972 l 474 972 q 487 967 483 972 q 485 953 490 963 l 393 810 q 374 799 386 799 l 231 799 q 211 810 217 799 l 124 953 z "},"ç":{"ha":586,"x_min":53,"x_max":546,"o":"m 546 488 q 541 476 546 481 q 529 471 536 471 l 401 465 q 385 482 385 465 l 385 496 q 360 556 385 531 q 299 582 336 582 q 238 554 261 582 q 214 483 214 526 l 214 226 q 238 156 214 183 q 299 128 261 128 q 360 153 336 128 q 385 215 385 179 l 385 229 q 390 241 385 236 q 401 246 394 246 l 529 244 q 541 240 536 244 q 546 228 546 235 l 546 203 q 497 65 546 121 q 363 -6 449 10 q 360 -14 354 -8 q 411 -137 411 -71 q 377 -230 411 -203 q 293 -257 343 -257 q 235 -249 265 -257 q 224 -229 222 -244 l 231 -181 q 250 -168 233 -164 q 284 -160 269 -171 q 304 -128 299 -150 q 306 -115 306 -124 q 246 -10 306 -67 l 239 -6 q 102 68 151 10 q 53 215 53 126 l 53 496 q 119 659 53 597 q 299 721 185 721 q 479 660 413 721 q 546 507 546 600 l 546 488 z "},"ĉ":{"ha":586,"x_min":53,"x_max":546,"o":"m 299 -11 q 119 50 185 -11 q 53 215 53 111 l 53 496 q 119 659 53 597 q 299 721 185 721 q 479 660 413 721 q 546 507 546 600 l 546 488 q 541 476 546 481 q 529 471 536 471 l 401 465 q 385 482 385 465 l 385 496 q 360 556 385 531 q 299 582 336 582 q 238 554 261 582 q 214 483 214 526 l 214 226 q 238 156 214 183 q 299 128 261 128 q 360 153 336 128 q 385 215 385 179 l 385 229 q 390 241 385 236 q 401 246 394 246 l 529 244 q 541 240 536 244 q 546 228 546 235 l 546 203 q 479 48 546 107 q 299 -11 413 -11 m 128 799 q 115 803 118 799 q 117 818 111 808 l 204 961 q 224 972 210 972 l 367 972 q 386 961 379 972 l 478 818 q 481 808 481 810 q 467 799 481 799 l 369 799 q 349 810 356 799 l 301 897 q 293 897 297 904 l 244 810 q 224 799 238 799 l 128 799 z "},"ċ":{"ha":586,"x_min":53,"x_max":546,"o":"m 299 -11 q 119 50 185 -11 q 53 215 53 111 l 53 496 q 119 659 53 597 q 299 721 185 721 q 479 660 413 721 q 546 507 546 600 l 546 488 q 541 476 546 481 q 529 471 536 471 l 401 465 q 385 482 385 465 l 385 496 q 360 556 385 531 q 299 582 336 582 q 238 554 261 582 q 214 483 214 526 l 214 226 q 238 156 214 183 q 299 128 261 128 q 360 153 336 128 q 385 215 385 179 l 385 229 q 390 241 385 236 q 401 246 394 246 l 529 244 q 541 240 536 244 q 546 228 546 235 l 546 203 q 479 48 546 107 q 299 -11 413 -11 m 300 807 q 229 835 257 807 q 201 906 201 863 q 229 976 201 949 q 300 1004 257 1004 q 370 976 343 1004 q 397 906 397 949 q 369 835 397 863 q 300 807 342 807 z "},"d":{"ha":607,"x_min":53,"x_max":543,"o":"m 382 956 q 387 967 382 963 q 399 972 392 972 l 526 972 q 538 967 533 972 q 543 956 543 963 l 543 17 q 538 5 543 10 q 526 0 533 0 l 399 0 q 387 5 392 0 q 382 17 382 10 l 382 33 q 379 39 382 38 q 374 38 376 40 q 249 -11 324 -11 q 104 50 156 -11 q 53 214 53 111 l 53 496 q 105 661 53 601 q 249 721 157 721 q 314 709 281 721 q 374 671 347 697 q 379 669 376 668 q 382 675 382 671 l 382 956 m 299 128 q 354 149 332 128 q 382 207 376 171 l 382 503 q 354 560 376 539 q 299 582 332 582 q 236 555 260 582 q 213 483 213 528 l 213 226 q 236 155 213 182 q 299 128 260 128 z "},"ð":{"ha":615,"x_min":53,"x_max":560,"o":"m 560 853 q 546 838 560 842 l 465 815 q 461 807 457 813 q 524 649 501 732 q 549 464 547 565 l 549 215 q 483 50 549 111 q 300 -11 417 -11 q 119 50 185 -11 q 53 215 53 111 l 53 464 q 82 581 53 529 q 161 661 111 632 q 274 690 211 690 q 368 658 333 690 q 372 660 374 653 q 326 774 358 715 q 318 778 324 779 l 215 751 l 210 750 q 194 764 199 750 l 185 800 l 183 806 q 197 821 183 817 l 276 842 q 281 846 279 843 q 281 851 282 849 q 208 951 231 924 q 203 963 203 960 q 218 972 203 972 l 338 972 q 358 963 350 972 l 393 914 l 414 886 q 417 882 415 883 q 422 882 419 881 l 528 911 l 533 913 q 549 899 544 913 l 558 858 l 560 853 m 388 451 q 363 522 388 494 q 300 550 339 550 q 238 523 261 550 q 214 451 214 496 l 214 226 q 238 155 214 182 q 300 128 261 128 q 363 156 339 128 q 388 226 388 183 l 388 451 z "},"ď":{"ha":607,"x_min":53,"x_max":832,"o":"m 382 956 q 387 967 382 963 q 399 972 392 972 l 526 972 q 538 967 533 972 q 543 956 543 963 l 543 17 q 538 5 543 10 q 526 0 533 0 l 399 0 q 387 5 392 0 q 382 17 382 10 l 382 33 q 379 39 382 38 q 374 38 376 40 q 249 -11 324 -11 q 104 50 156 -11 q 53 214 53 111 l 53 496 q 105 661 53 601 q 249 721 157 721 q 314 709 281 721 q 374 671 347 697 q 379 669 376 668 q 382 675 382 671 l 382 956 m 299 128 q 354 149 332 128 q 382 207 376 171 l 382 503 q 354 560 376 539 q 299 582 332 582 q 236 555 260 582 q 213 483 213 528 l 213 226 q 236 155 213 182 q 299 128 260 128 z "},"đ":{"ha":607,"x_min":53,"x_max":603,"o":"m 586 876 q 598 872 593 876 q 603 860 603 867 l 603 794 q 598 783 603 788 q 586 778 593 778 l 550 778 q 543 771 543 778 l 543 17 q 538 5 543 10 q 526 0 533 0 l 399 0 q 387 5 392 0 q 382 17 382 10 l 382 33 q 379 39 382 38 q 374 38 376 40 q 249 -11 324 -11 q 104 50 156 -11 q 53 214 53 111 l 53 496 q 105 661 53 601 q 249 721 157 721 q 314 709 281 721 q 374 671 347 697 q 379 669 376 668 q 382 675 382 671 l 382 771 q 375 778 382 778 l 232 778 q 220 783 225 778 q 215 794 215 788 l 215 860 q 220 872 215 867 q 232 876 225 876 l 375 876 q 382 883 382 876 l 382 956 q 387 967 382 963 q 399 972 392 972 l 526 972 q 538 967 533 972 q 543 956 543 963 l 543 883 q 550 876 543 876 l 586 876 m 299 128 q 354 149 332 128 q 382 207 376 171 l 382 503 q 354 560 376 539 q 299 582 332 582 q 236 555 260 582 q 213 483 213 528 l 213 226 q 236 155 213 182 q 299 128 260 128 z "},"e":{"ha":592,"x_min":53,"x_max":544,"o":"m 544 313 q 540 301 544 306 q 528 296 535 296 l 221 296 q 214 289 214 296 l 214 226 q 238 156 214 183 q 299 128 261 128 q 353 148 331 128 q 383 200 376 168 q 401 214 388 214 l 525 208 q 537 203 532 208 q 540 190 542 199 q 469 41 531 93 q 299 -11 408 -11 q 119 49 185 -11 q 53 214 53 110 l 53 496 q 119 659 53 597 q 299 721 185 721 q 478 659 413 721 q 544 496 544 597 l 544 313 m 299 582 q 238 554 261 582 q 214 483 214 526 l 214 421 q 221 414 214 414 l 378 414 q 385 421 385 414 l 385 483 q 361 555 385 528 q 299 582 338 582 z "},"é":{"ha":592,"x_min":53,"x_max":544,"o":"m 544 313 q 540 301 544 306 q 528 296 535 296 l 221 296 q 214 289 214 296 l 214 226 q 238 156 214 183 q 299 128 261 128 q 353 148 331 128 q 383 200 376 168 q 401 214 388 214 l 525 208 q 537 203 532 208 q 540 190 542 199 q 469 41 531 93 q 299 -11 408 -11 q 119 49 185 -11 q 53 214 53 110 l 53 496 q 119 659 53 597 q 299 721 185 721 q 478 659 413 721 q 544 496 544 597 l 544 313 m 299 582 q 238 554 261 582 q 214 483 214 526 l 214 421 q 221 414 214 414 l 378 414 q 385 421 385 414 l 385 483 q 361 555 385 528 q 299 582 338 582 m 232 799 q 218 804 222 799 q 219 818 214 810 l 301 961 q 322 972 307 972 l 422 972 q 436 966 433 972 q 433 951 439 960 l 331 808 q 311 799 324 799 l 232 799 z "},"ě":{"ha":592,"x_min":53,"x_max":544,"o":"m 544 313 q 540 301 544 306 q 528 296 535 296 l 221 296 q 214 289 214 296 l 214 226 q 238 156 214 183 q 299 128 261 128 q 353 148 331 128 q 383 200 376 168 q 401 214 388 214 l 525 208 q 537 203 532 208 q 540 190 542 199 q 469 41 531 93 q 299 -11 408 -11 q 119 49 185 -11 q 53 214 53 110 l 53 496 q 119 659 53 597 q 299 721 185 721 q 478 659 413 721 q 544 496 544 597 l 544 313 m 299 582 q 238 554 261 582 q 214 483 214 526 l 214 421 q 221 414 214 414 l 378 414 q 385 421 385 414 l 385 483 q 361 555 385 528 q 299 582 338 582 z "},"ȩ":{"ha":592,"x_min":53,"x_max":544,"o":"m 544 313 q 540 301 544 306 q 528 296 535 296 l 221 296 q 214 289 214 296 l 214 226 q 238 156 214 183 q 299 128 261 128 q 353 148 331 128 q 383 200 376 168 q 401 214 388 214 l 525 208 q 537 203 532 208 q 540 190 542 199 q 490 60 533 111 q 368 -6 446 10 q 364 -14 360 -8 q 408 -126 408 -68 q 374 -219 408 -192 q 290 -246 340 -246 q 232 -237 263 -246 q 221 -218 219 -233 l 228 -169 q 247 -156 229 -153 q 281 -149 267 -158 q 301 -117 296 -140 l 303 -104 q 256 -12 303 -62 q 249 -8 254 -8 q 105 65 157 7 q 53 214 53 122 l 53 496 q 119 659 53 597 q 299 721 185 721 q 478 659 413 721 q 544 496 544 597 l 544 313 m 299 582 q 238 554 261 582 q 214 483 214 526 l 214 421 q 221 414 214 414 l 378 414 q 385 421 385 414 l 385 483 q 361 555 385 528 q 299 582 338 582 z "},"ê":{"ha":592,"x_min":53,"x_max":544,"o":"m 544 313 q 540 301 544 306 q 528 296 535 296 l 221 296 q 214 289 214 296 l 214 226 q 238 156 214 183 q 299 128 261 128 q 353 148 331 128 q 383 200 376 168 q 401 214 388 214 l 525 208 q 537 203 532 208 q 540 190 542 199 q 469 41 531 93 q 299 -11 408 -11 q 119 49 185 -11 q 53 214 53 110 l 53 496 q 119 659 53 597 q 299 721 185 721 q 478 659 413 721 q 544 496 544 597 l 544 313 m 299 582 q 238 554 261 582 q 214 483 214 526 l 214 421 q 221 414 214 414 l 378 414 q 385 421 385 414 l 385 483 q 361 555 385 528 q 299 582 338 582 m 125 799 q 112 803 115 799 q 114 818 108 808 l 201 961 q 221 972 207 972 l 364 972 q 383 961 376 972 l 475 818 q 478 808 478 810 q 464 799 478 799 l 367 799 q 346 810 353 799 l 299 897 q 290 897 294 904 l 242 810 q 221 799 235 799 l 125 799 z "},"ế":{"ha":592,"x_min":53,"x_max":693,"o":"m 544 313 q 540 301 544 306 q 528 296 535 296 l 221 296 q 214 289 214 296 l 214 226 q 238 156 214 183 q 299 128 261 128 q 353 148 331 128 q 383 200 376 168 q 401 214 388 214 l 525 208 q 537 203 532 208 q 540 190 542 199 q 469 41 531 93 q 299 -11 408 -11 q 119 49 185 -11 q 53 214 53 110 l 53 496 q 119 659 53 597 q 299 721 185 721 q 478 659 413 721 q 544 496 544 597 l 544 313 m 299 582 q 238 554 261 582 q 214 483 214 526 l 214 421 q 221 414 214 414 l 378 414 q 385 421 385 414 l 385 483 q 361 555 385 528 q 299 582 338 582 z "},"ệ":{"ha":592,"x_min":53,"x_max":544,"o":"m 544 313 q 540 301 544 306 q 528 296 535 296 l 221 296 q 214 289 214 296 l 214 226 q 238 156 214 183 q 299 128 261 128 q 353 148 331 128 q 383 200 376 168 q 401 214 388 214 l 525 208 q 537 203 532 208 q 540 190 542 199 q 469 41 531 93 q 299 -11 408 -11 q 119 49 185 -11 q 53 214 53 110 l 53 496 q 119 659 53 597 q 299 721 185 721 q 478 659 413 721 q 544 496 544 597 l 544 313 m 299 582 q 238 554 261 582 q 214 483 214 526 l 214 421 q 221 414 214 414 l 378 414 q 385 421 385 414 l 385 483 q 361 555 385 528 q 299 582 338 582 m 297 -310 q 229 -283 256 -310 q 203 -215 203 -256 q 229 -149 203 -175 q 297 -122 256 -122 q 364 -149 338 -122 q 390 -215 390 -175 q 364 -283 390 -256 q 297 -310 338 -310 m 125 799 q 112 803 115 799 q 114 818 108 808 l 201 961 q 221 972 207 972 l 364 972 q 383 961 376 972 l 475 818 q 478 808 478 810 q 464 799 478 799 l 367 799 q 346 810 353 799 l 299 897 q 290 897 294 904 l 242 810 q 221 799 235 799 l 125 799 z "},"ề":{"ha":592,"x_min":53,"x_max":565,"o":"m 544 313 q 540 301 544 306 q 528 296 535 296 l 221 296 q 214 289 214 296 l 214 226 q 238 156 214 183 q 299 128 261 128 q 353 148 331 128 q 383 200 376 168 q 401 214 388 214 l 525 208 q 537 203 532 208 q 540 190 542 199 q 469 41 531 93 q 299 -11 408 -11 q 119 49 185 -11 q 53 214 53 110 l 53 496 q 119 659 53 597 q 299 721 185 721 q 478 659 413 721 q 544 496 544 597 l 544 313 m 299 582 q 238 554 261 582 q 214 483 214 526 l 214 421 q 221 414 214 414 l 378 414 q 385 421 385 414 l 385 483 q 361 555 385 528 q 299 582 338 582 z "},"ể":{"ha":592,"x_min":53,"x_max":621,"o":"m 544 313 q 540 301 544 306 q 528 296 535 296 l 221 296 q 214 289 214 296 l 214 226 q 238 156 214 183 q 299 128 261 128 q 353 148 331 128 q 383 200 376 168 q 401 214 388 214 l 525 208 q 537 203 532 208 q 540 190 542 199 q 469 41 531 93 q 299 -11 408 -11 q 119 49 185 -11 q 53 214 53 110 l 53 496 q 119 659 53 597 q 299 721 185 721 q 478 659 413 721 q 544 496 544 597 l 544 313 m 299 582 q 238 554 261 582 q 214 483 214 526 l 214 421 q 221 414 214 414 l 378 414 q 385 421 385 414 l 385 483 q 361 555 385 528 q 299 582 338 582 m 478 938 q 466 946 469 940 q 467 960 463 951 q 492 1002 478 986 q 508 1022 506 1018 q 529 1048 522 1036 q 536 1078 536 1060 q 524 1104 536 1093 q 493 1115 511 1115 q 463 1107 476 1115 q 432 1078 450 1099 q 426 1072 426 1072 q 406 1071 418 1061 l 374 1094 q 369 1118 361 1106 q 425 1174 397 1157 q 497 1192 453 1192 q 587 1160 553 1192 q 621 1078 621 1129 q 608 1028 621 1049 q 571 982 596 1007 q 536 940 544 956 q 515 931 528 929 l 478 938 m 125 799 q 112 803 115 799 q 114 818 108 808 l 201 961 q 221 972 207 972 l 364 972 q 383 961 376 972 l 475 818 q 478 808 478 810 q 464 799 478 799 l 367 799 q 346 810 353 799 l 299 897 q 290 897 294 904 l 242 810 q 221 799 235 799 l 125 799 z "},"ễ":{"ha":592,"x_min":53,"x_max":544,"o":"m 544 313 q 540 301 544 306 q 528 296 535 296 l 221 296 q 214 289 214 296 l 214 226 q 238 156 214 183 q 299 128 261 128 q 353 148 331 128 q 383 200 376 168 q 401 214 388 214 l 525 208 q 537 203 532 208 q 540 190 542 199 q 469 41 531 93 q 299 -11 408 -11 q 119 49 185 -11 q 53 214 53 110 l 53 496 q 119 659 53 597 q 299 721 185 721 q 478 659 413 721 q 544 496 544 597 l 544 313 m 299 582 q 238 554 261 582 q 214 483 214 526 l 214 421 q 221 414 214 414 l 378 414 q 385 421 385 414 l 385 483 q 361 555 385 528 q 299 582 338 582 z "},"ë":{"ha":592,"x_min":53,"x_max":544,"o":"m 544 313 q 540 301 544 306 q 528 296 535 296 l 221 296 q 214 289 214 296 l 214 226 q 238 156 214 183 q 299 128 261 128 q 353 148 331 128 q 383 200 376 168 q 401 214 388 214 l 525 208 q 537 203 532 208 q 540 190 542 199 q 469 41 531 93 q 299 -11 408 -11 q 119 49 185 -11 q 53 214 53 110 l 53 496 q 119 659 53 597 q 299 721 185 721 q 478 659 413 721 q 544 496 544 597 l 544 313 m 299 582 q 238 554 261 582 q 214 483 214 526 l 214 421 q 221 414 214 414 l 378 414 q 385 421 385 414 l 385 483 q 361 555 385 528 q 299 582 338 582 z "},"ė":{"ha":592,"x_min":53,"x_max":544,"o":"m 544 313 q 540 301 544 306 q 528 296 535 296 l 221 296 q 214 289 214 296 l 214 226 q 238 156 214 183 q 299 128 261 128 q 353 148 331 128 q 383 200 376 168 q 401 214 388 214 l 525 208 q 537 203 532 208 q 540 190 542 199 q 469 41 531 93 q 299 -11 408 -11 q 119 49 185 -11 q 53 214 53 110 l 53 496 q 119 659 53 597 q 299 721 185 721 q 478 659 413 721 q 544 496 544 597 l 544 313 m 299 582 q 238 554 261 582 q 214 483 214 526 l 214 421 q 221 414 214 414 l 378 414 q 385 421 385 414 l 385 483 q 361 555 385 528 q 299 582 338 582 m 297 807 q 226 835 254 807 q 199 906 199 863 q 226 976 199 949 q 297 1004 254 1004 q 367 976 340 1004 q 394 906 394 949 q 367 835 394 863 q 297 807 339 807 z "},"ẹ":{"ha":592,"x_min":53,"x_max":544,"o":"m 544 313 q 540 301 544 306 q 528 296 535 296 l 221 296 q 214 289 214 296 l 214 226 q 238 156 214 183 q 299 128 261 128 q 353 148 331 128 q 383 200 376 168 q 401 214 388 214 l 525 208 q 537 203 532 208 q 540 190 542 199 q 469 41 531 93 q 299 -11 408 -11 q 119 49 185 -11 q 53 214 53 110 l 53 496 q 119 659 53 597 q 299 721 185 721 q 478 659 413 721 q 544 496 544 597 l 544 313 m 299 582 q 238 554 261 582 q 214 483 214 526 l 214 421 q 221 414 214 414 l 378 414 q 385 421 385 414 l 385 483 q 361 555 385 528 q 299 582 338 582 m 297 -310 q 229 -283 256 -310 q 203 -215 203 -256 q 229 -149 203 -175 q 297 -122 256 -122 q 364 -149 338 -122 q 390 -215 390 -175 q 364 -283 390 -256 q 297 -310 338 -310 z "},"è":{"ha":592,"x_min":53,"x_max":544,"o":"m 544 313 q 540 301 544 306 q 528 296 535 296 l 221 296 q 214 289 214 296 l 214 226 q 238 156 214 183 q 299 128 261 128 q 353 148 331 128 q 383 200 376 168 q 401 214 388 214 l 525 208 q 537 203 532 208 q 540 190 542 199 q 469 41 531 93 q 299 -11 408 -11 q 119 49 185 -11 q 53 214 53 110 l 53 496 q 119 659 53 597 q 299 721 185 721 q 478 659 413 721 q 544 496 544 597 l 544 313 m 299 582 q 238 554 261 582 q 214 483 214 526 l 214 421 q 221 414 214 414 l 378 414 q 385 421 385 414 l 385 483 q 361 555 385 528 q 299 582 338 582 m 347 810 q 332 799 347 799 l 251 799 q 232 810 239 799 l 131 951 q 126 961 126 958 q 142 972 126 972 l 242 972 q 263 961 257 972 l 344 818 l 347 810 z "},"ẻ":{"ha":592,"x_min":53,"x_max":544,"o":"m 544 313 q 540 301 544 306 q 528 296 535 296 l 221 296 q 214 289 214 296 l 214 226 q 238 156 214 183 q 299 128 261 128 q 353 148 331 128 q 383 200 376 168 q 401 214 388 214 l 525 208 q 537 203 532 208 q 540 190 542 199 q 469 41 531 93 q 299 -11 408 -11 q 119 49 185 -11 q 53 214 53 110 l 53 496 q 119 659 53 597 q 299 721 185 721 q 478 659 413 721 q 544 496 544 597 l 544 313 m 299 582 q 238 554 261 582 q 214 483 214 526 l 214 421 q 221 414 214 414 l 378 414 q 385 421 385 414 l 385 483 q 361 555 385 528 q 299 582 338 582 m 282 769 q 271 790 263 774 q 315 857 285 824 q 338 885 331 872 q 344 917 344 897 q 331 944 344 932 q 300 956 318 956 q 265 947 279 956 q 232 913 251 938 q 218 904 226 904 q 208 908 213 904 l 172 935 q 168 958 160 946 q 227 1018 197 1000 q 303 1036 257 1036 q 398 1003 363 1036 q 433 917 433 971 q 420 865 433 886 q 381 815 407 843 q 344 772 353 788 q 322 761 338 758 l 282 769 z "},"ē":{"ha":592,"x_min":53,"x_max":544,"o":"m 544 313 q 540 301 544 306 q 528 296 535 296 l 221 296 q 214 289 214 296 l 214 226 q 238 156 214 183 q 299 128 261 128 q 353 148 331 128 q 383 200 376 168 q 401 214 388 214 l 525 208 q 537 203 532 208 q 540 190 542 199 q 469 41 531 93 q 299 -11 408 -11 q 119 49 185 -11 q 53 214 53 110 l 53 496 q 119 659 53 597 q 299 721 185 721 q 478 659 413 721 q 544 496 544 597 l 544 313 m 299 582 q 238 554 261 582 q 214 483 214 526 l 214 421 q 221 414 214 414 l 378 414 q 385 421 385 414 l 385 483 q 361 555 385 528 q 299 582 338 582 m 160 838 q 148 842 153 838 q 143 854 143 847 l 143 932 q 148 944 143 939 q 160 949 153 949 l 424 949 q 435 944 431 949 q 440 932 440 939 l 440 854 q 435 842 440 847 q 424 838 431 838 l 160 838 z "},"ę":{"ha":592,"x_min":53,"x_max":544,"o":"m 544 313 q 540 301 544 306 q 528 296 535 296 l 221 296 q 214 289 214 296 l 214 226 q 238 156 214 183 q 299 128 261 128 q 353 148 331 128 q 383 200 376 168 q 401 214 388 214 l 525 208 q 537 203 532 208 q 540 190 542 199 q 482 53 531 104 q 347 -8 433 3 q 340 -12 343 -8 q 289 -110 289 -64 l 290 -122 q 310 -155 296 -146 q 344 -161 325 -164 l 349 -161 q 364 -175 363 -161 l 371 -224 l 371 -229 q 360 -243 371 -239 q 303 -251 329 -251 q 218 -224 253 -251 q 183 -131 183 -196 q 231 -12 183 -68 q 228 -4 236 -7 q 99 70 146 13 q 53 214 53 128 l 53 496 q 119 659 53 597 q 299 721 185 721 q 478 659 413 721 q 544 496 544 597 l 544 313 m 299 582 q 238 554 261 582 q 214 483 214 526 l 214 421 q 221 414 214 414 l 378 414 q 385 421 385 414 l 385 483 q 361 555 385 528 q 299 582 338 582 z "},"ẽ":{"ha":592,"x_min":53,"x_max":544,"o":"m 544 313 q 540 301 544 306 q 528 296 535 296 l 221 296 q 214 289 214 296 l 214 226 q 238 156 214 183 q 299 128 261 128 q 353 148 331 128 q 383 200 376 168 q 401 214 388 214 l 525 208 q 537 203 532 208 q 540 190 542 199 q 469 41 531 93 q 299 -11 408 -11 q 119 49 185 -11 q 53 214 53 110 l 53 496 q 119 659 53 597 q 299 721 185 721 q 478 659 413 721 q 544 496 544 597 l 544 313 m 299 582 q 238 554 261 582 q 214 483 214 526 l 214 421 q 221 414 214 414 l 378 414 q 385 421 385 414 l 385 483 q 361 555 385 528 q 299 582 338 582 m 386 825 q 351 831 368 825 q 311 851 335 838 q 290 864 301 857 q 271 874 279 871 q 251 878 263 878 q 199 846 219 878 q 175 840 189 832 l 131 872 q 124 894 118 881 q 173 960 143 939 q 239 982 203 982 q 281 974 261 982 q 325 950 300 965 q 342 940 331 947 q 363 928 353 932 q 385 924 374 924 q 438 954 418 924 q 460 961 446 971 l 504 931 q 511 917 511 926 q 506 899 511 908 q 449 842 482 860 q 386 825 417 825 z "},"ə":{"ha":592,"x_min":47,"x_max":539,"o":"m 293 721 q 473 660 407 721 q 539 496 539 600 l 539 215 q 472 51 539 114 q 293 -11 406 -11 q 113 51 179 -11 q 47 215 47 114 l 47 397 q 52 409 47 404 q 64 414 57 414 l 371 414 q 378 421 378 414 l 378 483 q 354 556 378 528 q 293 583 331 583 q 239 563 261 583 q 208 510 217 542 q 190 496 204 496 l 67 501 q 55 506 60 501 q 51 518 50 511 q 122 669 61 617 q 293 721 183 721 m 293 128 q 354 156 331 128 q 378 226 378 183 l 378 290 q 371 297 378 297 l 214 297 q 207 290 207 297 l 207 226 q 231 155 207 182 q 293 128 254 128 z "},"ʒ":{"ha":589,"x_min":53,"x_max":547,"o":"m 301 361 q 299 356 299 358 q 304 353 300 353 q 484 242 421 326 q 547 44 547 158 q 501 -127 547 -53 q 375 -241 454 -201 q 203 -281 296 -281 q 74 -261 140 -281 q 60 -242 60 -257 l 64 -135 q 69 -122 64 -126 q 82 -121 74 -118 q 182 -137 132 -137 q 326 -92 267 -137 q 386 56 386 -46 q 343 185 386 132 q 214 238 300 238 q 136 228 176 238 l 131 226 q 115 238 119 226 l 81 318 q 78 328 78 326 q 85 340 78 333 l 300 556 q 301 561 303 558 q 296 564 300 564 l 69 564 q 58 569 63 564 q 53 581 53 574 l 53 693 q 58 705 53 700 q 69 710 63 710 l 486 710 q 498 705 493 710 q 503 693 503 700 l 503 576 q 494 556 503 564 l 301 361 z "},"ǯ":{"ha":589,"x_min":53,"x_max":547,"o":"m 301 361 q 299 356 299 358 q 304 353 300 353 q 484 242 421 326 q 547 44 547 158 q 501 -127 547 -53 q 375 -241 454 -201 q 203 -281 296 -281 q 74 -261 140 -281 q 60 -242 60 -257 l 64 -135 q 69 -122 64 -126 q 82 -121 74 -118 q 182 -137 132 -137 q 326 -92 267 -137 q 386 56 386 -46 q 343 185 386 132 q 214 238 300 238 q 136 228 176 238 l 131 226 q 115 238 119 226 l 81 318 q 78 328 78 326 q 85 340 78 333 l 300 556 q 301 561 303 558 q 296 564 300 564 l 69 564 q 58 569 63 564 q 53 581 53 574 l 53 693 q 58 705 53 700 q 69 710 63 710 l 486 710 q 498 705 493 710 q 503 693 503 700 l 503 576 q 494 556 503 564 l 301 361 z "},"f":{"ha":404,"x_min":31,"x_max":368,"o":"m 351 710 q 363 705 358 710 q 368 693 368 700 l 368 611 q 363 599 368 604 q 351 594 358 594 l 265 594 q 258 588 258 594 l 258 17 q 253 5 258 10 q 242 0 249 0 l 115 0 q 103 5 108 0 q 99 17 99 10 l 99 588 q 92 594 99 594 l 47 594 q 35 599 40 594 q 31 611 31 604 l 31 693 q 35 705 31 700 q 47 710 40 710 l 92 710 q 99 717 99 710 l 99 751 q 156 928 99 876 q 338 978 213 979 l 349 978 q 360 973 356 978 q 365 961 365 968 l 363 867 q 358 855 363 860 q 346 850 353 850 l 339 850 q 278 823 297 849 q 258 744 258 797 l 258 717 q 265 710 258 710 l 351 710 z "},"g":{"ha":599,"x_min":53,"x_max":543,"o":"m 382 693 q 387 705 382 700 q 399 710 392 710 l 526 710 q 538 705 533 710 q 543 693 543 700 l 543 26 q 475 -205 543 -124 q 232 -286 407 -286 q 186 -285 201 -286 q 169 -267 169 -283 l 169 -160 q 188 -144 169 -142 q 309 -125 267 -146 q 367 -64 351 -104 q 382 42 382 -24 l 382 57 q 379 62 382 61 q 374 58 376 63 q 243 -1 328 -1 q 101 59 150 -1 q 53 224 53 119 l 53 496 q 102 662 53 603 q 243 721 151 721 q 374 661 328 721 q 379 658 376 657 q 382 663 382 658 l 382 693 m 299 138 q 359 165 336 138 q 382 235 382 192 l 382 483 q 359 555 382 528 q 299 582 336 582 q 238 554 261 582 q 214 483 214 526 l 214 235 q 238 165 214 192 q 299 138 261 138 z "},"ğ":{"ha":599,"x_min":53,"x_max":543,"o":"m 382 693 q 387 705 382 700 q 399 710 392 710 l 526 710 q 538 705 533 710 q 543 693 543 700 l 543 26 q 475 -205 543 -124 q 232 -286 407 -286 q 186 -285 201 -286 q 169 -267 169 -283 l 169 -160 q 188 -144 169 -142 q 309 -125 267 -146 q 367 -64 351 -104 q 382 42 382 -24 l 382 57 q 379 62 382 61 q 374 58 376 63 q 243 -1 328 -1 q 101 59 150 -1 q 53 224 53 119 l 53 496 q 102 662 53 603 q 243 721 151 721 q 374 661 328 721 q 379 658 376 657 q 382 663 382 658 l 382 693 m 299 138 q 359 165 336 138 q 382 235 382 192 l 382 483 q 359 555 382 528 q 299 582 336 582 q 238 554 261 582 q 214 483 214 526 l 214 235 q 238 165 214 192 q 299 138 261 138 m 301 767 q 192 806 235 767 q 143 908 149 844 l 143 911 q 158 925 143 925 l 213 925 q 231 908 229 925 q 254 859 235 878 q 301 840 274 840 q 349 859 329 840 q 372 908 368 878 q 390 925 375 925 l 444 925 q 460 908 463 925 q 410 806 454 844 q 301 767 367 767 z "},"ǧ":{"ha":599,"x_min":53,"x_max":543,"o":"m 382 693 q 387 705 382 700 q 399 710 392 710 l 526 710 q 538 705 533 710 q 543 693 543 700 l 543 26 q 475 -205 543 -124 q 232 -286 407 -286 q 186 -285 201 -286 q 169 -267 169 -283 l 169 -160 q 188 -144 169 -142 q 309 -125 267 -146 q 367 -64 351 -104 q 382 42 382 -24 l 382 57 q 379 62 382 61 q 374 58 376 63 q 243 -1 328 -1 q 101 59 150 -1 q 53 224 53 119 l 53 496 q 102 662 53 603 q 243 721 151 721 q 374 661 328 721 q 379 658 376 657 q 382 663 382 658 l 382 693 m 299 138 q 359 165 336 138 q 382 235 382 192 l 382 483 q 359 555 382 528 q 299 582 336 582 q 238 554 261 582 q 214 483 214 526 l 214 235 q 238 165 214 192 q 299 138 261 138 z "},"ĝ":{"ha":599,"x_min":53,"x_max":543,"o":"m 382 693 q 387 705 382 700 q 399 710 392 710 l 526 710 q 538 705 533 710 q 543 693 543 700 l 543 26 q 475 -205 543 -124 q 232 -286 407 -286 q 186 -285 201 -286 q 169 -267 169 -283 l 169 -160 q 188 -144 169 -142 q 309 -125 267 -146 q 367 -64 351 -104 q 382 42 382 -24 l 382 57 q 379 62 382 61 q 374 58 376 63 q 243 -1 328 -1 q 101 59 150 -1 q 53 224 53 119 l 53 496 q 102 662 53 603 q 243 721 151 721 q 374 661 328 721 q 379 658 376 657 q 382 663 382 658 l 382 693 m 299 138 q 359 165 336 138 q 382 235 382 192 l 382 483 q 359 555 382 528 q 299 582 336 582 q 238 554 261 582 q 214 483 214 526 l 214 235 q 238 165 214 192 q 299 138 261 138 m 129 799 q 116 803 119 799 q 118 818 113 808 l 206 961 q 225 972 211 972 l 368 972 q 388 961 381 972 l 479 818 q 482 808 482 810 q 468 799 482 799 l 371 799 q 350 810 357 799 l 303 897 q 294 897 299 904 l 246 810 q 225 799 239 799 l 129 799 z "},"ġ":{"ha":599,"x_min":53,"x_max":543,"o":"m 382 693 q 387 705 382 700 q 399 710 392 710 l 526 710 q 538 705 533 710 q 543 693 543 700 l 543 26 q 475 -205 543 -124 q 232 -286 407 -286 q 186 -285 201 -286 q 169 -267 169 -283 l 169 -160 q 188 -144 169 -142 q 309 -125 267 -146 q 367 -64 351 -104 q 382 42 382 -24 l 382 57 q 379 62 382 61 q 374 58 376 63 q 243 -1 328 -1 q 101 59 150 -1 q 53 224 53 119 l 53 496 q 102 662 53 603 q 243 721 151 721 q 374 661 328 721 q 379 658 376 657 q 382 663 382 658 l 382 693 m 299 138 q 359 165 336 138 q 382 235 382 192 l 382 483 q 359 555 382 528 q 299 582 336 582 q 238 554 261 582 q 214 483 214 526 l 214 235 q 238 165 214 192 q 299 138 261 138 m 301 807 q 231 835 258 807 q 203 906 203 863 q 231 976 203 949 q 301 1004 258 1004 q 372 976 344 1004 q 399 906 399 949 q 371 835 399 863 q 301 807 343 807 z "},"ǥ":{"ha":614,"x_min":53,"x_max":606,"o":"m 589 404 q 601 399 596 404 q 606 388 606 394 l 606 322 q 601 310 606 315 q 589 306 596 306 l 550 306 q 543 299 543 306 l 543 26 q 475 -205 543 -124 q 232 -286 407 -286 q 186 -285 201 -286 q 169 -267 169 -283 l 169 -160 q 188 -144 169 -142 q 309 -125 267 -146 q 367 -64 351 -104 q 382 42 382 -24 l 382 57 q 379 62 382 61 q 374 58 376 63 q 243 -1 328 -1 q 101 59 150 -1 q 53 224 53 119 l 53 496 q 102 662 53 603 q 243 721 151 721 q 374 661 328 721 q 379 658 376 657 q 382 663 382 658 l 382 693 q 387 705 382 700 q 399 710 392 710 l 526 710 q 538 705 533 710 q 543 693 543 700 l 543 411 q 550 404 543 404 l 589 404 m 299 138 q 359 165 336 138 q 382 235 382 192 l 382 299 q 375 306 382 306 l 304 306 q 292 310 297 306 q 288 322 288 315 l 288 388 q 292 399 288 394 q 304 404 297 404 l 375 404 q 382 411 382 404 l 382 483 q 359 555 382 528 q 299 582 336 582 q 238 554 261 582 q 214 483 214 526 l 214 235 q 238 165 214 192 q 299 138 261 138 z "},"h":{"ha":610,"x_min":64,"x_max":551,"o":"m 368 721 q 505 660 458 721 q 551 489 551 600 l 551 17 q 547 5 551 10 q 535 0 542 0 l 407 0 q 395 5 400 0 q 390 17 390 10 l 390 476 q 369 554 390 526 q 310 582 349 582 q 247 553 269 582 q 225 472 225 524 l 225 17 q 220 5 225 10 q 208 0 215 0 l 81 0 q 69 5 74 0 q 64 17 64 10 l 64 956 q 69 967 64 963 q 81 972 74 972 l 208 972 q 220 967 215 972 q 225 956 225 963 l 225 665 q 228 660 225 661 q 236 665 232 660 q 368 721 283 721 z "},"ħ":{"ha":610,"x_min":-6,"x_max":551,"o":"m 368 721 q 505 660 458 721 q 551 489 551 600 l 551 17 q 547 5 551 10 q 535 0 542 0 l 407 0 q 395 5 400 0 q 390 17 390 10 l 390 476 q 369 554 390 526 q 310 582 349 582 q 247 553 269 582 q 225 472 225 524 l 225 17 q 220 5 225 10 q 208 0 215 0 l 81 0 q 69 5 74 0 q 64 17 64 10 l 64 758 q 57 765 64 765 l 11 765 q -1 770 4 765 q -6 782 -6 775 l -6 847 q -1 859 -6 854 q 11 864 4 864 l 57 864 q 64 871 64 864 l 64 956 q 69 967 64 963 q 81 972 74 972 l 208 972 q 220 967 215 972 q 225 956 225 963 l 225 871 q 232 864 225 864 l 365 864 q 377 859 372 864 q 382 847 382 854 l 382 782 q 377 770 382 775 q 365 765 372 765 l 232 765 q 225 758 225 765 l 225 665 q 228 660 225 661 q 236 665 232 660 q 368 721 283 721 z "},"ȟ":{"ha":610,"x_min":64,"x_max":551,"o":"m 368 721 q 505 660 458 721 q 551 489 551 600 l 551 17 q 547 5 551 10 q 535 0 542 0 l 407 0 q 395 5 400 0 q 390 17 390 10 l 390 476 q 369 554 390 526 q 310 582 349 582 q 247 553 269 582 q 225 472 225 524 l 225 17 q 220 5 225 10 q 208 0 215 0 l 81 0 q 69 5 74 0 q 64 17 64 10 l 64 956 q 69 967 64 963 q 81 972 74 972 l 208 972 q 220 967 215 972 q 225 956 225 963 l 225 665 q 228 660 225 661 q 236 665 232 660 q 368 721 283 721 z "},"ĥ":{"ha":610,"x_min":64,"x_max":551,"o":"m 368 721 q 505 660 458 721 q 551 489 551 600 l 551 17 q 547 5 551 10 q 535 0 542 0 l 407 0 q 395 5 400 0 q 390 17 390 10 l 390 476 q 369 554 390 526 q 310 582 349 582 q 247 553 269 582 q 225 472 225 524 l 225 17 q 220 5 225 10 q 208 0 215 0 l 81 0 q 69 5 74 0 q 64 17 64 10 l 64 956 q 69 967 64 963 q 81 972 74 972 l 208 972 q 220 967 215 972 q 225 956 225 963 l 225 665 q 228 660 225 661 q 236 665 232 660 q 368 721 283 721 m 149 1042 q 135 1047 139 1042 q 138 1061 132 1051 l 225 1204 q 244 1215 231 1215 l 388 1215 q 407 1204 400 1215 l 499 1061 q 501 1051 501 1053 q 488 1042 501 1042 l 390 1042 q 369 1053 376 1042 l 322 1140 q 314 1140 318 1147 l 265 1053 q 244 1042 258 1042 l 149 1042 z "},"i":{"ha":299,"x_min":50,"x_max":246,"o":"m 149 807 q 78 835 106 807 q 50 906 50 863 q 78 976 50 949 q 149 1004 106 1004 q 219 976 192 1004 q 246 906 246 949 q 218 835 246 863 q 149 807 190 807 m 86 0 q 74 5 79 0 q 69 17 69 10 l 69 693 q 74 705 69 700 q 86 710 79 710 l 214 710 q 226 705 221 710 q 231 693 231 700 l 231 17 q 226 5 231 10 q 214 0 221 0 l 86 0 z "},"ı":{"ha":253,"x_min":46,"x_max":207,"o":"m 63 0 q 51 5 56 0 q 46 17 46 10 l 46 693 q 51 705 46 700 q 63 710 56 710 l 190 710 q 202 705 197 710 q 207 693 207 700 l 207 17 q 202 5 207 10 q 190 0 197 0 l 63 0 z "},"í":{"ha":253,"x_min":44,"x_max":269,"o":"m 63 0 q 51 5 56 0 q 46 17 46 10 l 46 693 q 51 705 46 700 q 63 710 56 710 l 190 710 q 202 705 197 710 q 207 693 207 700 l 207 17 q 202 5 207 10 q 190 0 197 0 l 63 0 m 63 799 q 49 804 53 799 q 50 818 44 810 l 132 961 q 153 972 138 972 l 253 972 q 267 966 264 972 q 264 951 269 960 l 161 808 q 142 799 154 799 l 63 799 z "},"ĭ":{"ha":253,"x_min":-31,"x_max":288,"o":"m 63 0 q 51 5 56 0 q 46 17 46 10 l 46 693 q 51 705 46 700 q 63 710 56 710 l 190 710 q 202 705 197 710 q 207 693 207 700 l 207 17 q 202 5 207 10 q 190 0 197 0 l 63 0 m 128 792 q 18 831 61 792 q -31 933 -25 869 l -31 936 q -15 950 -31 950 l 39 950 q 57 933 54 950 q 81 884 61 903 q 128 865 100 865 q 174 884 154 865 q 199 933 193 903 q 217 950 200 950 l 271 950 q 286 933 288 950 q 237 831 281 869 q 128 792 193 792 z "},"î":{"ha":253,"x_min":-61,"x_max":308,"o":"m 63 0 q 51 5 56 0 q 46 17 46 10 l 46 693 q 51 705 46 700 q 63 710 56 710 l 190 710 q 202 705 197 710 q 207 693 207 700 l 207 17 q 202 5 207 10 q 190 0 197 0 l 63 0 m -44 799 q -58 803 -54 799 q -56 818 -61 808 l 32 961 q 51 972 38 972 l 194 972 q 214 961 207 972 l 306 818 q 308 808 308 810 q 294 799 308 799 l 197 799 q 176 810 183 799 l 129 897 q 121 897 125 904 l 72 810 q 51 799 65 799 l -44 799 z "},"ï":{"ha":253,"x_min":-92,"x_max":343,"o":"m 63 0 q 51 5 56 0 q 46 17 46 10 l 46 693 q 51 705 46 700 q 63 710 56 710 l 190 710 q 202 705 197 710 q 207 693 207 700 l 207 17 q 202 5 207 10 q 190 0 197 0 l 63 0 z "},"ị":{"ha":299,"x_min":50,"x_max":246,"o":"m 149 807 q 78 835 106 807 q 50 906 50 863 q 78 976 50 949 q 149 1004 106 1004 q 219 976 192 1004 q 246 906 246 949 q 218 835 246 863 q 149 807 190 807 m 86 0 q 74 5 79 0 q 69 17 69 10 l 69 693 q 74 705 69 700 q 86 710 79 710 l 214 710 q 226 705 221 710 q 231 693 231 700 l 231 17 q 226 5 231 10 q 214 0 221 0 l 86 0 m 150 -310 q 82 -283 108 -310 q 56 -215 56 -256 q 82 -149 56 -175 q 150 -122 108 -122 q 217 -149 190 -122 q 243 -215 243 -175 q 217 -283 243 -256 q 150 -310 190 -310 z "},"ì":{"ha":253,"x_min":-43,"x_max":207,"o":"m 63 0 q 51 5 56 0 q 46 17 46 10 l 46 693 q 51 705 46 700 q 63 710 56 710 l 190 710 q 202 705 197 710 q 207 693 207 700 l 207 17 q 202 5 207 10 q 190 0 197 0 l 63 0 m 178 810 q 163 799 178 799 l 82 799 q 63 810 69 799 l -39 951 q -43 961 -43 958 q -28 972 -43 972 l 72 972 q 93 961 88 972 l 175 818 l 178 810 z "},"ỉ":{"ha":253,"x_min":-10,"x_max":264,"o":"m 63 0 q 51 5 56 0 q 46 17 46 10 l 46 693 q 51 705 46 700 q 63 710 56 710 l 190 710 q 202 705 197 710 q 207 693 207 700 l 207 17 q 202 5 207 10 q 190 0 197 0 l 63 0 m 113 769 q 101 790 93 774 q 146 857 115 824 q 168 885 161 872 q 175 917 175 897 q 162 944 175 932 q 131 956 149 956 q 96 947 110 956 q 63 913 82 938 q 49 904 57 904 q 39 908 43 904 l 3 935 q -1 958 -10 946 q 58 1018 28 1000 q 133 1036 88 1036 q 228 1003 193 1036 q 264 917 264 971 q 251 865 264 886 q 211 815 238 843 q 175 772 183 788 q 153 761 168 758 l 113 769 z "},"ĳ":{"ha":588,"x_min":50,"x_max":536,"o":"m 149 807 q 78 835 106 807 q 50 906 50 863 q 78 976 50 949 q 149 1004 106 1004 q 219 976 192 1004 q 246 906 246 949 q 218 835 246 863 q 149 807 190 807 m 86 0 q 74 5 79 0 q 69 17 69 10 l 69 693 q 74 705 69 700 q 86 710 79 710 l 214 710 q 226 705 221 710 q 231 693 231 700 l 231 17 q 226 5 231 10 q 214 0 221 0 l 86 0 m 439 807 q 368 835 396 807 q 340 906 340 863 q 368 976 340 949 q 439 1004 396 1004 q 509 976 482 1004 q 536 906 536 949 q 508 835 536 863 q 439 807 481 807 m 246 -285 q 229 -268 229 -285 l 229 -164 q 246 -147 229 -147 q 333 -114 307 -146 q 358 -22 358 -82 l 358 693 q 363 705 358 700 q 375 710 368 710 l 503 710 q 515 705 510 710 q 519 693 519 700 l 519 -22 q 501 -170 519 -115 q 424 -256 483 -225 q 246 -285 364 -286 z "},"ī":{"ha":253,"x_min":-26,"x_max":271,"o":"m 63 0 q 51 5 56 0 q 46 17 46 10 l 46 693 q 51 705 46 700 q 63 710 56 710 l 190 710 q 202 705 197 710 q 207 693 207 700 l 207 17 q 202 5 207 10 q 190 0 197 0 l 63 0 m -10 814 q -22 819 -17 814 q -26 831 -26 824 l -26 908 q -22 920 -26 915 q -10 925 -17 925 l 254 925 q 266 920 261 925 q 271 908 271 915 l 271 831 q 266 819 271 824 q 254 814 261 814 l -10 814 z "},"į":{"ha":313,"x_min":64,"x_max":261,"o":"m 99 0 q 87 5 92 0 q 82 17 82 10 l 82 693 q 87 705 82 700 q 99 710 92 710 l 226 710 q 238 705 233 710 q 243 693 243 700 l 243 17 q 238 5 243 10 q 226 0 233 0 l 99 0 m 164 807 q 93 835 121 807 q 65 906 65 863 q 93 976 65 949 q 164 1004 121 1004 q 234 976 207 1004 q 261 906 261 949 q 233 835 261 863 q 164 807 206 807 m 251 -239 q 239 -254 251 -250 q 182 -262 208 -262 q 98 -235 132 -262 q 64 -142 64 -207 q 128 -8 64 -71 q 149 0 136 0 l 215 0 q 225 -3 221 0 q 229 -8 229 -6 q 222 -21 229 -14 q 169 -119 169 -71 q 171 -133 169 -129 q 191 -166 176 -157 q 225 -172 206 -175 l 229 -172 q 244 -185 243 -172 l 251 -235 l 251 -239 z "},"ĩ":{"ha":253,"x_min":-51,"x_max":342,"o":"m 63 0 q 51 5 56 0 q 46 17 46 10 l 46 693 q 51 705 46 700 q 63 710 56 710 l 190 710 q 202 705 197 710 q 207 693 207 700 l 207 17 q 202 5 207 10 q 190 0 197 0 l 63 0 m 217 825 q 182 831 199 825 q 142 851 165 838 q 121 864 132 857 q 101 874 110 871 q 82 878 93 878 q 29 846 50 878 q 6 840 19 832 l -39 872 q -46 894 -51 881 q 3 960 -26 939 q 69 982 33 982 q 111 974 92 982 q 156 950 131 965 q 172 940 161 947 q 194 928 183 932 q 215 924 204 924 q 268 954 249 924 q 290 961 276 971 l 335 931 q 342 917 342 926 q 336 899 342 908 q 280 842 313 860 q 217 825 247 825 z "},"j":{"ha":293,"x_min":-65,"x_max":242,"o":"m 144 807 q 74 835 101 807 q 46 906 46 863 q 74 976 46 949 q 144 1004 101 1004 q 215 976 188 1004 q 242 906 242 949 q 214 835 242 863 q 144 807 186 807 m -49 -285 q -65 -268 -65 -285 l -65 -164 q -49 -147 -65 -147 q 38 -114 13 -146 q 64 -22 64 -82 l 64 693 q 69 705 64 700 q 81 710 74 710 l 208 710 q 220 705 215 710 q 225 693 225 700 l 225 -22 q 207 -170 225 -115 q 129 -256 189 -225 q -49 -285 69 -286 z "},"ȷ":{"ha":294,"x_min":-65,"x_max":225,"o":"m -49 -285 q -65 -268 -65 -285 l -65 -164 q -49 -147 -65 -147 q 38 -114 13 -146 q 64 -22 64 -82 l 64 693 q 69 705 64 700 q 81 710 74 710 l 208 710 q 220 705 215 710 q 225 693 225 700 l 225 -22 q 207 -170 225 -115 q 129 -256 189 -225 q -49 -285 69 -286 z "},"ĵ":{"ha":294,"x_min":-65,"x_max":326,"o":"m -49 -285 q -65 -268 -65 -285 l -65 -164 q -49 -147 -65 -147 q 38 -114 13 -146 q 64 -22 64 -82 l 64 693 q 69 705 64 700 q 81 710 74 710 l 208 710 q 220 705 215 710 q 225 693 225 700 l 225 -22 q 207 -170 225 -115 q 129 -256 189 -225 q -49 -285 69 -286 m -26 799 q -40 803 -36 799 q -37 818 -43 808 l 50 961 q 69 972 56 972 l 213 972 q 232 961 225 972 l 324 818 q 326 808 326 810 q 313 799 326 799 l 215 799 q 194 810 201 799 l 147 897 q 139 897 143 904 l 90 810 q 69 799 83 799 l -26 799 z "},"k":{"ha":601,"x_min":64,"x_max":569,"o":"m 81 0 q 69 5 74 0 q 64 17 64 10 l 64 956 q 69 967 64 963 q 81 972 74 972 l 208 972 q 220 967 215 972 q 225 956 225 963 l 225 461 q 228 456 225 456 q 233 460 231 456 l 385 699 q 404 710 390 710 l 538 710 q 550 703 547 710 q 547 689 553 697 l 403 471 q 401 461 400 465 l 568 19 q 569 13 569 17 q 554 0 569 0 l 422 0 q 404 14 408 0 l 301 328 q 297 333 300 332 q 293 329 294 333 l 228 232 q 225 224 225 226 l 225 17 q 220 5 225 10 q 208 0 215 0 l 81 0 z "},"ǩ":{"ha":601,"x_min":64,"x_max":569,"o":"m 81 0 q 69 5 74 0 q 64 17 64 10 l 64 956 q 69 967 64 963 q 81 972 74 972 l 208 972 q 220 967 215 972 q 225 956 225 963 l 225 461 q 228 456 225 456 q 233 460 231 456 l 385 699 q 404 710 390 710 l 538 710 q 550 703 547 710 q 547 689 553 697 l 403 471 q 401 461 400 465 l 568 19 q 569 13 569 17 q 554 0 569 0 l 422 0 q 404 14 408 0 l 301 328 q 297 333 300 332 q 293 329 294 333 l 228 232 q 225 224 225 226 l 225 17 q 220 5 225 10 q 208 0 215 0 l 81 0 z "},"l":{"ha":276,"x_min":58,"x_max":219,"o":"m 75 0 q 63 5 68 0 q 58 17 58 10 l 58 956 q 63 967 58 963 q 75 972 68 972 l 203 972 q 215 967 210 972 q 219 956 219 963 l 219 17 q 215 5 219 10 q 203 0 210 0 l 75 0 z "},"ĺ":{"ha":276,"x_min":58,"x_max":283,"o":"m 75 0 q 63 5 68 0 q 58 17 58 10 l 58 956 q 63 967 58 963 q 75 972 68 972 l 203 972 q 215 967 210 972 q 219 956 219 963 l 219 17 q 215 5 219 10 q 203 0 210 0 l 75 0 m 76 1061 q 63 1067 67 1061 q 64 1081 58 1072 l 146 1224 q 167 1235 151 1235 l 267 1235 q 281 1228 278 1235 q 278 1214 283 1222 l 175 1071 q 156 1061 168 1061 l 76 1061 z "},"ľ":{"ha":526,"x_min":58,"x_max":482,"o":"m 75 0 q 63 5 68 0 q 58 17 58 10 l 58 956 q 63 967 58 963 q 75 972 68 972 l 203 972 q 215 967 210 972 q 219 956 219 963 l 219 17 q 215 5 219 10 q 203 0 210 0 l 75 0 z "},"ļ":{"ha":276,"x_min":-37,"x_max":219,"o":"m 75 0 q 63 5 68 0 q 58 17 58 10 l 58 956 q 63 967 58 963 q 75 972 68 972 l 203 972 q 215 967 210 972 q 219 956 219 963 l 219 17 q 215 5 219 10 q 203 0 210 0 l 75 0 z "},"ŀ":{"ha":314,"x_min":60,"x_max":256,"o":"m 93 0 q 81 5 86 0 q 76 17 76 10 l 76 956 q 81 967 76 963 q 93 972 86 972 l 221 972 q 233 967 228 972 q 238 956 238 963 l 238 17 q 233 5 238 10 q 221 0 228 0 l 93 0 z "},"ł":{"ha":490,"x_min":24,"x_max":467,"o":"m 464 550 q 467 542 467 544 q 458 528 467 535 l 321 451 q 317 443 317 449 l 317 17 q 312 5 317 10 q 300 0 307 0 l 172 0 q 160 5 165 0 q 156 17 156 10 l 156 349 q 153 355 156 353 q 147 354 150 357 l 89 321 q 79 318 83 318 q 65 328 69 318 l 25 404 q 24 413 24 407 q 32 426 24 421 l 151 493 q 156 501 156 496 l 156 956 q 160 967 156 963 q 172 972 165 972 l 300 972 q 312 967 307 972 q 317 956 317 963 l 317 596 q 319 590 317 592 q 325 590 322 589 l 399 633 q 407 636 404 636 q 422 626 417 636 l 464 550 z "},"m":{"ha":924,"x_min":64,"x_max":865,"o":"m 682 721 q 819 658 772 721 q 865 482 865 594 l 865 17 q 860 5 865 10 q 849 0 856 0 l 722 0 q 710 5 715 0 q 706 17 706 10 l 706 471 q 685 553 706 524 q 628 582 664 582 q 567 553 589 582 q 544 472 544 524 l 544 17 q 540 5 544 10 q 528 0 535 0 l 401 0 q 390 5 394 0 q 385 17 385 10 l 385 471 q 363 553 385 524 q 307 582 342 582 q 246 553 268 582 q 224 472 224 524 l 224 17 q 219 5 224 10 q 207 0 214 0 l 81 0 q 69 5 74 0 q 64 17 64 10 l 64 693 q 69 705 64 700 q 81 710 74 710 l 207 710 q 219 705 214 710 q 224 693 224 700 l 224 671 q 226 665 224 667 q 232 668 229 664 q 294 708 260 696 q 363 721 329 721 q 514 633 465 721 q 526 638 518 628 q 597 701 554 682 q 682 721 639 721 z "},"n":{"ha":610,"x_min":64,"x_max":551,"o":"m 368 721 q 505 660 458 721 q 551 489 551 600 l 551 17 q 547 5 551 10 q 535 0 542 0 l 407 0 q 395 5 400 0 q 390 17 390 10 l 390 476 q 369 554 390 526 q 310 582 349 582 q 247 553 269 582 q 225 472 225 524 l 225 17 q 220 5 225 10 q 208 0 215 0 l 81 0 q 69 5 74 0 q 64 17 64 10 l 64 693 q 69 705 64 700 q 81 710 74 710 l 208 710 q 220 705 215 710 q 225 693 225 700 l 225 665 q 228 660 225 661 q 236 665 232 660 q 368 721 283 721 z "},"ń":{"ha":610,"x_min":64,"x_max":551,"o":"m 368 721 q 505 660 458 721 q 551 489 551 600 l 551 17 q 547 5 551 10 q 535 0 542 0 l 407 0 q 395 5 400 0 q 390 17 390 10 l 390 476 q 369 554 390 526 q 310 582 349 582 q 247 553 269 582 q 225 472 225 524 l 225 17 q 220 5 225 10 q 208 0 215 0 l 81 0 q 69 5 74 0 q 64 17 64 10 l 64 693 q 69 705 64 700 q 81 710 74 710 l 208 710 q 220 705 215 710 q 225 693 225 700 l 225 665 q 228 660 225 661 q 236 665 232 660 q 368 721 283 721 m 246 799 q 232 804 236 799 q 233 818 228 810 l 315 961 q 336 972 321 972 l 436 972 q 450 966 447 972 q 447 951 453 960 l 344 808 q 325 799 338 799 l 246 799 z "},"ň":{"ha":610,"x_min":64,"x_max":551,"o":"m 368 721 q 505 660 458 721 q 551 489 551 600 l 551 17 q 547 5 551 10 q 535 0 542 0 l 407 0 q 395 5 400 0 q 390 17 390 10 l 390 476 q 369 554 390 526 q 310 582 349 582 q 247 553 269 582 q 225 472 225 524 l 225 17 q 220 5 225 10 q 208 0 215 0 l 81 0 q 69 5 74 0 q 64 17 64 10 l 64 693 q 69 705 64 700 q 81 710 74 710 l 208 710 q 220 705 215 710 q 225 693 225 700 l 225 665 q 228 660 225 661 q 236 665 232 660 q 368 721 283 721 m 133 953 q 131 963 131 961 q 144 972 131 972 l 240 972 q 261 961 254 972 l 310 875 q 318 875 314 869 l 365 961 q 386 972 372 972 l 483 972 q 497 967 493 972 q 494 953 500 963 l 403 810 q 383 799 396 799 l 240 799 q 221 810 226 799 l 133 953 z "},"ŋ":{"ha":610,"x_min":64,"x_max":551,"o":"m 368 721 q 505 660 458 721 q 551 489 551 600 l 551 0 q 537 -135 551 -85 q 469 -217 522 -186 q 304 -249 415 -249 q 283 -232 283 -249 l 283 -129 q 300 -112 283 -112 q 374 -82 357 -111 q 390 8 390 -53 l 390 476 q 369 554 390 526 q 310 582 349 582 q 247 553 269 582 q 225 472 225 524 l 225 17 q 220 5 225 10 q 208 0 215 0 l 81 0 q 69 5 74 0 q 64 17 64 10 l 64 693 q 69 705 64 700 q 81 710 74 710 l 208 710 q 220 705 215 710 q 225 693 225 700 l 225 665 q 228 660 225 661 q 236 665 232 660 q 368 721 283 721 z "},"ñ":{"ha":610,"x_min":64,"x_max":551,"o":"m 267 878 q 218 847 238 878 q 194 842 208 831 l 154 872 q 147 894 143 881 q 192 960 164 939 q 256 982 221 982 q 333 950 290 982 q 351 939 340 946 q 370 928 361 932 q 389 924 379 924 q 438 954 419 924 q 449 963 442 961 q 461 960 456 965 l 500 931 q 506 908 511 921 q 454 844 486 864 q 390 825 422 825 q 358 831 374 825 q 321 851 343 838 q 302 864 313 857 q 284 874 292 871 q 267 878 276 878 m 368 721 q 505 660 458 721 q 551 489 551 600 l 551 17 q 547 5 551 10 q 535 0 542 0 l 407 0 q 395 5 400 0 q 390 17 390 10 l 390 476 q 369 554 390 526 q 310 582 349 582 q 247 553 269 582 q 225 472 225 524 l 225 17 q 220 5 225 10 q 208 0 215 0 l 81 0 q 69 5 74 0 q 64 17 64 10 l 64 693 q 69 705 64 700 q 81 710 74 710 l 208 710 q 220 705 215 710 q 225 693 225 700 l 225 665 q 228 660 225 661 q 236 665 232 660 q 368 721 283 721 z "},"o":{"ha":600,"x_min":53,"x_max":549,"o":"m 300 -11 q 119 50 185 -11 q 53 215 53 111 l 53 494 q 119 659 53 597 q 300 721 186 721 q 482 659 415 721 q 549 494 549 597 l 549 215 q 483 50 549 111 q 300 -11 417 -11 m 300 129 q 363 156 339 129 q 388 228 388 183 l 388 483 q 363 554 388 526 q 300 582 339 582 q 238 555 261 582 q 214 483 214 528 l 214 228 q 238 156 214 183 q 300 129 261 129 z "},"ó":{"ha":600,"x_min":53,"x_max":549,"o":"m 300 -11 q 119 50 185 -11 q 53 215 53 111 l 53 494 q 119 659 53 597 q 300 721 186 721 q 482 659 415 721 q 549 494 549 597 l 549 215 q 483 50 549 111 q 300 -11 417 -11 m 300 129 q 363 156 339 129 q 388 228 388 183 l 388 483 q 363 554 388 526 q 300 582 339 582 q 238 555 261 582 q 214 483 214 528 l 214 228 q 238 156 214 183 q 300 129 261 129 m 236 799 q 222 804 226 799 q 224 818 218 810 l 306 961 q 326 972 311 972 l 426 972 q 440 966 438 972 q 438 951 443 960 l 335 808 q 315 799 328 799 l 236 799 z "},"ŏ":{"ha":600,"x_min":53,"x_max":549,"o":"m 300 -11 q 119 50 185 -11 q 53 215 53 111 l 53 494 q 119 659 53 597 q 300 721 186 721 q 482 659 415 721 q 549 494 549 597 l 549 215 q 483 50 549 111 q 300 -11 417 -11 m 300 129 q 363 156 339 129 q 388 228 388 183 l 388 483 q 363 554 388 526 q 300 582 339 582 q 238 555 261 582 q 214 483 214 528 l 214 228 q 238 156 214 183 q 300 129 261 129 m 301 792 q 192 831 235 792 q 143 933 149 869 l 143 936 q 158 950 143 950 l 213 950 q 231 933 228 950 q 254 884 235 903 q 301 865 274 865 q 347 884 328 865 q 372 933 367 903 q 390 950 374 950 l 444 950 q 460 933 461 950 q 410 831 454 869 q 301 792 367 792 z "},"ô":{"ha":600,"x_min":53,"x_max":549,"o":"m 300 -11 q 119 50 185 -11 q 53 215 53 111 l 53 494 q 119 659 53 597 q 300 721 186 721 q 482 659 415 721 q 549 494 549 597 l 549 215 q 483 50 549 111 q 300 -11 417 -11 m 300 129 q 363 156 339 129 q 388 228 388 183 l 388 483 q 363 554 388 526 q 300 582 339 582 q 238 555 261 582 q 214 483 214 528 l 214 228 q 238 156 214 183 q 300 129 261 129 m 129 799 q 116 803 119 799 q 118 818 113 808 l 206 961 q 225 972 211 972 l 368 972 q 388 961 381 972 l 479 818 q 482 808 482 810 q 468 799 482 799 l 371 799 q 350 810 357 799 l 303 897 q 294 897 299 904 l 246 810 q 225 799 239 799 l 129 799 z "},"ố":{"ha":600,"x_min":53,"x_max":697,"o":"m 300 -11 q 119 50 185 -11 q 53 215 53 111 l 53 494 q 119 659 53 597 q 300 721 186 721 q 482 659 415 721 q 549 494 549 597 l 549 215 q 483 50 549 111 q 300 -11 417 -11 m 300 129 q 363 156 339 129 q 388 228 388 183 l 388 483 q 363 554 388 526 q 300 582 339 582 q 238 555 261 582 q 214 483 214 528 l 214 228 q 238 156 214 183 q 300 129 261 129 z "},"ộ":{"ha":600,"x_min":53,"x_max":549,"o":"m 300 -11 q 119 50 185 -11 q 53 215 53 111 l 53 494 q 119 659 53 597 q 300 721 186 721 q 482 659 415 721 q 549 494 549 597 l 549 215 q 483 50 549 111 q 300 -11 417 -11 m 300 129 q 363 156 339 129 q 388 228 388 183 l 388 483 q 363 554 388 526 q 300 582 339 582 q 238 555 261 582 q 214 483 214 528 l 214 228 q 238 156 214 183 q 300 129 261 129 m 301 -310 q 233 -283 260 -310 q 207 -215 207 -256 q 233 -149 207 -175 q 301 -122 260 -122 q 368 -149 342 -122 q 394 -215 394 -175 q 368 -283 394 -256 q 301 -310 342 -310 m 129 799 q 116 803 119 799 q 118 818 113 808 l 206 961 q 225 972 211 972 l 368 972 q 388 961 381 972 l 479 818 q 482 808 482 810 q 468 799 482 799 l 371 799 q 350 810 357 799 l 303 897 q 294 897 299 904 l 246 810 q 225 799 239 799 l 129 799 z "},"ồ":{"ha":600,"x_min":53,"x_max":569,"o":"m 300 -11 q 119 50 185 -11 q 53 215 53 111 l 53 494 q 119 659 53 597 q 300 721 186 721 q 482 659 415 721 q 549 494 549 597 l 549 215 q 483 50 549 111 q 300 -11 417 -11 m 300 129 q 363 156 339 129 q 388 228 388 183 l 388 483 q 363 554 388 526 q 300 582 339 582 q 238 555 261 582 q 214 483 214 528 l 214 228 q 238 156 214 183 q 300 129 261 129 z "},"ổ":{"ha":600,"x_min":53,"x_max":625,"o":"m 300 -11 q 119 50 185 -11 q 53 215 53 111 l 53 494 q 119 659 53 597 q 300 721 186 721 q 482 659 415 721 q 549 494 549 597 l 549 215 q 483 50 549 111 q 300 -11 417 -11 m 300 129 q 363 156 339 129 q 388 228 388 183 l 388 483 q 363 554 388 526 q 300 582 339 582 q 238 555 261 582 q 214 483 214 528 l 214 228 q 238 156 214 183 q 300 129 261 129 m 482 938 q 470 946 474 940 q 471 960 467 951 q 496 1002 482 986 q 513 1022 510 1018 q 533 1048 526 1036 q 540 1078 540 1060 q 528 1104 540 1093 q 497 1115 515 1115 q 467 1107 481 1115 q 436 1078 454 1099 q 431 1072 431 1072 q 410 1071 422 1061 l 378 1094 q 374 1118 365 1106 q 429 1174 401 1157 q 501 1192 457 1192 q 591 1160 557 1192 q 625 1078 625 1129 q 613 1028 625 1049 q 575 982 600 1007 q 540 940 549 956 q 519 931 532 929 l 482 938 m 129 799 q 116 803 119 799 q 118 818 113 808 l 206 961 q 225 972 211 972 l 368 972 q 388 961 381 972 l 479 818 q 482 808 482 810 q 468 799 482 799 l 371 799 q 350 810 357 799 l 303 897 q 294 897 299 904 l 246 810 q 225 799 239 799 l 129 799 z "},"ỗ":{"ha":600,"x_min":53,"x_max":549,"o":"m 300 -11 q 119 50 185 -11 q 53 215 53 111 l 53 494 q 119 659 53 597 q 300 721 186 721 q 482 659 415 721 q 549 494 549 597 l 549 215 q 483 50 549 111 q 300 -11 417 -11 m 300 129 q 363 156 339 129 q 388 228 388 183 l 388 483 q 363 554 388 526 q 300 582 339 582 q 238 555 261 582 q 214 483 214 528 l 214 228 q 238 156 214 183 q 300 129 261 129 z "},"ö":{"ha":600,"x_min":53,"x_max":549,"o":"m 300 -11 q 119 50 185 -11 q 53 215 53 111 l 53 494 q 119 659 53 597 q 300 721 186 721 q 482 659 415 721 q 549 494 549 597 l 549 215 q 483 50 549 111 q 300 -11 417 -11 m 300 129 q 363 156 339 129 q 388 228 388 183 l 388 483 q 363 554 388 526 q 300 582 339 582 q 238 555 261 582 q 214 483 214 528 l 214 228 q 238 156 214 183 q 300 129 261 129 z "},"ọ":{"ha":600,"x_min":53,"x_max":549,"o":"m 300 -11 q 119 50 185 -11 q 53 215 53 111 l 53 494 q 119 659 53 597 q 300 721 186 721 q 482 659 415 721 q 549 494 549 597 l 549 215 q 483 50 549 111 q 300 -11 417 -11 m 300 129 q 363 156 339 129 q 388 228 388 183 l 388 483 q 363 554 388 526 q 300 582 339 582 q 238 555 261 582 q 214 483 214 528 l 214 228 q 238 156 214 183 q 300 129 261 129 m 301 -310 q 233 -283 260 -310 q 207 -215 207 -256 q 233 -149 207 -175 q 301 -122 260 -122 q 368 -149 342 -122 q 394 -215 394 -175 q 368 -283 394 -256 q 301 -310 342 -310 z "},"ò":{"ha":600,"x_min":53,"x_max":549,"o":"m 300 -11 q 119 50 185 -11 q 53 215 53 111 l 53 494 q 119 659 53 597 q 300 721 186 721 q 482 659 415 721 q 549 494 549 597 l 549 215 q 483 50 549 111 q 300 -11 417 -11 m 300 129 q 363 156 339 129 q 388 228 388 183 l 388 483 q 363 554 388 526 q 300 582 339 582 q 238 555 261 582 q 214 483 214 528 l 214 228 q 238 156 214 183 q 300 129 261 129 m 351 810 q 336 799 351 799 l 256 799 q 236 810 243 799 l 135 951 q 131 961 131 958 q 146 972 131 972 l 246 972 q 267 961 261 972 l 349 818 l 351 810 z "},"ỏ":{"ha":600,"x_min":53,"x_max":549,"o":"m 300 -11 q 119 50 185 -11 q 53 215 53 111 l 53 494 q 119 659 53 597 q 300 721 186 721 q 482 659 415 721 q 549 494 549 597 l 549 215 q 483 50 549 111 q 300 -11 417 -11 m 300 129 q 363 156 339 129 q 388 228 388 183 l 388 483 q 363 554 388 526 q 300 582 339 582 q 238 555 261 582 q 214 483 214 528 l 214 228 q 238 156 214 183 q 300 129 261 129 m 286 769 q 275 790 267 774 q 319 857 289 824 q 342 885 335 872 q 349 917 349 897 q 335 944 349 932 q 304 956 322 956 q 269 947 283 956 q 236 913 256 938 q 222 904 231 904 q 213 908 217 904 l 176 935 q 172 958 164 946 q 231 1018 201 1000 q 307 1036 261 1036 q 402 1003 367 1036 q 438 917 438 971 q 424 865 438 886 q 385 815 411 843 q 349 772 357 788 q 326 761 342 758 l 286 769 z "},"ơ":{"ha":600,"x_min":53,"x_max":557,"o":"m 486 665 q 485 656 481 661 q 549 494 549 596 l 549 215 q 483 50 549 111 q 300 -11 417 -11 q 119 50 185 -11 q 53 215 53 111 l 53 494 q 119 659 53 597 q 300 721 186 721 q 383 711 340 721 q 392 710 386 710 q 444 738 422 714 q 469 808 465 761 q 486 825 469 825 l 540 825 q 552 819 547 825 q 556 801 557 813 q 486 665 547 708 m 388 483 q 363 554 388 526 q 300 582 339 582 q 238 555 261 582 q 214 483 214 528 l 214 228 q 238 156 214 183 q 300 129 261 129 q 363 156 339 129 q 388 228 388 183 l 388 483 z "},"ớ":{"ha":600,"x_min":53,"x_max":557,"o":"m 486 665 q 485 656 481 661 q 549 494 549 596 l 549 215 q 483 50 549 111 q 300 -11 417 -11 q 119 50 185 -11 q 53 215 53 111 l 53 494 q 119 659 53 597 q 300 721 186 721 q 383 711 340 721 q 392 710 386 710 q 444 738 422 714 q 469 808 465 761 q 486 825 469 825 l 540 825 q 552 819 547 825 q 556 801 557 813 q 486 665 547 708 m 388 483 q 363 554 388 526 q 300 582 339 582 q 238 555 261 582 q 214 483 214 528 l 214 228 q 238 156 214 183 q 300 129 261 129 q 363 156 339 129 q 388 228 388 183 l 388 483 m 236 799 q 222 804 226 799 q 224 818 218 810 l 306 961 q 326 972 311 972 l 426 972 q 440 966 438 972 q 438 951 443 960 l 335 808 q 315 799 328 799 l 236 799 z "},"ợ":{"ha":600,"x_min":53,"x_max":557,"o":"m 486 665 q 485 656 481 661 q 549 494 549 596 l 549 215 q 483 50 549 111 q 300 -11 417 -11 q 119 50 185 -11 q 53 215 53 111 l 53 494 q 119 659 53 597 q 300 721 186 721 q 383 711 340 721 q 392 710 386 710 q 444 738 422 714 q 469 808 465 761 q 486 825 469 825 l 540 825 q 552 819 547 825 q 556 801 557 813 q 486 665 547 708 m 388 483 q 363 554 388 526 q 300 582 339 582 q 238 555 261 582 q 214 483 214 528 l 214 228 q 238 156 214 183 q 300 129 261 129 q 363 156 339 129 q 388 228 388 183 l 388 483 m 301 -310 q 233 -283 260 -310 q 207 -215 207 -256 q 233 -149 207 -175 q 301 -122 260 -122 q 368 -149 342 -122 q 394 -215 394 -175 q 368 -283 394 -256 q 301 -310 342 -310 z "},"ờ":{"ha":600,"x_min":53,"x_max":557,"o":"m 486 665 q 485 656 481 661 q 549 494 549 596 l 549 215 q 483 50 549 111 q 300 -11 417 -11 q 119 50 185 -11 q 53 215 53 111 l 53 494 q 119 659 53 597 q 300 721 186 721 q 383 711 340 721 q 392 710 386 710 q 444 738 422 714 q 469 808 465 761 q 486 825 469 825 l 540 825 q 552 819 547 825 q 556 801 557 813 q 486 665 547 708 m 388 483 q 363 554 388 526 q 300 582 339 582 q 238 555 261 582 q 214 483 214 528 l 214 228 q 238 156 214 183 q 300 129 261 129 q 363 156 339 129 q 388 228 388 183 l 388 483 m 351 810 q 336 799 351 799 l 256 799 q 236 810 243 799 l 135 951 q 131 961 131 958 q 146 972 131 972 l 246 972 q 267 961 261 972 l 349 818 l 351 810 z "},"ở":{"ha":600,"x_min":53,"x_max":557,"o":"m 486 665 q 485 656 481 661 q 549 494 549 596 l 549 215 q 483 50 549 111 q 300 -11 417 -11 q 119 50 185 -11 q 53 215 53 111 l 53 494 q 119 659 53 597 q 300 721 186 721 q 383 711 340 721 q 392 710 386 710 q 444 738 422 714 q 469 808 465 761 q 486 825 469 825 l 540 825 q 552 819 547 825 q 556 801 557 813 q 486 665 547 708 m 388 483 q 363 554 388 526 q 300 582 339 582 q 238 555 261 582 q 214 483 214 528 l 214 228 q 238 156 214 183 q 300 129 261 129 q 363 156 339 129 q 388 228 388 183 l 388 483 m 286 769 q 275 790 267 774 q 319 857 289 824 q 342 885 335 872 q 349 917 349 897 q 335 944 349 932 q 304 956 322 956 q 269 947 283 956 q 236 913 256 938 q 222 904 231 904 q 213 908 217 904 l 176 935 q 172 958 164 946 q 231 1018 201 1000 q 307 1036 261 1036 q 402 1003 367 1036 q 438 917 438 971 q 424 865 438 886 q 385 815 411 843 q 349 772 357 788 q 326 761 342 758 l 286 769 z "},"ỡ":{"ha":600,"x_min":53,"x_max":557,"o":"m 486 665 q 485 656 481 661 q 549 494 549 596 l 549 215 q 483 50 549 111 q 300 -11 417 -11 q 119 50 185 -11 q 53 215 53 111 l 53 494 q 119 659 53 597 q 300 721 186 721 q 383 711 340 721 q 392 710 386 710 q 444 738 422 714 q 469 808 465 761 q 486 825 469 825 l 540 825 q 552 819 547 825 q 556 801 557 813 q 486 665 547 708 m 388 483 q 363 554 388 526 q 300 582 339 582 q 238 555 261 582 q 214 483 214 528 l 214 228 q 238 156 214 183 q 300 129 261 129 q 363 156 339 129 q 388 228 388 183 l 388 483 m 360 835 q 325 841 342 835 q 285 861 308 847 q 264 874 275 867 q 244 884 253 881 q 225 888 236 888 q 172 856 193 888 q 149 850 163 842 l 104 882 q 97 904 92 890 q 147 970 117 949 q 213 992 176 992 q 254 983 235 992 q 299 960 274 975 q 315 949 304 957 q 337 938 326 942 q 358 933 347 933 q 411 964 392 933 q 433 971 419 981 l 478 940 q 485 926 485 936 q 479 908 485 918 q 423 852 456 869 q 360 835 390 835 z "},"ő":{"ha":600,"x_min":53,"x_max":560,"o":"m 300 -11 q 119 50 185 -11 q 53 215 53 111 l 53 494 q 119 659 53 597 q 300 721 186 721 q 482 659 415 721 q 549 494 549 597 l 549 215 q 483 50 549 111 q 300 -11 417 -11 m 300 129 q 363 156 339 129 q 388 228 388 183 l 388 483 q 363 554 388 526 q 300 582 339 582 q 238 555 261 582 q 214 483 214 528 l 214 228 q 238 156 214 183 q 300 129 261 129 m 160 799 q 147 803 150 799 q 147 818 143 808 l 217 960 q 236 972 222 972 l 340 972 q 353 967 350 972 q 351 953 356 961 l 276 811 q 256 799 269 799 l 160 799 m 363 799 q 350 804 353 799 q 351 818 347 810 l 426 960 q 447 972 432 972 l 544 972 q 557 967 554 972 q 556 953 560 961 l 479 810 q 458 799 474 799 l 363 799 z "},"ō":{"ha":600,"x_min":53,"x_max":549,"o":"m 300 -11 q 119 50 185 -11 q 53 215 53 111 l 53 494 q 119 659 53 597 q 300 721 186 721 q 482 659 415 721 q 549 494 549 597 l 549 215 q 483 50 549 111 q 300 -11 417 -11 m 300 129 q 363 156 339 129 q 388 228 388 183 l 388 483 q 363 554 388 526 q 300 582 339 582 q 238 555 261 582 q 214 483 214 528 l 214 228 q 238 156 214 183 q 300 129 261 129 m 164 814 q 152 819 157 814 q 147 831 147 824 l 147 908 q 152 920 147 915 q 164 925 157 925 l 428 925 q 440 920 435 925 q 444 908 444 915 l 444 831 q 440 819 444 824 q 428 814 435 814 l 164 814 z "},"ø":{"ha":642,"x_min":56,"x_max":567,"o":"m 554 726 q 561 704 567 718 l 521 626 q 521 617 519 621 q 553 494 553 564 l 553 215 q 487 50 553 111 q 304 -11 421 -11 q 210 1 251 -11 q 201 -3 204 4 l 172 -61 q 163 -70 169 -68 q 149 -68 156 -72 l 68 -18 q 61 4 56 -10 l 96 72 q 96 82 99 78 q 57 215 57 135 l 57 494 q 124 659 57 597 q 304 721 190 721 q 408 704 363 721 q 417 708 415 704 l 449 771 q 458 779 451 778 q 472 776 465 781 l 554 726 m 218 332 q 222 326 218 326 q 226 331 225 325 l 344 565 q 342 574 347 572 q 304 582 325 582 q 242 555 265 582 q 218 483 218 528 l 218 332 m 392 353 q 388 359 392 358 q 383 354 385 360 l 274 142 q 278 132 271 135 q 304 129 294 129 q 367 156 343 129 q 392 228 392 183 l 392 353 z "},"ǿ":{"ha":600,"x_min":56,"x_max":567,"o":"m 554 726 q 561 704 567 718 l 521 626 q 521 617 519 621 q 553 494 553 564 l 553 215 q 487 50 553 111 q 304 -11 421 -11 q 210 1 251 -11 q 201 -3 204 4 l 172 -61 q 163 -70 169 -68 q 149 -68 156 -72 l 68 -18 q 61 4 56 -10 l 96 72 q 96 82 99 78 q 57 215 57 135 l 57 494 q 124 659 57 597 q 304 721 190 721 q 408 704 363 721 q 417 708 415 704 l 449 771 q 458 779 451 778 q 472 776 465 781 l 554 726 m 218 332 q 222 326 218 326 q 226 331 225 325 l 344 565 q 342 574 347 572 q 304 582 325 582 q 242 555 265 582 q 218 483 218 528 l 218 332 m 392 353 q 388 359 392 358 q 383 354 385 360 l 274 142 q 278 132 271 135 q 304 129 294 129 q 367 156 343 129 q 392 228 392 183 l 392 353 m 236 799 q 222 804 226 799 q 224 818 218 810 l 306 961 q 326 972 311 972 l 426 972 q 440 966 438 972 q 438 951 443 960 l 335 808 q 315 799 328 799 l 236 799 z "},"õ":{"ha":600,"x_min":53,"x_max":549,"o":"m 300 -11 q 119 50 185 -11 q 53 215 53 111 l 53 494 q 119 659 53 597 q 300 721 186 721 q 482 659 415 721 q 549 494 549 597 l 549 215 q 483 50 549 111 q 300 -11 417 -11 m 300 129 q 363 156 339 129 q 388 228 388 183 l 388 483 q 363 554 388 526 q 300 582 339 582 q 238 555 261 582 q 214 483 214 528 l 214 228 q 238 156 214 183 q 300 129 261 129 m 390 825 q 356 831 372 825 q 315 851 339 838 q 294 864 306 857 q 275 874 283 871 q 256 878 267 878 q 203 846 224 878 q 179 840 193 832 l 135 872 q 128 894 122 881 q 177 960 147 939 q 243 982 207 982 q 285 974 265 982 q 329 950 304 965 q 346 940 335 947 q 367 928 357 932 q 389 924 378 924 q 442 954 422 924 q 464 961 450 971 l 508 931 q 515 917 515 926 q 510 899 515 908 q 453 842 486 860 q 390 825 421 825 z "},"œ":{"ha":943,"x_min":53,"x_max":897,"o":"m 897 319 q 892 308 897 313 q 881 303 888 303 l 572 303 q 565 296 565 303 l 565 226 q 589 155 565 182 q 651 128 613 128 q 705 149 683 128 q 735 201 726 169 q 753 215 739 215 l 878 210 q 890 205 885 210 q 893 192 894 200 q 822 42 883 94 q 651 -11 761 -11 q 481 68 544 -11 q 472 68 476 72 q 300 -11 408 -11 q 119 50 185 -11 q 53 215 53 111 l 53 494 q 119 659 53 597 q 300 721 186 721 q 472 640 408 721 q 481 640 476 635 q 651 721 544 721 q 831 659 765 721 q 897 494 897 597 l 897 319 m 388 483 q 363 555 388 528 q 300 582 339 582 q 238 555 261 582 q 214 483 214 528 l 214 226 q 238 155 214 182 q 300 128 261 128 q 363 155 339 128 q 388 226 388 182 l 388 483 m 651 582 q 589 555 613 582 q 565 483 565 528 l 565 418 q 572 411 565 411 l 731 411 q 738 418 738 411 l 738 483 q 713 554 738 526 q 651 582 689 582 z "},"p":{"ha":613,"x_min":69,"x_max":560,"o":"m 364 721 q 508 660 457 721 q 560 496 560 600 l 560 215 q 508 49 560 108 q 364 -11 457 -11 q 299 1 332 -11 q 239 39 265 13 q 233 40 236 42 q 231 35 231 39 l 231 -246 q 226 -258 231 -253 q 214 -262 221 -262 l 86 -262 q 74 -258 79 -262 q 69 -246 69 -253 l 69 693 q 74 705 69 700 q 86 710 79 710 l 214 710 q 226 705 221 710 q 231 693 231 700 l 231 676 q 234 672 231 672 q 242 676 238 671 q 364 721 290 721 m 400 483 q 376 556 400 528 q 314 583 353 583 q 253 556 276 583 q 231 483 231 528 l 231 226 q 253 155 231 182 q 314 128 276 128 q 376 155 353 128 q 400 226 400 182 l 400 483 z "},"þ":{"ha":601,"x_min":58,"x_max":550,"o":"m 361 721 q 501 662 453 721 q 550 496 550 603 l 550 215 q 502 49 550 110 q 361 -11 454 -11 q 287 6 322 -11 q 228 60 251 22 q 222 64 225 64 q 219 58 219 64 l 219 -261 q 215 -273 219 -268 q 203 -278 210 -278 l 75 -278 q 63 -273 68 -278 q 58 -261 58 -268 l 58 956 q 63 967 58 963 q 75 972 68 972 l 203 972 q 215 967 210 972 q 219 956 219 963 l 219 650 q 222 646 219 646 q 231 653 226 646 q 361 721 275 721 m 389 483 q 365 554 389 526 q 304 582 342 582 q 243 554 267 582 q 219 483 219 526 l 219 226 q 243 156 219 183 q 304 128 267 128 q 365 156 342 128 q 389 226 389 183 l 389 483 z "},"q":{"ha":613,"x_min":53,"x_max":543,"o":"m 382 693 q 387 705 382 700 q 399 710 392 710 l 526 710 q 538 705 533 710 q 543 693 543 700 l 543 -246 q 538 -258 543 -253 q 526 -262 533 -262 l 399 -262 q 387 -258 392 -262 q 382 -246 382 -253 l 382 35 q 379 40 382 39 q 374 39 376 42 q 314 1 347 13 q 249 -11 281 -11 q 105 49 157 -11 q 53 215 53 110 l 53 496 q 104 660 53 600 q 249 721 156 721 q 374 672 324 721 q 379 671 376 669 q 382 676 382 672 l 382 693 m 299 128 q 354 149 332 128 q 382 207 376 171 l 382 503 q 354 561 376 539 q 299 583 332 583 q 236 556 260 583 q 213 483 213 528 l 213 226 q 236 155 213 182 q 299 128 260 128 z "},"r":{"ha":435,"x_min":64,"x_max":424,"o":"m 354 718 q 413 704 392 718 q 421 683 424 697 l 399 554 q 379 544 397 538 q 343 550 360 550 q 313 546 326 550 q 249 502 274 540 q 225 411 225 464 l 225 18 q 220 6 225 11 q 208 1 215 1 l 81 1 q 69 6 74 1 q 64 18 64 11 l 64 693 q 69 705 64 700 q 81 710 74 710 l 208 710 q 220 705 215 710 q 225 693 225 700 l 225 629 q 228 623 225 624 q 232 628 231 622 q 354 718 269 718 z "},"ŕ":{"ha":435,"x_min":64,"x_max":424,"o":"m 354 718 q 413 704 392 718 q 421 683 424 697 l 399 554 q 379 544 397 538 q 343 550 360 550 q 313 546 326 550 q 249 502 274 540 q 225 411 225 464 l 225 18 q 220 6 225 11 q 208 1 215 1 l 81 1 q 69 6 74 1 q 64 18 64 11 l 64 693 q 69 705 64 700 q 81 710 74 710 l 208 710 q 220 705 215 710 q 225 693 225 700 l 225 629 q 228 623 225 624 q 232 628 231 622 q 354 718 269 718 m 183 799 q 169 804 174 799 q 171 818 165 810 l 253 961 q 274 972 258 972 l 374 972 q 388 966 385 972 q 385 951 390 960 l 282 808 q 263 799 275 799 l 183 799 z "},"ř":{"ha":435,"x_min":64,"x_max":438,"o":"m 354 718 q 413 704 392 718 q 421 683 424 697 l 399 554 q 379 544 397 538 q 343 550 360 550 q 313 546 326 550 q 249 502 274 540 q 225 411 225 464 l 225 18 q 220 6 225 11 q 208 1 215 1 l 81 1 q 69 6 74 1 q 64 18 64 11 l 64 693 q 69 705 64 700 q 81 710 74 710 l 208 710 q 220 705 215 710 q 225 693 225 700 l 225 629 q 228 623 225 624 q 232 628 231 622 q 354 718 269 718 m 71 953 q 68 963 68 961 q 82 972 68 972 l 178 972 q 199 961 192 972 l 247 875 q 256 875 251 869 l 303 961 q 324 972 310 972 l 421 972 q 434 967 431 972 q 432 953 438 963 l 340 810 q 321 799 333 799 l 178 799 q 158 810 164 799 l 71 953 z "},"s":{"ha":553,"x_min":42,"x_max":524,"o":"m 282 -8 q 107 44 172 -8 q 42 188 42 97 l 42 197 q 47 209 42 204 q 58 214 51 214 l 178 214 q 190 209 185 214 q 194 197 194 204 l 194 190 q 220 135 194 157 q 283 113 246 113 q 340 133 319 113 q 361 186 361 154 q 343 233 361 214 q 304 261 325 251 q 229 293 283 271 q 99 371 150 324 q 49 511 49 418 q 110 663 49 608 q 278 718 172 718 q 449 660 386 718 q 513 506 513 603 q 508 494 513 499 q 496 489 503 489 l 379 489 q 367 494 372 489 q 363 506 363 499 l 363 514 q 340 569 363 547 q 282 592 317 592 q 224 569 246 592 q 203 514 203 546 q 219 469 203 488 q 257 441 236 451 q 326 410 278 431 q 424 363 385 386 q 494 298 464 340 q 524 193 524 256 q 458 46 524 100 q 282 -8 393 -8 z "},"ś":{"ha":554,"x_min":42,"x_max":524,"o":"m 282 -8 q 107 44 172 -8 q 42 188 42 97 l 42 197 q 47 209 42 204 q 58 214 51 214 l 178 214 q 190 209 185 214 q 194 197 194 204 l 194 190 q 220 135 194 157 q 283 113 246 113 q 340 133 319 113 q 361 186 361 154 q 343 233 361 214 q 304 261 325 251 q 229 293 283 271 q 99 371 150 324 q 49 511 49 418 q 110 663 49 608 q 278 718 172 718 q 449 660 386 718 q 513 506 513 603 q 508 494 513 499 q 496 489 503 489 l 379 489 q 367 494 372 489 q 363 506 363 499 l 363 514 q 340 569 363 547 q 282 592 317 592 q 224 569 246 592 q 203 514 203 546 q 219 469 203 488 q 257 441 236 451 q 326 410 278 431 q 424 363 385 386 q 494 298 464 340 q 524 193 524 256 q 458 46 524 100 q 282 -8 393 -8 m 214 799 q 200 804 204 799 q 201 818 196 810 l 283 961 q 304 972 289 972 l 404 972 q 418 966 415 972 q 415 951 421 960 l 313 808 q 293 799 306 799 l 214 799 z "}}}
